NotoAmalgamated-CondensedSemiBold.ufo
<glyph name="exclam.mono" format="2">
  <advance width="500"/>
  <unicode hex="0021"/>
  <outline>
    <contour>
      <point x="200" y="227" type="line"/>
      <point x="301" y="227" type="line"/>
      <point x="322" y="714" type="line"/>
      <point x="179" y="714" type="line"/>
    </contour>
    <contour>
      <point x="251" y="-11" type="curve" smooth="yes"/>
      <point x="295" y="-11"/>
      <point x="323" y="17"/>
      <point x="323" y="68" type="curve" smooth="yes"/>
      <point x="323" y="121"/>
      <point x="297" y="147"/>
      <point x="251" y="147" type="curve" smooth="yes"/>
      <point x="202" y="147"/>
      <point x="177" y="119"/>
      <point x="177" y="68" type="curve" smooth="yes"/>
      <point x="177" y="17"/>
      <point x="204" y="-11"/>
    </contour>
  </outline>
</glyph>
<glyph name="exclam.sans" format="2">
  <advance width="258"/>
  <unicode hex="0021"/>
  <outline>
    <contour>
      <point x="184" y="232" type="line"/>
      <point x="205" y="714" type="line"/>
      <point x="53" y="714" type="line"/>
      <point x="74" y="232" type="line"/>
    </contour>
    <contour>
      <point x="52" y="70" type="curve" smooth="yes"/>
      <point x="52" y="18"/>
      <point x="81" y="-11"/>
      <point x="130" y="-11" type="curve" smooth="yes"/>
      <point x="176" y="-11"/>
      <point x="205" y="18"/>
      <point x="205" y="70" type="curve" smooth="yes"/>
      <point x="205" y="123"/>
      <point x="178" y="151"/>
      <point x="130" y="151" type="curve" smooth="yes"/>
      <point x="78" y="151"/>
      <point x="52" y="122"/>
    </contour>
  </outline>
</glyph>
<glyph name="exclam.serif" format="2">
  <advance width="316"/>
  <unicode hex="0021"/>
  <outline>
    <contour>
      <point x="130" y="219" type="line"/>
      <point x="186" y="219" type="line"/>
      <point x="232" y="714" type="line"/>
      <point x="84" y="714" type="line"/>
    </contour>
    <contour>
      <point x="159" y="-7" type="curve" smooth="yes"/>
      <point x="195" y="-7"/>
      <point x="226" y="10"/>
      <point x="226" y="66" type="curve" smooth="yes"/>
      <point x="226" y="121"/>
      <point x="195" y="139"/>
      <point x="159" y="139" type="curve" smooth="yes"/>
      <point x="121" y="139"/>
      <point x="92" y="121"/>
      <point x="92" y="66" type="curve" smooth="yes"/>
      <point x="92" y="10"/>
      <point x="121" y="-7"/>
    </contour>
  </outline>
</glyph>
<glyph name="quotedbl.mono" format="2">
  <advance width="500"/>
  <unicode hex="0022"/>
  <outline>
    <contour>
      <point x="301" y="456" type="line"/>
      <point x="399" y="456" type="line"/>
      <point x="418" y="714" type="line"/>
      <point x="283" y="714" type="line"/>
    </contour>
    <contour>
      <point x="100" y="456" type="line"/>
      <point x="197" y="456" type="line"/>
      <point x="216" y="714" type="line"/>
      <point x="81" y="714" type="line"/>
    </contour>
  </outline>
</glyph>
<glyph name="numbersign.mono" format="2">
  <advance width="500"/>
  <unicode hex="0023"/>
  <outline>
    <contour>
      <point x="73" y="0" type="line"/>
      <point x="162" y="0" type="line"/>
      <point x="188" y="204" type="line"/>
      <point x="269" y="204" type="line"/>
      <point x="241" y="0" type="line"/>
      <point x="333" y="0" type="line"/>
      <point x="360" y="204" type="line"/>
      <point x="460" y="204" type="line"/>
      <point x="460" y="294" type="line"/>
      <point x="371" y="294" type="line"/>
      <point x="388" y="427" type="line"/>
      <point x="484" y="427" type="line"/>
      <point x="484" y="519" type="line"/>
      <point x="400" y="519" type="line"/>
      <point x="426" y="714" type="line"/>
      <point x="337" y="714" type="line"/>
      <point x="311" y="519" type="line"/>
      <point x="230" y="519" type="line"/>
      <point x="257" y="714" type="line"/>
      <point x="167" y="714" type="line"/>
      <point x="141" y="519" type="line"/>
      <point x="39" y="519" type="line"/>
      <point x="39" y="427" type="line"/>
      <point x="129" y="427" type="line"/>
      <point x="111" y="294" type="line"/>
      <point x="16" y="294" type="line"/>
      <point x="16" y="204" type="line"/>
      <point x="99" y="204" type="line"/>
    </contour>
    <contour>
      <point x="201" y="294" type="line"/>
      <point x="219" y="427" type="line"/>
      <point x="299" y="427" type="line"/>
      <point x="281" y="294" type="line"/>
    </contour>
  </outline>
</glyph>
<glyph name="dollar.mono" format="2">
  <advance width="500"/>
  <unicode hex="0024"/>
  <outline>
    <contour>
      <point x="226" y="42" type="curve"/>
      <point x="226" y="-58" type="line"/>
      <point x="287" y="-58" type="line"/>
      <point x="287" y="46" type="line"/>
      <point x="393" y="64"/>
      <point x="454" y="134"/>
      <point x="454" y="228" type="curve" smooth="yes"/>
      <point x="454" y="320"/>
      <point x="401" y="365"/>
      <point x="287" y="407" type="curve"/>
      <point x="287" y="586" type="line"/>
      <point x="327" y="582"/>
      <point x="366" y="570"/>
      <point x="402" y="551" type="curve"/>
      <point x="431" y="644" type="line"/>
      <point x="386" y="668"/>
      <point x="336" y="682"/>
      <point x="287" y="685" type="curve"/>
      <point x="287" y="759" type="line"/>
      <point x="226" y="759" type="line"/>
      <point x="226" y="684" type="line"/>
      <point x="125" y="672"/>
      <point x="56" y="612"/>
      <point x="56" y="511" type="curve" smooth="yes"/>
      <point x="56" y="417"/>
      <point x="109" y="366"/>
      <point x="226" y="322" type="curve"/>
      <point x="226" y="137" type="line"/>
      <point x="172" y="139"/>
      <point x="112" y="164"/>
      <point x="69" y="192" type="curve"/>
      <point x="69" y="80" type="line"/>
      <point x="114" y="58"/>
      <point x="171" y="44"/>
    </contour>
    <contour>
      <point x="287" y="144" type="curve"/>
      <point x="287" y="297" type="line"/>
      <point x="334" y="278"/>
      <point x="356" y="256"/>
      <point x="356" y="219" type="curve" smooth="yes"/>
      <point x="356" y="184"/>
      <point x="334" y="155"/>
    </contour>
    <contour>
      <point x="226" y="585" type="curve"/>
      <point x="226" y="433" type="line"/>
      <point x="177" y="454"/>
      <point x="157" y="473"/>
      <point x="157" y="510" type="curve" smooth="yes"/>
      <point x="157" y="549"/>
      <point x="178" y="577"/>
    </contour>
  </outline>
</glyph>
<glyph name="dollar.serif" format="2">
  <advance width="456"/>
  <unicode hex="0024"/>
  <outline>
    <contour>
      <point x="210" y="40" type="curve"/>
      <point x="210" y="-79" type="line"/>
      <point x="255" y="-79" type="line"/>
      <point x="255" y="42" type="line"/>
      <point x="354" y="57"/>
      <point x="417" y="126"/>
      <point x="417" y="225" type="curve" smooth="yes"/>
      <point x="417" y="322"/>
      <point x="346" y="375"/>
      <point x="255" y="423" type="curve"/>
      <point x="255" y="636" type="line"/>
      <point x="292" y="627"/>
      <point x="310" y="574"/>
      <point x="310" y="514" type="curve"/>
      <point x="372" y="514"/>
      <point x="395" y="545"/>
      <point x="395" y="584" type="curve" smooth="yes"/>
      <point x="395" y="636"/>
      <point x="348" y="681"/>
      <point x="255" y="684" type="curve"/>
      <point x="255" y="760" type="line"/>
      <point x="210" y="760" type="line"/>
      <point x="210" y="683" type="line"/>
      <point x="122" y="671"/>
      <point x="57" y="612"/>
      <point x="57" y="518" type="curve" smooth="yes"/>
      <point x="57" y="433"/>
      <point x="91" y="379"/>
      <point x="210" y="320" type="curve"/>
      <point x="210" y="92" type="line"/>
      <point x="144" y="106"/>
      <point x="121" y="161"/>
      <point x="119" y="256" type="curve"/>
      <point x="79" y="256"/>
      <point x="40" y="232"/>
      <point x="40" y="181" type="curve" smooth="yes"/>
      <point x="40" y="115"/>
      <point x="84" y="47"/>
    </contour>
    <contour>
      <point x="255" y="93" type="curve"/>
      <point x="255" y="300" type="line"/>
      <point x="301" y="270"/>
      <point x="319" y="236"/>
      <point x="319" y="189" type="curve" smooth="yes"/>
      <point x="319" y="141"/>
      <point x="297" y="104"/>
    </contour>
    <contour>
      <point x="210" y="637" type="curve"/>
      <point x="210" y="449" type="line"/>
      <point x="169" y="476"/>
      <point x="152" y="505"/>
      <point x="152" y="552" type="curve" smooth="yes"/>
      <point x="152" y="599"/>
      <point x="178" y="630"/>
    </contour>
  </outline>
</glyph>
<glyph name="percent.mono" format="2">
  <advance width="500"/>
  <unicode hex="0025"/>
  <outline>
    <contour>
      <point x="15" y="168" type="line"/>
      <point x="112" y="168" type="line"/>
      <point x="483" y="545" type="line"/>
      <point x="387" y="545" type="line"/>
    </contour>
    <contour>
      <point x="361" y="-9" type="curve" smooth="yes"/>
      <point x="450" y="-9"/>
      <point x="500" y="51"/>
      <point x="500" y="158" type="curve" smooth="yes"/>
      <point x="500" y="269"/>
      <point x="451" y="330"/>
      <point x="361" y="330" type="curve" smooth="yes"/>
      <point x="275" y="330"/>
      <point x="224" y="267"/>
      <point x="224" y="158" type="curve" smooth="yes"/>
      <point x="224" y="53"/>
      <point x="275" y="-9"/>
    </contour>
    <contour>
      <point x="363" y="66" type="curve" smooth="yes"/>
      <point x="328" y="66"/>
      <point x="312" y="95"/>
      <point x="312" y="158" type="curve" smooth="yes"/>
      <point x="312" y="225"/>
      <point x="327" y="255"/>
      <point x="363" y="255" type="curve" smooth="yes"/>
      <point x="395" y="255"/>
      <point x="412" y="222"/>
      <point x="412" y="158" type="curve" smooth="yes"/>
      <point x="412" y="99"/>
      <point x="395" y="66"/>
    </contour>
    <contour>
      <point x="137" y="383" type="curve" smooth="yes"/>
      <point x="226" y="383"/>
      <point x="276" y="443"/>
      <point x="276" y="550" type="curve" smooth="yes"/>
      <point x="276" y="661"/>
      <point x="227" y="722"/>
      <point x="137" y="722" type="curve" smooth="yes"/>
      <point x="51" y="722"/>
      <point x="0" y="659"/>
      <point x="0" y="550" type="curve" smooth="yes"/>
      <point x="0" y="445"/>
      <point x="51" y="383"/>
    </contour>
    <contour>
      <point x="139" y="458" type="curve" smooth="yes"/>
      <point x="104" y="458"/>
      <point x="88" y="487"/>
      <point x="88" y="550" type="curve" smooth="yes"/>
      <point x="88" y="617"/>
      <point x="103" y="647"/>
      <point x="139" y="647" type="curve" smooth="yes"/>
      <point x="171" y="647"/>
      <point x="188" y="614"/>
      <point x="188" y="550" type="curve" smooth="yes"/>
      <point x="188" y="491"/>
      <point x="171" y="458"/>
    </contour>
  </outline>
</glyph>
<glyph name="ampersand.mono" format="2">
  <advance width="500"/>
  <unicode hex="0026"/>
  <outline>
    <contour>
      <point x="190" y="-10" type="curve" smooth="yes"/>
      <point x="370" y="-10"/>
      <point x="452" y="186"/>
      <point x="474" y="371" type="curve"/>
      <point x="376" y="371" type="line"/>
      <point x="362" y="267"/>
      <point x="306" y="100"/>
      <point x="205" y="100" type="curve" smooth="yes"/>
      <point x="162" y="100"/>
      <point x="138" y="131"/>
      <point x="138" y="183" type="curve" smooth="yes"/>
      <point x="138" y="258"/>
      <point x="187" y="307"/>
      <point x="234" y="349" type="curve" smooth="yes"/>
      <point x="307" y="414"/>
      <point x="372" y="466"/>
      <point x="372" y="571" type="curve" smooth="yes"/>
      <point x="372" y="659"/>
      <point x="327" y="723"/>
      <point x="228" y="723" type="curve" smooth="yes"/>
      <point x="132" y="723"/>
      <point x="80" y="661"/>
      <point x="80" y="562" type="curve" smooth="yes"/>
      <point x="80" y="471"/>
      <point x="124" y="411"/>
      <point x="154" y="356" type="curve" smooth="yes"/>
      <point x="348" y="0" type="line"/>
      <point x="476" y="0" type="line"/>
      <point x="232" y="433" type="line" smooth="yes"/>
      <point x="212" y="469"/>
      <point x="185" y="520"/>
      <point x="185" y="571" type="curve" smooth="yes"/>
      <point x="185" y="611"/>
      <point x="202" y="631"/>
      <point x="228" y="631" type="curve" smooth="yes"/>
      <point x="253" y="631"/>
      <point x="269" y="611"/>
      <point x="269" y="574" type="curve" smooth="yes"/>
      <point x="269" y="503"/>
      <point x="211" y="453"/>
      <point x="177" y="425" type="curve" smooth="yes"/>
      <point x="100" y="361"/>
      <point x="23" y="292"/>
      <point x="23" y="169" type="curve" smooth="yes"/>
      <point x="23" y="64"/>
      <point x="79" y="-10"/>
    </contour>
  </outline>
</glyph>
<glyph name="ampersand.serif" format="2">
  <advance width="659"/>
  <unicode hex="0026"/>
  <outline>
    <contour>
      <point x="243.01" y="-10" type="curve" smooth="yes"/>
      <point x="325" y="-10"/>
      <point x="386" y="32"/>
      <point x="422" y="82" type="curve"/>
      <point x="482.01" y="0" type="line"/>
      <point x="648" y="0" type="line"/>
      <point x="648" y="49" type="line"/>
      <point x="640" y="49" type="line" smooth="yes"/>
      <point x="615" y="49"/>
      <point x="591" y="54"/>
      <point x="572" y="78" type="curve" smooth="yes"/>
      <point x="490" y="180" type="line"/>
      <point x="506" y="225"/>
      <point x="518" y="271"/>
      <point x="526" y="313" type="curve" smooth="yes"/>
      <point x="539" y="374"/>
      <point x="575" y="375"/>
      <point x="611" y="375" type="curve" smooth="yes"/>
      <point x="625" y="375" type="line"/>
      <point x="625" y="425" type="line"/>
      <point x="449" y="425" type="line"/>
      <point x="449" y="382" type="line" smooth="yes"/>
      <point x="449" y="335"/>
      <point x="445" y="279"/>
      <point x="436" y="236" type="curve"/>
      <point x="319" y="404" type="line"/>
      <point x="400" y="449"/>
      <point x="440" y="500"/>
      <point x="440" y="582" type="curve" smooth="yes"/>
      <point x="440" y="656"/>
      <point x="394" y="724"/>
      <point x="283" y="724" type="curve" smooth="yes"/>
      <point x="173.01" y="724"/>
      <point x="119" y="662"/>
      <point x="119" y="567" type="curve" smooth="yes"/>
      <point x="119" y="503"/>
      <point x="137" y="459"/>
      <point x="181" y="400" type="curve"/>
      <point x="107" y="364"/>
      <point x="35" y="315"/>
      <point x="35" y="198" type="curve" smooth="yes"/>
      <point x="35" y="67"/>
      <point x="113" y="-10"/>
    </contour>
    <contour>
      <point x="271" y="55" type="curve" smooth="yes"/>
      <point x="206" y="55"/>
      <point x="163" y="106"/>
      <point x="163" y="202" type="curve" smooth="yes"/>
      <point x="163" y="278"/>
      <point x="180" y="327"/>
      <point x="215" y="357" type="curve"/>
      <point x="386" y="127" type="line"/>
      <point x="361" y="87"/>
      <point x="321" y="55"/>
    </contour>
    <contour>
      <point x="284" y="445" type="curve"/>
      <point x="249" y="495"/>
      <point x="229" y="533"/>
      <point x="229" y="580" type="curve" smooth="yes"/>
      <point x="229" y="636"/>
      <point x="250" y="669"/>
      <point x="290" y="669" type="curve" smooth="yes"/>
      <point x="327" y="669"/>
      <point x="348" y="633"/>
      <point x="348" y="581" type="curve" smooth="yes"/>
      <point x="348" y="517"/>
      <point x="329" y="478"/>
    </contour>
  </outline>
</glyph>
<glyph name="quotesingle.mono" format="2">
  <advance width="500"/>
  <unicode hex="0027"/>
  <outline>
    <contour>
      <point x="201" y="456" type="line"/>
      <point x="298" y="456" type="line"/>
      <point x="317" y="714" type="line"/>
      <point x="182" y="714" type="line"/>
    </contour>
  </outline>
</glyph>
<glyph name="quotesingle.serif" format="2">
  <advance width="243"/>
  <unicode hex="0027"/>
  <outline>
    <contour>
      <point x="94" y="452" type="line"/>
      <point x="149" y="452" type="line"/>
      <point x="187" y="714" type="line"/>
      <point x="56" y="714" type="line"/>
    </contour>
  </outline>
</glyph>
<glyph name="parenleft.mono" format="2">
  <advance width="500"/>
  <unicode hex="0028"/>
  <outline>
    <contour>
      <point x="303" y="-171" type="curve"/>
      <point x="413" y="-171" type="line"/>
      <point x="330" y="-39"/>
      <point x="284" y="106"/>
      <point x="284" y="268" type="curve" smooth="yes"/>
      <point x="284" y="435"/>
      <point x="327" y="584"/>
      <point x="414" y="714" type="curve"/>
      <point x="303" y="714" type="line"/>
      <point x="220" y="600"/>
      <point x="166" y="447"/>
      <point x="166" y="267" type="curve" smooth="yes"/>
      <point x="166" y="90"/>
      <point x="217" y="-56"/>
    </contour>
  </outline>
</glyph>
<glyph name="parenright.serif" format="2">
  <advance width="331"/>
  <unicode hex="0029"/>
  <outline>
    <contour>
      <point x="25" y="-77" type="curve"/>
      <point x="25" y="-135" type="line"/>
      <point x="212" y="-51"/>
      <point x="285" y="93"/>
      <point x="285" y="317" type="curve" smooth="yes"/>
      <point x="285" y="541"/>
      <point x="212" y="685"/>
      <point x="25" y="768" type="curve"/>
      <point x="25" y="711" type="line"/>
      <point x="125" y="628"/>
      <point x="148" y="476"/>
      <point x="148" y="317" type="curve" smooth="yes"/>
      <point x="148" y="158"/>
      <point x="125" y="5"/>
    </contour>
  </outline>
</glyph>
<glyph name="asterisk.mono" format="2">
  <advance width="500"/>
  <unicode hex="002A"/>
  <outline>
    <contour>
      <point x="316" y="370" type="line"/>
      <point x="411" y="434" type="line"/>
      <point x="316" y="544" type="line"/>
      <point x="445" y="558" type="line"/>
      <point x="419" y="667" type="line"/>
      <point x="291" y="622" type="line"/>
      <point x="309" y="762" type="line"/>
      <point x="192" y="762" type="line"/>
      <point x="209" y="622" type="line"/>
      <point x="81" y="667" type="line"/>
      <point x="55" y="557" type="line"/>
      <point x="183" y="544" type="line"/>
      <point x="89" y="434" type="line"/>
      <point x="183" y="369" type="line"/>
      <point x="250" y="497" type="line"/>
    </contour>
  </outline>
</glyph>
<glyph name="plus.mono" format="2">
  <advance width="500"/>
  <unicode hex="002B"/>
  <outline>
    <contour>
      <point x="200" y="115" type="line"/>
      <point x="301" y="115" type="line"/>
      <point x="301" y="303" type="line"/>
      <point x="450" y="303" type="line"/>
      <point x="450" y="403" type="line"/>
      <point x="301" y="403" type="line"/>
      <point x="301" y="593" type="line"/>
      <point x="200" y="593" type="line"/>
      <point x="200" y="403" type="line"/>
      <point x="50" y="403" type="line"/>
      <point x="50" y="303" type="line"/>
      <point x="200" y="303" type="line"/>
    </contour>
  </outline>
</glyph>
<glyph name="comma.mono" format="2">
  <advance width="500"/>
  <unicode hex="002C"/>
  <outline>
    <contour>
      <point x="165" y="-135" type="curve"/>
      <point x="264" y="-135" type="line"/>
      <point x="295" y="-63"/>
      <point x="317" y="22"/>
      <point x="334" y="119" type="curve"/>
      <point x="328" y="130" type="line"/>
      <point x="206" y="130" type="line"/>
      <point x="201" y="57"/>
      <point x="183" y="-57"/>
    </contour>
  </outline>
</glyph>
<glyph name="comma.sans" format="2">
  <advance width="254"/>
  <unicode hex="002C"/>
  <outline>
    <contour>
      <point x="202" y="135" type="line"/>
      <point x="73" y="135" type="line"/>
      <point x="68" y="61"/>
      <point x="50" y="-57"/>
      <point x="33" y="-136" type="curve"/>
      <point x="139" y="-136" type="line"/>
      <point x="169" y="-64"/>
      <point x="191" y="24"/>
      <point x="208" y="124" type="curve"/>
    </contour>
  </outline>
</glyph>
<glyph name="hyphen.mono" format="2">
  <advance width="500"/>
  <unicode hex="002D"/>
  <outline>
    <contour>
      <point x="125" y="206" type="line"/>
      <point x="375" y="206" type="line"/>
      <point x="375" y="330" type="line"/>
      <point x="125" y="330" type="line"/>
    </contour>
  </outline>
</glyph>
<glyph name="hyphen.sans" format="2">
  <advance width="306"/>
  <unicode hex="002D"/>
  <outline>
    <contour>
      <point x="28" y="207" type="line"/>
      <point x="278" y="207" type="line"/>
      <point x="278" y="331" type="line"/>
      <point x="28" y="331" type="line"/>
    </contour>
  </outline>
</glyph>
<glyph name="period.mono" format="2">
  <advance width="500"/>
  <unicode hex="002E"/>
  <outline>
    <contour>
      <point x="250" y="-11" type="curve" smooth="yes"/>
      <point x="295" y="-11"/>
      <point x="323" y="17"/>
      <point x="323" y="68" type="curve" smooth="yes"/>
      <point x="323" y="121"/>
      <point x="296" y="147"/>
      <point x="250" y="147" type="curve" smooth="yes"/>
      <point x="202" y="147"/>
      <point x="176" y="119"/>
      <point x="176" y="68" type="curve" smooth="yes"/>
      <point x="176" y="17"/>
      <point x="205" y="-11"/>
    </contour>
  </outline>
</glyph>
<glyph name="period.sans" format="2">
  <advance width="254"/>
  <unicode hex="002E"/>
  <outline>
    <contour>
      <point x="50" y="70" type="curve" smooth="yes"/>
      <point x="50" y="19"/>
      <point x="79" y="-11"/>
      <point x="128" y="-11" type="curve" smooth="yes"/>
      <point x="175" y="-11"/>
      <point x="203" y="18"/>
      <point x="203" y="70" type="curve" smooth="yes"/>
      <point x="203" y="124"/>
      <point x="176" y="152"/>
      <point x="128" y="152" type="curve" smooth="yes"/>
      <point x="77" y="152"/>
      <point x="50" y="123"/>
    </contour>
  </outline>
</glyph>
<glyph name="period.serif" format="2">
  <advance width="244"/>
  <unicode hex="002E"/>
  <outline>
    <contour>
      <point x="122" y="-7" type="curve" smooth="yes"/>
      <point x="158" y="-7"/>
      <point x="190" y="10"/>
      <point x="190" y="66" type="curve" smooth="yes"/>
      <point x="190" y="121"/>
      <point x="158" y="139"/>
      <point x="122" y="139" type="curve" smooth="yes"/>
      <point x="84" y="139"/>
      <point x="54" y="121"/>
      <point x="54" y="66" type="curve" smooth="yes"/>
      <point x="54" y="10"/>
      <point x="84" y="-7"/>
    </contour>
  </outline>
</glyph>
<glyph name="zero.mono" format="2">
  <advance width="500"/>
  <unicode hex="0030"/>
  <outline>
    <contour>
      <point x="261" y="-10" type="curve" smooth="yes"/>
      <point x="408" y="-10"/>
      <point x="454" y="139"/>
      <point x="454" y="357" type="curve" smooth="yes"/>
      <point x="454" y="601"/>
      <point x="390" y="724"/>
      <point x="261" y="724" type="curve" smooth="yes"/>
      <point x="130" y="724"/>
      <point x="68" y="607"/>
      <point x="68" y="357" type="curve" smooth="yes"/>
      <point x="68" y="94"/>
      <point x="135" y="-10"/>
    </contour>
    <contour>
      <point x="155" y="93" type="line"/>
      <point x="418" y="560" type="line"/>
      <point x="366" y="629" type="line"/>
      <point x="96" y="148" type="line"/>
    </contour>
    <contour>
      <point x="261" y="102" type="curve" smooth="yes"/>
      <point x="210" y="102"/>
      <point x="194" y="183"/>
      <point x="194" y="357" type="curve" smooth="yes"/>
      <point x="194" y="528"/>
      <point x="211" y="612"/>
      <point x="261" y="612" type="curve" smooth="yes"/>
      <point x="311" y="612"/>
      <point x="327" y="527"/>
      <point x="327" y="357" type="curve" smooth="yes"/>
      <point x="327" y="183"/>
      <point x="311" y="102"/>
    </contour>
  </outline>
</glyph>
<glyph name="one.mono" format="2">
  <advance width="500"/>
  <unicode hex="0031"/>
  <outline>
    <contour>
      <point x="207" y="422" type="curve" smooth="yes"/>
      <point x="207" y="0" type="line"/>
      <point x="335" y="0" type="line"/>
      <point x="335" y="714" type="line"/>
      <point x="211" y="714" type="line"/>
      <point x="10" y="602" type="line"/>
      <point x="65" y="502" type="line"/>
      <point x="142" y="543" type="line" smooth="yes"/>
      <point x="167" y="556"/>
      <point x="190" y="567"/>
      <point x="213" y="587" type="curve"/>
      <point x="208" y="541"/>
      <point x="207" y="495"/>
    </contour>
    <contour>
      <point x="74" y="0" type="line"/>
      <point x="465" y="0" type="line"/>
      <point x="465" y="97" type="line"/>
      <point x="329" y="110" type="line"/>
      <point x="222" y="110" type="line"/>
      <point x="74" y="97" type="line"/>
    </contour>
  </outline>
</glyph>
<glyph name="two.mono" format="2">
  <advance width="500"/>
  <unicode hex="0032"/>
  <outline>
    <contour>
      <point x="63" y="0" type="line"/>
      <point x="445" y="0" type="line"/>
      <point x="445" y="111" type="line"/>
      <point x="212" y="111" type="line"/>
      <point x="212" y="116" type="line"/>
      <point x="312" y="247" type="line" smooth="yes"/>
      <point x="398" y="359"/>
      <point x="434" y="435"/>
      <point x="434" y="525" type="curve" smooth="yes"/>
      <point x="434" y="654"/>
      <point x="359" y="724"/>
      <point x="244" y="724" type="curve" smooth="yes"/>
      <point x="178" y="724"/>
      <point x="120" y="701"/>
      <point x="62" y="633" type="curve"/>
      <point x="124" y="549" type="line"/>
      <point x="164" y="597"/>
      <point x="194" y="613"/>
      <point x="231" y="613" type="curve" smooth="yes"/>
      <point x="285" y="613"/>
      <point x="307" y="579"/>
      <point x="307" y="517" type="curve" smooth="yes"/>
      <point x="307" y="458"/>
      <point x="286" y="407"/>
      <point x="200" y="285" type="curve" smooth="yes"/>
      <point x="63" y="91" type="line"/>
    </contour>
  </outline>
</glyph>
<glyph name="three.mono" format="2">
  <advance width="500"/>
  <unicode hex="0033"/>
  <outline>
    <contour>
      <point x="218" y="-10" type="curve" smooth="yes"/>
      <point x="369" y="-10"/>
      <point x="448" y="72"/>
      <point x="448" y="198" type="curve" smooth="yes"/>
      <point x="448" y="294"/>
      <point x="402" y="353"/>
      <point x="314" y="372" type="curve"/>
      <point x="314" y="375" type="line"/>
      <point x="387" y="403"/>
      <point x="434" y="457"/>
      <point x="434" y="549" type="curve" smooth="yes"/>
      <point x="434" y="660"/>
      <point x="365" y="724"/>
      <point x="245" y="724" type="curve" smooth="yes"/>
      <point x="171" y="724"/>
      <point x="113" y="700"/>
      <point x="63" y="658" type="curve"/>
      <point x="114" y="567" type="line"/>
      <point x="153" y="599"/>
      <point x="187" y="615"/>
      <point x="227" y="615" type="curve" smooth="yes"/>
      <point x="281" y="615"/>
      <point x="310" y="585"/>
      <point x="310" y="530" type="curve" smooth="yes"/>
      <point x="310" y="462"/>
      <point x="265" y="420"/>
      <point x="182" y="420" type="curve" smooth="yes"/>
      <point x="145" y="420" type="line"/>
      <point x="145" y="314" type="line"/>
      <point x="181" y="314" type="line" smooth="yes"/>
      <point x="274" y="314"/>
      <point x="316" y="279"/>
      <point x="316" y="205" type="curve" smooth="yes"/>
      <point x="316" y="139"/>
      <point x="282" y="99"/>
      <point x="208" y="99" type="curve" smooth="yes"/>
      <point x="162" y="99"/>
      <point x="112" y="114"/>
      <point x="64" y="142" type="curve"/>
      <point x="64" y="23" type="line"/>
      <point x="109" y="2"/>
      <point x="160" y="-10"/>
    </contour>
  </outline>
</glyph>
<glyph name="four.mono" format="2">
  <advance width="500"/>
  <unicode hex="0034"/>
  <outline>
    <contour>
      <point x="274" y="0" type="line"/>
      <point x="398" y="0" type="line"/>
      <point x="398" y="147" type="line"/>
      <point x="470" y="147" type="line"/>
      <point x="470" y="251" type="line"/>
      <point x="398" y="251" type="line"/>
      <point x="398" y="717" type="line"/>
      <point x="270" y="717" type="line"/>
      <point x="30" y="248" type="line"/>
      <point x="30" y="147" type="line"/>
      <point x="274" y="147" type="line"/>
    </contour>
    <contour>
      <point x="133" y="251" type="line"/>
      <point x="239" y="463" type="line" smooth="yes"/>
      <point x="251" y="488"/>
      <point x="262" y="514"/>
      <point x="272" y="542" type="curve"/>
      <point x="276" y="542" type="line"/>
      <point x="274" y="502"/>
      <point x="273" y="472"/>
      <point x="273" y="434" type="curve" smooth="yes"/>
      <point x="273" y="251" type="line"/>
    </contour>
  </outline>
</glyph>
<glyph name="five.mono" format="2">
  <advance width="500"/>
  <unicode hex="0035"/>
  <outline>
    <contour>
      <point x="213" y="-10" type="curve" smooth="yes"/>
      <point x="363" y="-10"/>
      <point x="439" y="82"/>
      <point x="439" y="234" type="curve" smooth="yes"/>
      <point x="439" y="364"/>
      <point x="369" y="454"/>
      <point x="265" y="454" type="curve" smooth="yes"/>
      <point x="245" y="454"/>
      <point x="222" y="452"/>
      <point x="193" y="445" type="curve"/>
      <point x="204" y="602" type="line"/>
      <point x="401" y="602" type="line"/>
      <point x="401" y="714" type="line"/>
      <point x="98" y="714" type="line"/>
      <point x="77" y="364" type="line"/>
      <point x="120" y="330" type="line"/>
      <point x="149" y="341"/>
      <point x="178" y="347"/>
      <point x="205" y="347" type="curve" smooth="yes"/>
      <point x="274" y="347"/>
      <point x="310" y="306"/>
      <point x="310" y="229" type="curve" smooth="yes"/>
      <point x="310" y="153"/>
      <point x="275" y="99"/>
      <point x="205" y="99" type="curve" smooth="yes"/>
      <point x="160" y="99"/>
      <point x="110" y="116"/>
      <point x="69" y="141" type="curve"/>
      <point x="69" y="23" type="line"/>
      <point x="108" y="1"/>
      <point x="155" y="-10"/>
    </contour>
  </outline>
</glyph>
<glyph name="five.serif" format="2">
  <advance width="456"/>
  <unicode hex="0035"/>
  <outline>
    <contour>
      <point x="200" y="-10" type="curve" smooth="yes"/>
      <point x="295" y="-10"/>
      <point x="414" y="58"/>
      <point x="414" y="219" type="curve" smooth="yes"/>
      <point x="414" y="361"/>
      <point x="331" y="433"/>
      <point x="201" y="433" type="curve" smooth="yes"/>
      <point x="174" y="433"/>
      <point x="132" y="425"/>
      <point x="113" y="416" type="curve"/>
      <point x="129" y="615" type="line"/>
      <point x="297" y="615" type="line" smooth="yes"/>
      <point x="323" y="615"/>
      <point x="324" y="601"/>
      <point x="333" y="571" type="curve" smooth="yes"/>
      <point x="341" y="543" type="line"/>
      <point x="390" y="543" type="line"/>
      <point x="387" y="714" type="line"/>
      <point x="84" y="714" type="line"/>
      <point x="55" y="367" type="line"/>
      <point x="85" y="351" type="line"/>
      <point x="111" y="360"/>
      <point x="140" y="372"/>
      <point x="177" y="372" type="curve" smooth="yes"/>
      <point x="245" y="372"/>
      <point x="285" y="321"/>
      <point x="285" y="219" type="curve" smooth="yes"/>
      <point x="285" y="92"/>
      <point x="239" y="52"/>
      <point x="186" y="52" type="curve" smooth="yes"/>
      <point x="120" y="52"/>
      <point x="98" y="116"/>
      <point x="98" y="175" type="curve"/>
      <point x="59" y="175"/>
      <point x="31" y="150"/>
      <point x="31" y="108" type="curve" smooth="yes"/>
      <point x="31" y="51"/>
      <point x="77" y="-10"/>
    </contour>
  </outline>
</glyph>
<glyph name="six.mono" format="2">
  <advance width="500"/>
  <unicode hex="0036"/>
  <outline>
    <contour>
      <point x="259" y="-10" type="curve" smooth="yes"/>
      <point x="381" y="-10"/>
      <point x="447" y="90"/>
      <point x="447" y="235" type="curve" smooth="yes"/>
      <point x="447" y="371"/>
      <point x="393" y="465"/>
      <point x="293" y="465" type="curve" smooth="yes"/>
      <point x="241" y="465"/>
      <point x="202" y="435"/>
      <point x="181" y="383" type="curve"/>
      <point x="177" y="383" type="line"/>
      <point x="182" y="542"/>
      <point x="233" y="617"/>
      <point x="333" y="617" type="curve" smooth="yes"/>
      <point x="361" y="617"/>
      <point x="388" y="613"/>
      <point x="412" y="606" type="curve"/>
      <point x="412" y="715" type="line"/>
      <point x="384" y="721"/>
      <point x="354" y="724"/>
      <point x="323" y="724" type="curve" smooth="yes"/>
      <point x="119" y="724"/>
      <point x="58" y="542"/>
      <point x="58" y="303" type="curve" smooth="yes"/>
      <point x="58" y="104"/>
      <point x="132" y="-10"/>
    </contour>
    <contour>
      <point x="256" y="100" type="curve" smooth="yes"/>
      <point x="207" y="100"/>
      <point x="186" y="179"/>
      <point x="186" y="253" type="curve" smooth="yes"/>
      <point x="186" y="309"/>
      <point x="212" y="356"/>
      <point x="257" y="356" type="curve" smooth="yes"/>
      <point x="300" y="356"/>
      <point x="322" y="314"/>
      <point x="322" y="232" type="curve" smooth="yes"/>
      <point x="322" y="143"/>
      <point x="296" y="100"/>
    </contour>
  </outline>
</glyph>
<glyph name="seven.sans" format="2">
  <advance width="469"/>
  <unicode hex="0037"/>
  <outline>
    <contour>
      <point x="87" y="0" type="line"/>
      <point x="229" y="0" type="line"/>
      <point x="433" y="621" type="line"/>
      <point x="433" y="714" type="line"/>
      <point x="34" y="714" type="line"/>
      <point x="34" y="595" type="line"/>
      <point x="296" y="595" type="line"/>
    </contour>
  </outline>
</glyph>
<glyph name="seven.serif" format="2">
  <advance width="456"/>
  <unicode hex="0037"/>
  <outline>
    <contour>
      <point x="95" y="0" type="line"/>
      <point x="205" y="0" type="line"/>
      <point x="421" y="672" type="line"/>
      <point x="421" y="714" type="line"/>
      <point x="42" y="714" type="line"/>
      <point x="37" y="514" type="line"/>
      <point x="90" y="514" type="line"/>
      <point x="95" y="562" type="line" smooth="yes"/>
      <point x="99" y="598"/>
      <point x="112" y="615"/>
      <point x="142" y="615" type="curve"/>
      <point x="315" y="615" type="line"/>
    </contour>
  </outline>
</glyph>
<glyph name="eight.mono" format="2">
  <advance width="500"/>
  <unicode hex="0038"/>
  <outline>
    <contour>
      <point x="259" y="-10" type="curve" smooth="yes"/>
      <point x="381" y="-10"/>
      <point x="457" y="65"/>
      <point x="457" y="185" type="curve" smooth="yes"/>
      <point x="457" y="264"/>
      <point x="417" y="319"/>
      <point x="336" y="375" type="curve"/>
      <point x="408" y="418"/>
      <point x="440" y="476"/>
      <point x="440" y="554" type="curve" smooth="yes"/>
      <point x="440" y="660"/>
      <point x="374" y="724"/>
      <point x="259" y="724" type="curve" smooth="yes"/>
      <point x="146" y="724"/>
      <point x="76" y="660"/>
      <point x="76" y="554" type="curve" smooth="yes"/>
      <point x="76" y="483"/>
      <point x="106" y="424"/>
      <point x="171" y="373" type="curve"/>
      <point x="93" y="324"/>
      <point x="58" y="262"/>
      <point x="58" y="182" type="curve" smooth="yes"/>
      <point x="58" y="62"/>
      <point x="130" y="-10"/>
    </contour>
    <contour>
      <point x="257" y="92" type="curve" smooth="yes"/>
      <point x="206" y="92"/>
      <point x="180" y="129"/>
      <point x="180" y="184" type="curve" smooth="yes"/>
      <point x="180" y="237"/>
      <point x="200" y="274"/>
      <point x="253" y="312" type="curve"/>
      <point x="311" y="267"/>
      <point x="337" y="237"/>
      <point x="337" y="184" type="curve" smooth="yes"/>
      <point x="337" y="128"/>
      <point x="310" y="92"/>
    </contour>
    <contour>
      <point x="258" y="436" type="curve"/>
      <point x="217" y="467"/>
      <point x="197" y="499"/>
      <point x="197" y="544" type="curve" smooth="yes"/>
      <point x="197" y="592"/>
      <point x="221" y="622"/>
      <point x="259" y="622" type="curve" smooth="yes"/>
      <point x="297" y="622"/>
      <point x="322" y="592"/>
      <point x="322" y="544" type="curve" smooth="yes"/>
      <point x="322" y="501"/>
      <point x="305" y="470"/>
    </contour>
  </outline>
</glyph>
<glyph name="nine.mono" format="2">
  <advance width="500"/>
  <unicode hex="0039"/>
  <outline>
    <contour>
      <point x="187" y="-10" type="curve" smooth="yes"/>
      <point x="389" y="-10"/>
      <point x="453" y="168"/>
      <point x="453" y="415" type="curve" smooth="yes"/>
      <point x="453" y="611"/>
      <point x="380" y="724"/>
      <point x="255" y="724" type="curve" smooth="yes"/>
      <point x="130" y="724"/>
      <point x="64" y="624"/>
      <point x="64" y="479" type="curve" smooth="yes"/>
      <point x="64" y="343"/>
      <point x="117" y="249"/>
      <point x="218" y="249" type="curve" smooth="yes"/>
      <point x="270" y="249"/>
      <point x="308" y="279"/>
      <point x="331" y="331" type="curve"/>
      <point x="335" y="331" type="line"/>
      <point x="330" y="192"/>
      <point x="290" y="97"/>
      <point x="177" y="97" type="curve" smooth="yes"/>
      <point x="148" y="97"/>
      <point x="121" y="101"/>
      <point x="97" y="109" type="curve"/>
      <point x="97" y="0" type="line"/>
      <point x="123" y="-6"/>
      <point x="157" y="-10"/>
    </contour>
    <contour>
      <point x="254" y="358" type="curve" smooth="yes"/>
      <point x="211" y="358"/>
      <point x="189" y="400"/>
      <point x="189" y="482" type="curve" smooth="yes"/>
      <point x="189" y="571"/>
      <point x="216" y="614"/>
      <point x="256" y="614" type="curve" smooth="yes"/>
      <point x="315" y="614"/>
      <point x="325" y="514"/>
      <point x="325" y="465" type="curve" smooth="yes"/>
      <point x="325" y="416"/>
      <point x="305" y="358"/>
    </contour>
  </outline>
</glyph>
<glyph name="colon.mono" format="2">
  <advance width="500"/>
  <unicode hex="003A"/>
  <outline>
    <contour>
      <point x="251" y="392" type="curve" smooth="yes"/>
      <point x="295" y="392"/>
      <point x="323" y="420"/>
      <point x="323" y="471" type="curve" smooth="yes"/>
      <point x="323" y="522"/>
      <point x="298" y="551"/>
      <point x="251" y="551" type="curve" smooth="yes"/>
      <point x="203" y="551"/>
      <point x="176" y="522"/>
      <point x="176" y="471" type="curve" smooth="yes"/>
      <point x="176" y="421"/>
      <point x="203" y="392"/>
    </contour>
    <contour>
      <point x="251" y="-11" type="curve" smooth="yes"/>
      <point x="295" y="-11"/>
      <point x="323" y="17"/>
      <point x="323" y="68" type="curve" smooth="yes"/>
      <point x="323" y="121"/>
      <point x="297" y="147"/>
      <point x="251" y="147" type="curve" smooth="yes"/>
      <point x="202" y="147"/>
      <point x="176" y="119"/>
      <point x="176" y="68" type="curve" smooth="yes"/>
      <point x="176" y="17"/>
      <point x="204" y="-11"/>
    </contour>
  </outline>
</glyph>
<glyph name="colon.sans" format="2">
  <advance width="259"/>
  <unicode hex="003A"/>
  <outline>
    <contour>
      <point x="53" y="70" type="curve" smooth="yes"/>
      <point x="53" y="19"/>
      <point x="81" y="-11"/>
      <point x="131" y="-11" type="curve" smooth="yes"/>
      <point x="177" y="-11"/>
      <point x="206" y="18"/>
      <point x="206" y="70" type="curve" smooth="yes"/>
      <point x="206" y="124"/>
      <point x="179" y="152"/>
      <point x="131" y="152" type="curve" smooth="yes"/>
      <point x="79" y="152"/>
      <point x="53" y="123"/>
    </contour>
    <contour>
      <point x="53" y="471" type="curve" smooth="yes"/>
      <point x="53" y="419"/>
      <point x="82" y="390"/>
      <point x="131" y="390" type="curve" smooth="yes"/>
      <point x="177" y="390"/>
      <point x="206" y="419"/>
      <point x="206" y="471" type="curve" smooth="yes"/>
      <point x="206" y="524"/>
      <point x="180" y="553"/>
      <point x="131" y="553" type="curve" smooth="yes"/>
      <point x="79" y="553"/>
      <point x="53" y="524"/>
    </contour>
  </outline>
</glyph>
<glyph name="semicolon.mono" format="2">
  <advance width="500"/>
  <unicode hex="003B"/>
  <outline>
    <contour>
      <point x="165" y="-135" type="curve"/>
      <point x="264" y="-135" type="line"/>
      <point x="294" y="-63"/>
      <point x="317" y="22"/>
      <point x="334" y="119" type="curve"/>
      <point x="328" y="130" type="line"/>
      <point x="206" y="130" type="line"/>
      <point x="199" y="55"/>
      <point x="183" y="-55"/>
    </contour>
    <contour>
      <point x="260" y="392" type="curve" smooth="yes"/>
      <point x="304" y="392"/>
      <point x="332" y="420"/>
      <point x="332" y="471" type="curve" smooth="yes"/>
      <point x="332" y="522"/>
      <point x="307" y="551"/>
      <point x="260" y="551" type="curve" smooth="yes"/>
      <point x="212" y="551"/>
      <point x="186" y="522"/>
      <point x="186" y="471" type="curve" smooth="yes"/>
      <point x="186" y="421"/>
      <point x="214" y="392"/>
    </contour>
  </outline>
</glyph>
<glyph name="equal.mono" format="2">
  <advance width="500"/>
  <unicode hex="003D"/>
  <outline>
    <contour>
      <point x="50" y="391" type="line"/>
      <point x="450" y="391" type="line"/>
      <point x="450" y="511" type="line"/>
      <point x="50" y="511" type="line"/>
    </contour>
    <contour>
      <point x="50" y="173" type="line"/>
      <point x="450" y="173" type="line"/>
      <point x="450" y="293" type="line"/>
      <point x="50" y="293" type="line"/>
    </contour>
  </outline>
</glyph>
<glyph name="greater.mono" format="2">
  <advance width="500"/>
  <unicode hex="003E"/>
  <outline>
    <contour>
      <point x="48" y="122" type="line"/>
      <point x="452" y="325" type="line"/>
      <point x="452" y="392" type="line"/>
      <point x="48" y="594" type="line"/>
      <point x="48" y="482" type="line"/>
      <point x="310" y="358" type="line"/>
      <point x="48" y="233" type="line"/>
    </contour>
  </outline>
</glyph>
<glyph name="question.mono" format="2">
  <advance width="500"/>
  <unicode hex="003F"/>
  <outline>
    <contour>
      <point x="178" y="263" type="curve" smooth="yes"/>
      <point x="178" y="227" type="line"/>
      <point x="279" y="227" type="line"/>
      <point x="279" y="249" type="line" smooth="yes"/>
      <point x="279" y="291"/>
      <point x="286" y="312"/>
      <point x="331" y="360" type="curve" smooth="yes"/>
      <point x="389" y="423"/>
      <point x="419" y="467"/>
      <point x="419" y="553" type="curve" smooth="yes"/>
      <point x="419" y="660"/>
      <point x="357" y="724"/>
      <point x="243" y="724" type="curve" smooth="yes"/>
      <point x="187" y="724"/>
      <point x="134" y="705"/>
      <point x="81" y="666" type="curve"/>
      <point x="123" y="571" type="line"/>
      <point x="163" y="599"/>
      <point x="197" y="614"/>
      <point x="233" y="614" type="curve" smooth="yes"/>
      <point x="276" y="614"/>
      <point x="299" y="589"/>
      <point x="299" y="542" type="curve" smooth="yes"/>
      <point x="299" y="495"/>
      <point x="284" y="464"/>
      <point x="239" y="417" type="curve" smooth="yes"/>
      <point x="193" y="369"/>
      <point x="178" y="329"/>
    </contour>
    <contour>
      <point x="230" y="-11" type="curve" smooth="yes"/>
      <point x="274" y="-11"/>
      <point x="302" y="17"/>
      <point x="302" y="68" type="curve" smooth="yes"/>
      <point x="302" y="121"/>
      <point x="275" y="147"/>
      <point x="230" y="147" type="curve" smooth="yes"/>
      <point x="181" y="147"/>
      <point x="155" y="119"/>
      <point x="155" y="68" type="curve" smooth="yes"/>
      <point x="155" y="17"/>
      <point x="184" y="-11"/>
    </contour>
  </outline>
</glyph>
<glyph name="at.mono" format="2">
  <advance width="500"/>
  <unicode hex="0040"/>
  <outline>
    <contour>
      <point x="253" y="-89" type="curve" smooth="yes"/>
      <point x="305" y="-89"/>
      <point x="344" y="-76"/>
      <point x="390" y="-49" type="curve"/>
      <point x="390" y="24" type="line"/>
      <point x="338" y="-3"/>
      <point x="296" y="-16"/>
      <point x="255" y="-16" type="curve" smooth="yes"/>
      <point x="136" y="-16"/>
      <point x="88" y="98"/>
      <point x="88" y="289" type="curve" smooth="yes"/>
      <point x="88" y="503"/>
      <point x="165" y="642"/>
      <point x="274" y="642" type="curve" smooth="yes"/>
      <point x="369" y="642"/>
      <point x="413" y="534"/>
      <point x="413" y="363" type="curve" smooth="yes"/>
      <point x="413" y="259"/>
      <point x="403" y="187"/>
      <point x="387" y="187" type="curve" smooth="yes"/>
      <point x="373" y="187"/>
      <point x="368" y="210"/>
      <point x="368" y="265" type="curve" smooth="yes"/>
      <point x="368" y="277"/>
      <point x="368" y="286"/>
      <point x="369" y="296" type="curve" smooth="yes"/>
      <point x="380" y="494" type="line"/>
      <point x="353" y="507"/>
      <point x="321" y="520"/>
      <point x="286" y="520" type="curve" smooth="yes"/>
      <point x="190" y="520"/>
      <point x="128" y="432"/>
      <point x="128" y="299" type="curve" smooth="yes"/>
      <point x="128" y="179"/>
      <point x="163" y="108"/>
      <point x="233" y="108" type="curve" smooth="yes"/>
      <point x="271" y="108"/>
      <point x="294" y="135"/>
      <point x="309" y="165" type="curve"/>
      <point x="311" y="165" type="line"/>
      <point x="322" y="135"/>
      <point x="340" y="108"/>
      <point x="387" y="108" type="curve" smooth="yes"/>
      <point x="457" y="108"/>
      <point x="500" y="214"/>
      <point x="500" y="365" type="curve" smooth="yes"/>
      <point x="500" y="572"/>
      <point x="418" y="714"/>
      <point x="274" y="714" type="curve" smooth="yes"/>
      <point x="100" y="714"/>
      <point x="0" y="532"/>
      <point x="0" y="282" type="curve" smooth="yes"/>
      <point x="0" y="53"/>
      <point x="88" y="-89"/>
    </contour>
    <contour>
      <point x="246" y="187" type="curve" smooth="yes"/>
      <point x="223" y="187"/>
      <point x="213" y="225"/>
      <point x="213" y="297" type="curve" smooth="yes"/>
      <point x="213" y="386"/>
      <point x="240" y="441"/>
      <point x="270" y="441" type="curve" smooth="yes"/>
      <point x="279" y="441"/>
      <point x="285" y="438"/>
      <point x="290" y="434" type="curve"/>
      <point x="284" y="326" type="line" smooth="yes"/>
      <point x="278" y="224"/>
      <point x="269" y="187"/>
    </contour>
  </outline>
</glyph>
<glyph name="at.serif" format="2">
  <advance width="750"/>
  <unicode hex="0040"/>
  <outline>
    <contour>
      <point x="373" y="-142" type="curve" smooth="yes"/>
      <point x="487" y="-142"/>
      <point x="561" y="-96"/>
      <point x="622" y="-46" type="curve"/>
      <point x="602" y="-7" type="line"/>
      <point x="551" y="-49"/>
      <point x="477" y="-90"/>
      <point x="382" y="-90" type="curve" smooth="yes"/>
      <point x="225" y="-90"/>
      <point x="119" y="7"/>
      <point x="119" y="227" type="curve" smooth="yes"/>
      <point x="119" y="494"/>
      <point x="266" y="667"/>
      <point x="426" y="667" type="curve" smooth="yes"/>
      <point x="560" y="667"/>
      <point x="656" y="567"/>
      <point x="656" y="382" type="curve" smooth="yes"/>
      <point x="656" y="216"/>
      <point x="601" y="128"/>
      <point x="558" y="128" type="curve" smooth="yes"/>
      <point x="542" y="128"/>
      <point x="521" y="144"/>
      <point x="521" y="201" type="curve" smooth="yes"/>
      <point x="521" y="215"/>
      <point x="523" y="246"/>
      <point x="527" y="276" type="curve" smooth="yes"/>
      <point x="562" y="520" type="line"/>
      <point x="536" y="520" type="line"/>
      <point x="503" y="499" type="line"/>
      <point x="489" y="514"/>
      <point x="453" y="529"/>
      <point x="419" y="529" type="curve" smooth="yes"/>
      <point x="275" y="529"/>
      <point x="205" y="375"/>
      <point x="205" y="248" type="curve" smooth="yes"/>
      <point x="205" y="134"/>
      <point x="259" y="77"/>
      <point x="329" y="77" type="curve" smooth="yes"/>
      <point x="387" y="77"/>
      <point x="422" y="120"/>
      <point x="445" y="172" type="curve"/>
      <point x="450" y="172" type="line"/>
      <point x="467" y="104"/>
      <point x="502" y="77"/>
      <point x="549" y="77" type="curve" smooth="yes"/>
      <point x="633" y="77"/>
      <point x="714" y="196"/>
      <point x="714" y="387" type="curve" smooth="yes"/>
      <point x="714" y="587"/>
      <point x="604" y="714"/>
      <point x="432" y="714" type="curve" smooth="yes"/>
      <point x="232" y="714"/>
      <point x="47" y="531"/>
      <point x="47" y="228" type="curve" smooth="yes"/>
      <point x="47" y="-26"/>
      <point x="196" y="-142"/>
    </contour>
    <contour>
      <point x="357" y="129" type="curve" smooth="yes"/>
      <point x="326" y="129"/>
      <point x="304" y="160"/>
      <point x="304" y="234" type="curve" smooth="yes"/>
      <point x="304" y="332"/>
      <point x="338" y="489"/>
      <point x="418" y="489" type="curve" smooth="yes"/>
      <point x="438" y="489"/>
      <point x="458" y="477"/>
      <point x="466" y="460" type="curve"/>
      <point x="432" y="246" type="line" smooth="yes"/>
      <point x="423" y="192"/>
      <point x="401" y="129"/>
    </contour>
  </outline>
</glyph>
<glyph name="A.mono" format="2">
  <advance width="500"/>
  <unicode hex="0041"/>
  <anchor x="250" y="0" name="bottom"/>
  <anchor x="450" y="10" name="ogonek"/>
  <anchor x="250" y="714" name="top"/>
  <anchor x="480" y="714" name="topright"/>
  <outline>
    <contour>
      <point x="10" y="0" type="line"/>
      <point x="142" y="0" type="line"/>
      <point x="228" y="472" type="line" smooth="yes"/>
      <point x="234" y="505"/>
      <point x="245" y="564"/>
      <point x="251" y="604" type="curve"/>
      <point x="256" y="564"/>
      <point x="266" y="509"/>
      <point x="273" y="471" type="curve" smooth="yes"/>
      <point x="361" y="0" type="line"/>
      <point x="490" y="0" type="line"/>
      <point x="340" y="717" type="line"/>
      <point x="157" y="717" type="line"/>
    </contour>
    <contour>
      <point x="110" y="175" type="line"/>
      <point x="392" y="175" type="line"/>
      <point x="392" y="292" type="line"/>
      <point x="110" y="292" type="line"/>
    </contour>
  </outline>
</glyph>
<glyph name="A.serif" format="2">
  <advance width="618"/>
  <unicode hex="0041"/>
  <anchor x="493" y="0" name="bottom"/>
  <anchor x="310" y="714" name="top"/>
  <anchor x="508" y="714" name="topright"/>
  <outline>
    <contour>
      <point x="4" y="0" type="line"/>
      <point x="217" y="0" type="line"/>
      <point x="217" y="49" type="line"/>
      <point x="186" y="49" type="line" smooth="yes"/>
      <point x="156" y="49"/>
      <point x="146" y="65"/>
      <point x="146" y="89" type="curve" smooth="yes"/>
      <point x="146" y="107"/>
      <point x="154" y="135"/>
      <point x="157" y="151" type="curve" smooth="yes"/>
      <point x="179" y="237" type="line"/>
      <point x="375" y="237" type="line"/>
      <point x="401" y="139" type="line" smooth="yes"/>
      <point x="405" y="124"/>
      <point x="411" y="100"/>
      <point x="411" y="85" type="curve" smooth="yes"/>
      <point x="411" y="61"/>
      <point x="395" y="49"/>
      <point x="371" y="49" type="curve" smooth="yes"/>
      <point x="344" y="49" type="line"/>
      <point x="344" y="0" type="line"/>
      <point x="618" y="0" type="line"/>
      <point x="618" y="49" type="line"/>
      <point x="610" y="49" type="line" smooth="yes"/>
      <point x="578" y="49"/>
      <point x="558" y="63"/>
      <point x="546" y="105" type="curve" smooth="yes"/>
      <point x="372" y="714" type="line"/>
      <point x="255" y="714" type="line"/>
      <point x="78" y="124" type="line" smooth="yes"/>
      <point x="60" y="62"/>
      <point x="42" y="49"/>
      <point x="13" y="49" type="curve" smooth="yes"/>
      <point x="4" y="49" type="line"/>
    </contour>
    <contour>
      <point x="197" y="294" type="line"/>
      <point x="250" y="491" type="line" smooth="yes"/>
      <point x="261" y="534"/>
      <point x="271" y="578"/>
      <point x="280" y="618" type="curve"/>
      <point x="287" y="578"/>
      <point x="298" y="534"/>
      <point x="311" y="485" type="curve" smooth="yes"/>
      <point x="358" y="294" type="line"/>
    </contour>
  </outline>
</glyph>
<glyph name="B.mono" format="2">
  <advance width="500"/>
  <unicode hex="0042"/>
  <anchor x="250" y="0" name="bottom"/>
  <anchor x="250" y="714" name="top"/>
  <anchor x="480" y="714" name="topright"/>
  <outline>
    <contour>
      <point x="55" y="0" type="line"/>
      <point x="267" y="0" type="line" smooth="yes"/>
      <point x="389" y="0"/>
      <point x="467" y="74"/>
      <point x="467" y="207" type="curve" smooth="yes"/>
      <point x="467" y="300"/>
      <point x="434" y="358"/>
      <point x="358" y="374" type="curve"/>
      <point x="358" y="379" type="line"/>
      <point x="420" y="395"/>
      <point x="455" y="452"/>
      <point x="455" y="535" type="curve" smooth="yes"/>
      <point x="455" y="656"/>
      <point x="382" y="714"/>
      <point x="237" y="714" type="curve" smooth="yes"/>
      <point x="55" y="714" type="line"/>
    </contour>
    <contour>
      <point x="248" y="119" type="curve" smooth="yes"/>
      <point x="180" y="119" type="line"/>
      <point x="180" y="308" type="line"/>
      <point x="243" y="308" type="line" smooth="yes"/>
      <point x="300" y="308"/>
      <point x="334" y="278"/>
      <point x="334" y="214" type="curve" smooth="yes"/>
      <point x="334" y="153"/>
      <point x="303" y="119"/>
    </contour>
    <contour>
      <point x="237" y="428" type="curve" smooth="yes"/>
      <point x="180" y="428" type="line"/>
      <point x="180" y="603" type="line"/>
      <point x="235" y="603" type="line" smooth="yes"/>
      <point x="291" y="603"/>
      <point x="323" y="572"/>
      <point x="323" y="516" type="curve" smooth="yes"/>
      <point x="323" y="461"/>
      <point x="292" y="428"/>
    </contour>
  </outline>
</glyph>
<glyph name="B.serif" format="2">
  <advance width="569"/>
  <unicode hex="0042"/>
  <anchor x="285" y="0" name="bottom"/>
  <anchor x="285" y="714" name="top"/>
  <anchor x="549" y="714" name="topright"/>
  <outline>
    <contour>
      <point x="22" y="0" type="line"/>
      <point x="298" y="0" type="line" smooth="yes"/>
      <point x="459" y="0"/>
      <point x="536" y="64"/>
      <point x="536" y="195" type="curve" smooth="yes"/>
      <point x="536" y="303"/>
      <point x="478" y="362"/>
      <point x="395" y="377" type="curve"/>
      <point x="395" y="381" type="line"/>
      <point x="458" y="403"/>
      <point x="512" y="451"/>
      <point x="512" y="541" type="curve" smooth="yes"/>
      <point x="512" y="663"/>
      <point x="429" y="714"/>
      <point x="274" y="714" type="curve" smooth="yes"/>
      <point x="22" y="714" type="line"/>
      <point x="22" y="665" type="line"/>
      <point x="52" y="665" type="line" smooth="yes"/>
      <point x="75" y="665"/>
      <point x="98" y="655"/>
      <point x="98" y="603" type="curve" smooth="yes"/>
      <point x="98" y="114" type="line" smooth="yes"/>
      <point x="98" y="65"/>
      <point x="83" y="49"/>
      <point x="54" y="49" type="curve" smooth="yes"/>
      <point x="22" y="49" type="line"/>
    </contour>
    <contour>
      <point x="287" y="57" type="curve" smooth="yes"/>
      <point x="231" y="57" type="line"/>
      <point x="231" y="345" type="line"/>
      <point x="289" y="345" type="line" smooth="yes"/>
      <point x="362" y="345"/>
      <point x="393" y="298"/>
      <point x="393" y="198" type="curve" smooth="yes"/>
      <point x="393" y="94"/>
      <point x="357" y="57"/>
    </contour>
    <contour>
      <point x="267" y="403" type="curve" smooth="yes"/>
      <point x="231" y="403" type="line"/>
      <point x="231" y="657" type="line"/>
      <point x="266" y="657" type="line" smooth="yes"/>
      <point x="336" y="657"/>
      <point x="372" y="627"/>
      <point x="372" y="533" type="curve" smooth="yes"/>
      <point x="372" y="443"/>
      <point x="340" y="403"/>
    </contour>
  </outline>
</glyph>
<glyph name="C.mono" format="2">
  <advance width="500"/>
  <unicode hex="0043"/>
  <anchor x="299" y="0" name="bottom"/>
  <anchor x="308" y="714" name="top"/>
  <anchor x="480" y="714" name="topright"/>
  <outline>
    <contour>
      <point x="312" y="-15" type="curve" smooth="yes"/>
      <point x="368" y="-15"/>
      <point x="413" y="-3"/>
      <point x="454" y="20" type="curve"/>
      <point x="454" y="141" type="line"/>
      <point x="415" y="120"/>
      <point x="377" y="105"/>
      <point x="332" y="105" type="curve" smooth="yes"/>
      <point x="233" y="105"/>
      <point x="168" y="188"/>
      <point x="168" y="355" type="curve" smooth="yes"/>
      <point x="168" y="498"/>
      <point x="222" y="606"/>
      <point x="325" y="606" type="curve" smooth="yes"/>
      <point x="367" y="606"/>
      <point x="406" y="592"/>
      <point x="441" y="573" type="curve"/>
      <point x="480" y="680" type="line"/>
      <point x="430" y="710"/>
      <point x="373" y="726"/>
      <point x="315" y="726" type="curve" smooth="yes"/>
      <point x="137" y="726"/>
      <point x="35" y="569"/>
      <point x="35" y="356" type="curve" smooth="yes"/>
      <point x="35" y="122"/>
      <point x="137" y="-15"/>
    </contour>
  </outline>
</glyph>
<glyph name="C.serif" format="2">
  <advance width="551"/>
  <unicode hex="0043"/>
  <anchor x="316" y="0" name="bottom"/>
  <anchor x="326" y="714" name="top"/>
  <anchor x="531" y="714" name="topright"/>
  <outline>
    <contour>
      <point x="324" y="-10" type="curve" smooth="yes"/>
      <point x="473" y="-10"/>
      <point x="517" y="65"/>
      <point x="517" y="117" type="curve" smooth="yes"/>
      <point x="517" y="132"/>
      <point x="512" y="149"/>
      <point x="504" y="157" type="curve"/>
      <point x="475" y="110"/>
      <point x="432" y="60"/>
      <point x="347" y="60" type="curve" smooth="yes"/>
      <point x="231" y="60"/>
      <point x="188" y="159"/>
      <point x="188" y="358" type="curve" smooth="yes"/>
      <point x="188" y="550"/>
      <point x="221" y="664"/>
      <point x="319" y="664" type="curve" smooth="yes"/>
      <point x="390" y="664"/>
      <point x="412" y="594"/>
      <point x="412" y="528" type="curve"/>
      <point x="481" y="528"/>
      <point x="517" y="562"/>
      <point x="517" y="608" type="curve" smooth="yes"/>
      <point x="517" y="671"/>
      <point x="452" y="724"/>
      <point x="327" y="724" type="curve" smooth="yes"/>
      <point x="141" y="724"/>
      <point x="45" y="577"/>
      <point x="45" y="358" type="curve" smooth="yes"/>
      <point x="45" y="137"/>
      <point x="139" y="-10"/>
    </contour>
  </outline>
</glyph>
<glyph name="D.mono" format="2">
  <advance width="500"/>
  <unicode hex="0044"/>
  <anchor x="209" y="0" name="bottom"/>
  <anchor x="253" y="357" name="center"/>
  <anchor x="249" y="714" name="top"/>
  <anchor x="500" y="714" name="topright"/>
  <outline>
    <contour>
      <point x="35" y="0" type="line"/>
      <point x="209" y="0" type="line" smooth="yes"/>
      <point x="384" y="0"/>
      <point x="480" y="131"/>
      <point x="480" y="370" type="curve" smooth="yes"/>
      <point x="480" y="593"/>
      <point x="387" y="714"/>
      <point x="219" y="714" type="curve" smooth="yes"/>
      <point x="35" y="714" type="line"/>
    </contour>
    <contour>
      <point x="201" y="119" type="curve" smooth="yes"/>
      <point x="163" y="119" type="line"/>
      <point x="163" y="595" type="line"/>
      <point x="207" y="595" type="line" smooth="yes"/>
      <point x="300" y="595"/>
      <point x="347" y="525"/>
      <point x="347" y="364" type="curve" smooth="yes"/>
      <point x="347" y="197"/>
      <point x="301" y="119"/>
    </contour>
  </outline>
</glyph>
<glyph name="E.mono" format="2">
  <advance width="500"/>
  <unicode hex="0045"/>
  <anchor x="254" y="0" name="bottom"/>
  <anchor x="383" y="10" name="ogonek"/>
  <anchor x="255" y="714" name="top"/>
  <anchor x="20" y="714" name="topleft"/>
  <anchor x="480" y="714" name="topright"/>
  <outline>
    <contour>
      <point x="55" y="0" type="line"/>
      <point x="450" y="0" type="line"/>
      <point x="450" y="119" type="line"/>
      <point x="183" y="119" type="line"/>
      <point x="183" y="302" type="line"/>
      <point x="432" y="302" type="line"/>
      <point x="432" y="421" type="line"/>
      <point x="183" y="421" type="line"/>
      <point x="183" y="595" type="line"/>
      <point x="450" y="595" type="line"/>
      <point x="450" y="714" type="line"/>
      <point x="55" y="714" type="line"/>
    </contour>
  </outline>
</glyph>
<glyph name="E.serif" format="2">
  <advance width="535"/>
  <unicode hex="0045"/>
  <anchor x="268" y="0" name="bottom"/>
  <anchor x="268" y="714" name="top"/>
  <anchor x="515" y="714" name="topright"/>
  <outline>
    <contour>
      <point x="22" y="0" type="line"/>
      <point x="506" y="0" type="line"/>
      <point x="510" y="181" type="line"/>
      <point x="451" y="181" type="line"/>
      <point x="446" y="136" type="line" smooth="yes"/>
      <point x="440" y="92"/>
      <point x="423" y="57"/>
      <point x="380" y="57" type="curve" smooth="yes"/>
      <point x="232" y="57" type="line"/>
      <point x="232" y="345" type="line"/>
      <point x="425" y="345" type="line"/>
      <point x="425" y="402" type="line"/>
      <point x="232" y="402" type="line"/>
      <point x="232" y="657" type="line"/>
      <point x="358" y="657" type="line" smooth="yes"/>
      <point x="401" y="657"/>
      <point x="417" y="626"/>
      <point x="420" y="578" type="curve" smooth="yes"/>
      <point x="424" y="533" type="line"/>
      <point x="483" y="533" type="line"/>
      <point x="480" y="714" type="line"/>
      <point x="22" y="714" type="line"/>
      <point x="22" y="665" type="line"/>
      <point x="52" y="665" type="line" smooth="yes"/>
      <point x="77" y="665"/>
      <point x="98" y="657"/>
      <point x="98" y="601" type="curve" smooth="yes"/>
      <point x="98" y="108" type="line" smooth="yes"/>
      <point x="98" y="64"/>
      <point x="82" y="49"/>
      <point x="54" y="49" type="curve" smooth="yes"/>
      <point x="22" y="49" type="line"/>
    </contour>
  </outline>
</glyph>
<glyph name="F.mono" format="2">
  <advance width="500"/>
  <unicode hex="0046"/>
  <anchor x="260" y="0" name="bottom"/>
  <anchor x="260" y="714" name="top"/>
  <anchor x="480" y="714" name="topright"/>
  <outline>
    <contour>
      <point x="55" y="0" type="line"/>
      <point x="183" y="0" type="line"/>
      <point x="183" y="276" type="line"/>
      <point x="433" y="276" type="line"/>
      <point x="433" y="395" type="line"/>
      <point x="183" y="395" type="line"/>
      <point x="183" y="595" type="line"/>
      <point x="450" y="595" type="line"/>
      <point x="450" y="714" type="line"/>
      <point x="55" y="714" type="line"/>
    </contour>
  </outline>
</glyph>
<glyph name="F.serif" format="2">
  <advance width="510"/>
  <unicode hex="0046"/>
  <anchor x="166" y="0" name="bottom"/>
  <anchor x="255" y="714" name="top"/>
  <anchor x="490" y="714" name="topright"/>
  <outline>
    <contour>
      <point x="22" y="0" type="line"/>
      <point x="325" y="0" type="line"/>
      <point x="325" y="49" type="line"/>
      <point x="286" y="49" type="line" smooth="yes"/>
      <point x="250" y="49"/>
      <point x="232" y="64"/>
      <point x="232" y="110" type="curve" smooth="yes"/>
      <point x="232" y="322" type="line"/>
      <point x="426" y="322" type="line"/>
      <point x="426" y="379" type="line"/>
      <point x="232" y="379" type="line"/>
      <point x="232" y="657" type="line"/>
      <point x="361" y="657" type="line" smooth="yes"/>
      <point x="393" y="657"/>
      <point x="415" y="629"/>
      <point x="420" y="580" type="curve" smooth="yes"/>
      <point x="424" y="533" type="line"/>
      <point x="483" y="533" type="line"/>
      <point x="478" y="714" type="line"/>
      <point x="22" y="714" type="line"/>
      <point x="22" y="665" type="line"/>
      <point x="53" y="665" type="line" smooth="yes"/>
      <point x="79" y="665"/>
      <point x="98" y="652"/>
      <point x="98" y="605" type="curve" smooth="yes"/>
      <point x="98" y="107" type="line" smooth="yes"/>
      <point x="98" y="61"/>
      <point x="81" y="49"/>
      <point x="44" y="49" type="curve" smooth="yes"/>
      <point x="22" y="49" type="line"/>
    </contour>
  </outline>
</glyph>
<glyph name="G.mono" format="2">
  <advance width="500"/>
  <unicode hex="0047"/>
  <anchor x="286" y="0" name="bottom"/>
  <anchor x="281" y="714" name="top"/>
  <anchor x="480" y="714" name="topright"/>
  <outline>
    <contour>
      <point x="297" y="-10" type="curve" smooth="yes"/>
      <point x="355" y="-10"/>
      <point x="403" y="2"/>
      <point x="465" y="27" type="curve"/>
      <point x="465" y="402" type="line"/>
      <point x="266" y="402" type="line"/>
      <point x="266" y="286" type="line"/>
      <point x="349" y="286" type="line"/>
      <point x="349" y="119" type="line"/>
      <point x="328" y="116"/>
      <point x="303" y="110"/>
      <point x="281" y="110" type="curve" smooth="yes"/>
      <point x="188" y="110"/>
      <point x="150" y="214"/>
      <point x="150" y="354" type="curve" smooth="yes"/>
      <point x="150" y="517"/>
      <point x="201" y="604"/>
      <point x="310" y="604" type="curve" smooth="yes"/>
      <point x="343" y="604"/>
      <point x="382" y="596"/>
      <point x="423" y="568" type="curve"/>
      <point x="464" y="679" type="line"/>
      <point x="406" y="711"/>
      <point x="350" y="724"/>
      <point x="295" y="724" type="curve" smooth="yes"/>
      <point x="119" y="724"/>
      <point x="20" y="590"/>
      <point x="20" y="347" type="curve" smooth="yes"/>
      <point x="20" y="136"/>
      <point x="94" y="-10"/>
    </contour>
  </outline>
</glyph>
<glyph name="G.serif" format="2">
  <advance width="632"/>
  <unicode hex="0047"/>
  <anchor x="343" y="0" name="bottom"/>
  <anchor x="352" y="714" name="top"/>
  <anchor x="612" y="714" name="topright"/>
  <outline>
    <contour>
      <point x="348" y="-10" type="curve" smooth="yes"/>
      <point x="422" y="-10"/>
      <point x="486" y="7"/>
      <point x="550" y="41" type="curve"/>
      <point x="550" y="211" type="line" smooth="yes"/>
      <point x="550" y="270"/>
      <point x="561" y="284"/>
      <point x="595" y="284" type="curve" smooth="yes"/>
      <point x="602" y="284" type="line"/>
      <point x="602" y="334" type="line"/>
      <point x="348" y="334" type="line"/>
      <point x="348" y="284" type="line"/>
      <point x="361" y="284" type="line" smooth="yes"/>
      <point x="399" y="284"/>
      <point x="416" y="270"/>
      <point x="416" y="215" type="curve" smooth="yes"/>
      <point x="416" y="62" type="line"/>
      <point x="397" y="56"/>
      <point x="377" y="53"/>
      <point x="360" y="53" type="curve" smooth="yes"/>
      <point x="234" y="53"/>
      <point x="187" y="161"/>
      <point x="187" y="358" type="curve" smooth="yes"/>
      <point x="187" y="559"/>
      <point x="235" y="664"/>
      <point x="349" y="664" type="curve" smooth="yes"/>
      <point x="418" y="664"/>
      <point x="452" y="604"/>
      <point x="452" y="529" type="curve"/>
      <point x="523" y="529"/>
      <point x="557" y="564"/>
      <point x="557" y="610" type="curve" smooth="yes"/>
      <point x="557" y="674"/>
      <point x="486" y="724"/>
      <point x="351" y="724" type="curve" smooth="yes"/>
      <point x="150" y="724"/>
      <point x="45" y="574"/>
      <point x="45" y="358" type="curve" smooth="yes"/>
      <point x="45" y="137"/>
      <point x="143" y="-10"/>
    </contour>
  </outline>
</glyph>
<glyph name="H.mono" format="2">
  <advance width="500"/>
  <unicode hex="0048"/>
  <anchor x="250" y="0" name="bottom"/>
  <anchor x="250" y="369" name="center"/>
  <anchor x="250" y="714" name="top"/>
  <anchor x="20" y="714" name="topleft"/>
  <anchor x="500" y="714" name="topright"/>
  <outline>
    <contour>
      <point x="35" y="0" type="line"/>
      <point x="163" y="0" type="line"/>
      <point x="163" y="307" type="line"/>
      <point x="337" y="307" type="line"/>
      <point x="337" y="0" type="line"/>
      <point x="465" y="0" type="line"/>
      <point x="465" y="714" type="line"/>
      <point x="337" y="714" type="line"/>
      <point x="337" y="431" type="line"/>
      <point x="163" y="431" type="line"/>
      <point x="163" y="714" type="line"/>
      <point x="35" y="714" type="line"/>
    </contour>
  </outline>
</glyph>
<glyph name="I.mono" format="2">
  <advance width="500"/>
  <unicode hex="0049"/>
  <anchor x="250" y="0" name="bottom"/>
  <anchor x="336" y="10" name="ogonek"/>
  <anchor x="250" y="714" name="top"/>
  <anchor x="20" y="714" name="topleft"/>
  <anchor x="480" y="714" name="topright"/>
  <outline>
    <contour>
      <point x="60" y="0" type="line"/>
      <point x="440" y="0" type="line"/>
      <point x="440" y="99" type="line"/>
      <point x="312" y="112" type="line"/>
      <point x="312" y="604" type="line"/>
      <point x="440" y="615" type="line"/>
      <point x="440" y="714" type="line"/>
      <point x="60" y="714" type="line"/>
      <point x="60" y="615" type="line"/>
      <point x="189" y="604" type="line"/>
      <point x="189" y="112" type="line"/>
      <point x="60" y="99" type="line"/>
    </contour>
  </outline>
</glyph>
<glyph name="J.mono" format="2">
  <advance width="500"/>
  <unicode hex="004A"/>
  <anchor x="250" y="0" name="bottom"/>
  <anchor x="348" y="714" name="top"/>
  <anchor x="480" y="714" name="topright"/>
  <outline>
    <contour>
      <point x="184" y="-10" type="curve" smooth="yes"/>
      <point x="340" y="-10"/>
      <point x="410" y="79"/>
      <point x="410" y="230" type="curve" smooth="yes"/>
      <point x="410" y="714" type="line"/>
      <point x="283" y="714" type="line"/>
      <point x="283" y="252" type="line" smooth="yes"/>
      <point x="283" y="151"/>
      <point x="260" y="104"/>
      <point x="162" y="104" type="curve" smooth="yes"/>
      <point x="124" y="104"/>
      <point x="87" y="111"/>
      <point x="45" y="129" type="curve"/>
      <point x="45" y="12" type="line"/>
      <point x="89" y="-3"/>
      <point x="141" y="-10"/>
    </contour>
  </outline>
</glyph>
<glyph name="J.serif" format="2">
  <advance width="330"/>
  <unicode hex="004A"/>
  <anchor x="107" y="-240" name="bottom"/>
  <anchor x="170" y="714" name="top"/>
  <anchor x="300" y="714" name="topright"/>
  <outline>
    <contour>
      <point x="-15" y="-240" type="line"/>
      <point x="17" y="-240" type="line" smooth="yes"/>
      <point x="129" y="-240"/>
      <point x="237" y="-185"/>
      <point x="237" y="-4" type="curve" smooth="yes"/>
      <point x="237" y="602" type="line" smooth="yes"/>
      <point x="237" y="651"/>
      <point x="258" y="665"/>
      <point x="281" y="665" type="curve" smooth="yes"/>
      <point x="314" y="665" type="line"/>
      <point x="314" y="714" type="line"/>
      <point x="27" y="714" type="line"/>
      <point x="27" y="665" type="line"/>
      <point x="60" y="665" type="line" smooth="yes"/>
      <point x="82" y="665"/>
      <point x="103" y="651"/>
      <point x="103" y="604" type="curve" smooth="yes"/>
      <point x="103" y="-5" type="line" smooth="yes"/>
      <point x="103" y="-141"/>
      <point x="50" y="-186"/>
      <point x="0" y="-186" type="curve" smooth="yes"/>
      <point x="-15" y="-186" type="line"/>
    </contour>
  </outline>
</glyph>
<glyph name="K.mono" format="2">
  <advance width="500"/>
  <unicode hex="004B"/>
  <anchor x="256" y="0" name="bottom"/>
  <anchor x="250" y="714" name="top"/>
  <anchor x="480" y="714" name="topright"/>
  <outline>
    <contour>
      <point x="35" y="0" type="line"/>
      <point x="162" y="0" type="line"/>
      <point x="162" y="242" type="line"/>
      <point x="210" y="292" type="line"/>
      <point x="343" y="0" type="line"/>
      <point x="495" y="0" type="line"/>
      <point x="316" y="392" type="line"/>
      <point x="493" y="714" type="line"/>
      <point x="346" y="714" type="line"/>
      <point x="211" y="473" type="line" smooth="yes"/>
      <point x="189" y="433"/>
      <point x="176" y="409"/>
      <point x="162" y="377" type="curve"/>
      <point x="162" y="714" type="line"/>
      <point x="35" y="714" type="line"/>
    </contour>
  </outline>
</glyph>
<glyph name="K.serif" format="2">
  <advance width="616"/>
  <unicode hex="004B"/>
  <anchor x="338" y="0" name="bottom"/>
  <anchor x="328" y="714" name="top"/>
  <anchor x="596" y="714" name="topright"/>
  <outline>
    <contour>
      <point x="22" y="0" type="line"/>
      <point x="297" y="0" type="line"/>
      <point x="297" y="49" type="line"/>
      <point x="281" y="49" type="line" smooth="yes"/>
      <point x="254" y="49"/>
      <point x="233" y="63"/>
      <point x="233" y="110" type="curve" smooth="yes"/>
      <point x="233" y="270" type="line"/>
      <point x="271" y="327" type="line"/>
      <point x="379" y="116" type="line" smooth="yes"/>
      <point x="424" y="24"/>
      <point x="454" y="0"/>
      <point x="560" y="0" type="curve" smooth="yes"/>
      <point x="620" y="0" type="line"/>
      <point x="620" y="49" type="line"/>
      <point x="615" y="49" type="line" smooth="yes"/>
      <point x="581" y="49"/>
      <point x="559" y="75"/>
      <point x="526" y="133" type="curve" smooth="yes"/>
      <point x="358" y="423" type="line"/>
      <point x="470" y="577" type="line" smooth="yes"/>
      <point x="509" y="631"/>
      <point x="544" y="666"/>
      <point x="589" y="666" type="curve"/>
      <point x="589" y="714" type="line"/>
      <point x="366" y="714" type="line"/>
      <point x="366" y="666" type="line"/>
      <point x="401" y="666"/>
      <point x="414" y="658"/>
      <point x="414" y="639" type="curve" smooth="yes"/>
      <point x="414" y="613"/>
      <point x="397" y="587"/>
      <point x="365" y="537" type="curve" smooth="yes"/>
      <point x="233" y="330" type="line"/>
      <point x="233" y="604" type="line" smooth="yes"/>
      <point x="233" y="651"/>
      <point x="249" y="665"/>
      <point x="276" y="665" type="curve" smooth="yes"/>
      <point x="297" y="665" type="line"/>
      <point x="297" y="714" type="line"/>
      <point x="22" y="714" type="line"/>
      <point x="22" y="665" type="line"/>
      <point x="52" y="665" type="line" smooth="yes"/>
      <point x="79" y="665"/>
      <point x="98" y="651"/>
      <point x="98" y="606" type="curve" smooth="yes"/>
      <point x="98" y="109" type="line" smooth="yes"/>
      <point x="98" y="62"/>
      <point x="77" y="49"/>
      <point x="49" y="49" type="curve" smooth="yes"/>
      <point x="22" y="49" type="line"/>
    </contour>
  </outline>
</glyph>
<glyph name="L.serif" format="2">
  <advance width="535"/>
  <unicode hex="004C"/>
  <anchor x="268" y="0" name="bottom"/>
  <anchor x="169" y="357" name="center"/>
  <anchor x="160" y="714" name="top"/>
  <anchor x="515" y="714" name="topright"/>
  <outline>
    <contour>
      <point x="22" y="0" type="line"/>
      <point x="506" y="0" type="line"/>
      <point x="510" y="220" type="line"/>
      <point x="466" y="220" type="line"/>
      <point x="452" y="145" type="line" smooth="yes"/>
      <point x="440" y="86"/>
      <point x="421" y="57"/>
      <point x="384" y="57" type="curve" smooth="yes"/>
      <point x="233" y="57" type="line"/>
      <point x="233" y="606" type="line" smooth="yes"/>
      <point x="233" y="651"/>
      <point x="245" y="665"/>
      <point x="279" y="665" type="curve" smooth="yes"/>
      <point x="309" y="665" type="line"/>
      <point x="309" y="714" type="line"/>
      <point x="22" y="714" type="line"/>
      <point x="22" y="665" type="line"/>
      <point x="50" y="665" type="line" smooth="yes"/>
      <point x="77" y="665"/>
      <point x="98" y="651"/>
      <point x="98" y="602" type="curve" smooth="yes"/>
      <point x="98" y="110" type="line" smooth="yes"/>
      <point x="98" y="63"/>
      <point x="77" y="49"/>
      <point x="55" y="49" type="curve" smooth="yes"/>
      <point x="22" y="49" type="line"/>
    </contour>
  </outline>
</glyph>
<glyph name="M.mono" format="2">
  <advance width="500"/>
  <unicode hex="004D"/>
  <anchor x="250" y="0" name="bottom"/>
  <anchor x="254" y="714" name="top"/>
  <anchor x="500" y="714" name="topright"/>
  <outline>
    <contour>
      <point x="20" y="0" type="line"/>
      <point x="137" y="0" type="line"/>
      <point x="137" y="182" type="line" smooth="yes"/>
      <point x="137" y="328"/>
      <point x="116" y="573"/>
      <point x="114" y="603" type="curve"/>
      <point x="121" y="603" type="line"/>
      <point x="183" y="179" type="line"/>
      <point x="313" y="179" type="line"/>
      <point x="377" y="603" type="line"/>
      <point x="384" y="603" type="line"/>
      <point x="382" y="575"/>
      <point x="361" y="325"/>
      <point x="361" y="189" type="curve" smooth="yes"/>
      <point x="361" y="0" type="line"/>
      <point x="480" y="0" type="line"/>
      <point x="480" y="714" type="line"/>
      <point x="284" y="714" type="line"/>
      <point x="252" y="313" type="line"/>
      <point x="244" y="313" type="line"/>
      <point x="213" y="714" type="line"/>
      <point x="20" y="714" type="line"/>
    </contour>
  </outline>
</glyph>
<glyph name="M.serif" format="2">
  <advance width="777"/>
  <unicode hex="004D"/>
  <anchor x="369" y="0" name="bottom"/>
  <anchor x="389" y="714" name="top"/>
  <anchor x="757" y="714" name="topright"/>
  <outline>
    <contour>
      <point x="22" y="0" type="line"/>
      <point x="228" y="0" type="line"/>
      <point x="228" y="49" type="line"/>
      <point x="221" y="49" type="line" smooth="yes"/>
      <point x="183" y="49"/>
      <point x="160" y="57"/>
      <point x="160" y="116" type="curve" smooth="yes"/>
      <point x="160" y="622" type="line"/>
      <point x="319" y="0" type="line"/>
      <point x="396" y="0" type="line"/>
      <point x="549" y="623" type="line"/>
      <point x="549" y="117" type="line" smooth="yes"/>
      <point x="549" y="63"/>
      <point x="535" y="49"/>
      <point x="497" y="49" type="curve"/>
      <point x="486" y="49" type="line"/>
      <point x="486" y="0" type="line"/>
      <point x="755" y="0" type="line"/>
      <point x="755" y="49" type="line"/>
      <point x="729" y="49" type="line" smooth="yes"/>
      <point x="697" y="49"/>
      <point x="681" y="63"/>
      <point x="681" y="110" type="curve" smooth="yes"/>
      <point x="681" y="604" type="line" smooth="yes"/>
      <point x="681" y="651"/>
      <point x="701" y="665"/>
      <point x="723" y="665" type="curve" smooth="yes"/>
      <point x="755" y="665" type="line"/>
      <point x="755" y="714" type="line"/>
      <point x="510" y="714" type="line"/>
      <point x="387" y="202" type="line"/>
      <point x="263" y="714" type="line"/>
      <point x="22" y="714" type="line"/>
      <point x="22" y="665" type="line"/>
      <point x="52" y="665" type="line" smooth="yes"/>
      <point x="77" y="665"/>
      <point x="98" y="651"/>
      <point x="98" y="602" type="curve" smooth="yes"/>
      <point x="98" y="111" type="line" smooth="yes"/>
      <point x="98" y="62"/>
      <point x="77" y="49"/>
      <point x="43" y="49" type="curve" smooth="yes"/>
      <point x="22" y="49" type="line"/>
    </contour>
  </outline>
</glyph>
<glyph name="N.mono" format="2">
  <advance width="500"/>
  <unicode hex="004E"/>
  <anchor x="250" y="0" name="bottom"/>
  <anchor x="255" y="714" name="top"/>
  <anchor x="500" y="714" name="topright"/>
  <outline>
    <contour>
      <point x="35" y="0" type="line"/>
      <point x="159" y="0" type="line"/>
      <point x="159" y="353" type="line" smooth="yes"/>
      <point x="159" y="405"/>
      <point x="154" y="509"/>
      <point x="147" y="583" type="curve"/>
      <point x="153" y="583" type="line"/>
      <point x="277" y="0" type="line"/>
      <point x="465" y="0" type="line"/>
      <point x="465" y="714" type="line"/>
      <point x="338" y="714" type="line"/>
      <point x="338" y="428" type="line" smooth="yes"/>
      <point x="338" y="358"/>
      <point x="352" y="202"/>
      <point x="358" y="134" type="curve"/>
      <point x="352" y="134" type="line"/>
      <point x="231" y="714" type="line"/>
      <point x="35" y="714" type="line"/>
    </contour>
  </outline>
</glyph>
<glyph name="N.serif" format="2">
  <advance width="644"/>
  <unicode hex="004E"/>
  <anchor x="332" y="0" name="bottom"/>
  <anchor x="322" y="714" name="top"/>
  <anchor x="624" y="714" name="topright"/>
  <outline>
    <contour>
      <point x="22" y="0" type="line"/>
      <point x="236" y="0" type="line"/>
      <point x="236" y="49" type="line"/>
      <point x="208" y="49" type="line" smooth="yes"/>
      <point x="176" y="49"/>
      <point x="160" y="57"/>
      <point x="160" y="116" type="curve" smooth="yes"/>
      <point x="160" y="569" type="line"/>
      <point x="461" y="0" type="line"/>
      <point x="557" y="0" type="line"/>
      <point x="557" y="598" type="line" smooth="yes"/>
      <point x="557" y="651"/>
      <point x="576" y="665"/>
      <point x="606" y="665" type="curve" smooth="yes"/>
      <point x="632" y="665" type="line"/>
      <point x="632" y="714" type="line"/>
      <point x="419" y="714" type="line"/>
      <point x="419" y="665" type="line"/>
      <point x="446" y="665" type="line" smooth="yes"/>
      <point x="473" y="665"/>
      <point x="494" y="653"/>
      <point x="494" y="602" type="curve" smooth="yes"/>
      <point x="494" y="194" type="line"/>
      <point x="225" y="714" type="line"/>
      <point x="22" y="714" type="line"/>
      <point x="22" y="665" type="line"/>
      <point x="49" y="665" type="line" smooth="yes"/>
      <point x="76" y="665"/>
      <point x="98" y="657"/>
      <point x="98" y="602" type="curve" smooth="yes"/>
      <point x="98" y="116" type="line" smooth="yes"/>
      <point x="98" y="57"/>
      <point x="77" y="49"/>
      <point x="43" y="49" type="curve" smooth="yes"/>
      <point x="22" y="49" type="line"/>
    </contour>
  </outline>
</glyph>
<glyph name="O.mono" format="2">
  <advance width="500"/>
  <unicode hex="004F"/>
  <anchor x="250" y="0" name="bottom"/>
  <anchor x="250" y="357" name="center"/>
  <anchor x="248" y="10" name="ogonek"/>
  <anchor x="250" y="714" name="top"/>
  <anchor x="20" y="714" name="topleft"/>
  <anchor x="500" y="714" name="topright"/>
  <outline>
    <contour>
      <point x="250" y="-8" type="curve" smooth="yes"/>
      <point x="405" y="-8"/>
      <point x="480" y="135"/>
      <point x="480" y="358" type="curve" smooth="yes"/>
      <point x="480" y="585"/>
      <point x="406" y="726"/>
      <point x="250" y="726" type="curve" smooth="yes"/>
      <point x="100" y="726"/>
      <point x="20" y="599"/>
      <point x="20" y="359" type="curve" smooth="yes"/>
      <point x="20" y="137"/>
      <point x="94" y="-8"/>
    </contour>
    <contour>
      <point x="250" y="110" type="curve" smooth="yes"/>
      <point x="181" y="110"/>
      <point x="153" y="197"/>
      <point x="153" y="358" type="curve" smooth="yes"/>
      <point x="153" y="520"/>
      <point x="183" y="608"/>
      <point x="250" y="608" type="curve" smooth="yes"/>
      <point x="318" y="608"/>
      <point x="347" y="527"/>
      <point x="347" y="358" type="curve" smooth="yes"/>
      <point x="347" y="193"/>
      <point x="318" y="110"/>
    </contour>
  </outline>
</glyph>
<glyph name="O.serif" format="2">
  <advance width="646"/>
  <unicode hex="004F"/>
  <anchor x="323" y="0" name="bottom"/>
  <anchor x="323" y="357" name="center"/>
  <anchor x="323" y="714" name="top"/>
  <anchor x="626" y="714" name="topright"/>
  <outline>
    <contour>
      <point x="324" y="-10" type="curve" smooth="yes"/>
      <point x="502" y="-10"/>
      <point x="601" y="137"/>
      <point x="601" y="358" type="curve" smooth="yes"/>
      <point x="601" y="580"/>
      <point x="502" y="725"/>
      <point x="325" y="725" type="curve" smooth="yes"/>
      <point x="136" y="725"/>
      <point x="45" y="580"/>
      <point x="45" y="359" type="curve" smooth="yes"/>
      <point x="45" y="137"/>
      <point x="136" y="-10"/>
    </contour>
    <contour>
      <point x="324" y="51" type="curve" smooth="yes"/>
      <point x="226" y="51"/>
      <point x="188" y="165"/>
      <point x="188" y="358" type="curve" smooth="yes"/>
      <point x="188" y="551"/>
      <point x="226" y="664"/>
      <point x="325" y="664" type="curve" smooth="yes"/>
      <point x="423" y="664"/>
      <point x="459" y="551"/>
      <point x="459" y="358" type="curve" smooth="yes"/>
      <point x="459" y="165"/>
      <point x="423" y="51"/>
    </contour>
  </outline>
</glyph>
<glyph name="P.mono" format="2">
  <advance width="500"/>
  <unicode hex="0050"/>
  <anchor x="250" y="0" name="bottom"/>
  <anchor x="250" y="714" name="top"/>
  <anchor x="500" y="714" name="topright"/>
  <outline>
    <contour>
      <point x="55" y="0" type="line"/>
      <point x="183" y="0" type="line"/>
      <point x="183" y="255" type="line"/>
      <point x="246" y="255" type="line" smooth="yes"/>
      <point x="395" y="255"/>
      <point x="467" y="348"/>
      <point x="467" y="493" type="curve" smooth="yes"/>
      <point x="467" y="637"/>
      <point x="396" y="714"/>
      <point x="252" y="714" type="curve" smooth="yes"/>
      <point x="55" y="714" type="line"/>
    </contour>
    <contour>
      <point x="229" y="374" type="curve" smooth="yes"/>
      <point x="183" y="374" type="line"/>
      <point x="183" y="597" type="line"/>
      <point x="239" y="597" type="line" smooth="yes"/>
      <point x="299" y="597"/>
      <point x="337" y="564"/>
      <point x="337" y="492" type="curve" smooth="yes"/>
      <point x="337" y="404"/>
      <point x="294" y="374"/>
    </contour>
  </outline>
</glyph>
<glyph name="P.serif" format="2">
  <advance width="523"/>
  <unicode hex="0050"/>
  <anchor x="166" y="0" name="bottom"/>
  <anchor x="262" y="714" name="top"/>
  <anchor x="541" y="714" name="topright"/>
  <outline>
    <contour>
      <point x="22" y="0" type="line"/>
      <point x="323" y="0" type="line"/>
      <point x="323" y="49" type="line"/>
      <point x="282" y="49" type="line" smooth="yes"/>
      <point x="255" y="49"/>
      <point x="233" y="56"/>
      <point x="233" y="111" type="curve" smooth="yes"/>
      <point x="233" y="274" type="line"/>
      <point x="263" y="274" type="line" smooth="yes"/>
      <point x="445" y="274"/>
      <point x="512" y="377"/>
      <point x="512" y="503" type="curve" smooth="yes"/>
      <point x="512" y="640"/>
      <point x="440" y="714"/>
      <point x="281" y="714" type="curve" smooth="yes"/>
      <point x="22" y="714" type="line"/>
      <point x="22" y="665" type="line"/>
      <point x="50" y="665" type="line" smooth="yes"/>
      <point x="75" y="665"/>
      <point x="98" y="657"/>
      <point x="98" y="602" type="curve" smooth="yes"/>
      <point x="98" y="116" type="line" smooth="yes"/>
      <point x="98" y="57"/>
      <point x="76" y="49"/>
      <point x="47" y="49" type="curve" smooth="yes"/>
      <point x="22" y="49" type="line"/>
    </contour>
    <contour>
      <point x="256" y="329" type="curve" smooth="yes"/>
      <point x="232" y="329" type="line"/>
      <point x="232" y="659" type="line"/>
      <point x="268" y="659" type="line" smooth="yes"/>
      <point x="340" y="659"/>
      <point x="372" y="608"/>
      <point x="372" y="499" type="curve" smooth="yes"/>
      <point x="372" y="376"/>
      <point x="337" y="329"/>
    </contour>
  </outline>
</glyph>
<glyph name="Q.mono" format="2">
  <advance width="500"/>
  <unicode hex="0051"/>
  <anchor x="250" y="-220" name="bottom"/>
  <anchor x="250" y="714" name="top"/>
  <anchor x="500" y="714" name="topright"/>
  <outline>
    <contour>
      <point x="336" y="-180" type="line"/>
      <point x="480" y="-180" type="line"/>
      <point x="375" y="93" type="line"/>
      <point x="271" y="28" type="line"/>
    </contour>
    <component base="O"/>
  </outline>
</glyph>
<glyph name="Q.serif" format="2">
  <advance width="646"/>
  <unicode hex="0051"/>
  <anchor x="323" y="-233" name="bottom"/>
  <anchor x="323" y="714" name="top"/>
  <anchor x="626" y="714" name="topright"/>
  <outline>
    <contour>
      <point x="472" y="-233" type="curve" smooth="yes"/>
      <point x="534" y="-233" type="line"/>
      <point x="534" y="-179" type="line"/>
      <point x="521" y="-179" type="line" smooth="yes"/>
      <point x="468" y="-179"/>
      <point x="412" y="-145"/>
      <point x="403" y="-2" type="curve"/>
      <point x="531" y="34"/>
      <point x="601" y="168"/>
      <point x="601" y="358" type="curve" smooth="yes"/>
      <point x="601" y="580"/>
      <point x="502" y="725"/>
      <point x="325" y="725" type="curve" smooth="yes"/>
      <point x="136" y="725"/>
      <point x="45" y="580"/>
      <point x="45" y="359" type="curve" smooth="yes"/>
      <point x="45" y="158"/>
      <point x="116" y="20"/>
      <point x="261" y="-6" type="curve"/>
      <point x="272" y="-175"/>
      <point x="373" y="-233"/>
    </contour>
    <contour>
      <point x="324" y="51" type="curve" smooth="yes"/>
      <point x="225" y="51"/>
      <point x="188" y="165"/>
      <point x="188" y="358" type="curve" smooth="yes"/>
      <point x="188" y="551"/>
      <point x="225" y="664"/>
      <point x="325" y="664" type="curve" smooth="yes"/>
      <point x="423" y="664"/>
      <point x="459" y="551"/>
      <point x="459" y="358" type="curve" smooth="yes"/>
      <point x="459" y="165"/>
      <point x="423" y="51"/>
    </contour>
  </outline>
</glyph>
<glyph name="R.mono" format="2">
  <advance width="500"/>
  <unicode hex="0052"/>
  <anchor x="264" y="0" name="bottom"/>
  <anchor x="250" y="714" name="top"/>
  <anchor x="480" y="714" name="topright"/>
  <outline>
    <contour>
      <point x="55" y="0" type="line"/>
      <point x="183" y="0" type="line"/>
      <point x="183" y="274" type="line"/>
      <point x="246" y="274" type="line"/>
      <point x="349" y="0" type="line"/>
      <point x="490" y="0" type="line"/>
      <point x="359" y="307" type="line"/>
      <point x="435" y="349"/>
      <point x="469" y="418"/>
      <point x="469" y="509" type="curve" smooth="yes"/>
      <point x="469" y="645"/>
      <point x="392" y="714"/>
      <point x="236" y="714" type="curve" smooth="yes"/>
      <point x="55" y="714" type="line"/>
    </contour>
    <contour>
      <point x="233" y="392" type="curve" smooth="yes"/>
      <point x="183" y="392" type="line"/>
      <point x="183" y="598" type="line"/>
      <point x="235" y="598" type="line" smooth="yes"/>
      <point x="303" y="598"/>
      <point x="336" y="562"/>
      <point x="336" y="494" type="curve" smooth="yes"/>
      <point x="336" y="425"/>
      <point x="302" y="392"/>
    </contour>
  </outline>
</glyph>
<glyph name="R.serif" format="2">
  <advance width="586"/>
  <unicode hex="0052"/>
  <anchor x="323" y="0" name="bottom"/>
  <anchor x="293" y="714" name="top"/>
  <anchor x="566" y="714" name="topright"/>
  <outline>
    <contour>
      <point x="22" y="0" type="line"/>
      <point x="297" y="0" type="line"/>
      <point x="297" y="49" type="line"/>
      <point x="281" y="49" type="line" smooth="yes"/>
      <point x="252" y="49"/>
      <point x="233" y="56"/>
      <point x="233" y="111" type="curve" smooth="yes"/>
      <point x="233" y="311" type="line"/>
      <point x="286" y="311" type="line"/>
      <point x="381" y="90" type="line" smooth="yes"/>
      <point x="412" y="16"/>
      <point x="468" y="0"/>
      <point x="559" y="0" type="curve" smooth="yes"/>
      <point x="588" y="0" type="line"/>
      <point x="588" y="49" type="line"/>
      <point x="583" y="49" type="line" smooth="yes"/>
      <point x="554" y="49"/>
      <point x="533" y="76"/>
      <point x="506" y="132" type="curve" smooth="yes"/>
      <point x="406" y="338" type="line"/>
      <point x="469" y="360"/>
      <point x="523" y="412"/>
      <point x="523" y="526" type="curve" smooth="yes"/>
      <point x="523" y="649"/>
      <point x="460" y="714"/>
      <point x="290" y="714" type="curve" smooth="yes"/>
      <point x="22" y="714" type="line"/>
      <point x="22" y="665" type="line"/>
      <point x="47" y="665" type="line" smooth="yes"/>
      <point x="70" y="665"/>
      <point x="98" y="657"/>
      <point x="98" y="602" type="curve" smooth="yes"/>
      <point x="98" y="111" type="line" smooth="yes"/>
      <point x="98" y="56"/>
      <point x="73" y="49"/>
      <point x="47" y="49" type="curve" smooth="yes"/>
      <point x="22" y="49" type="line"/>
    </contour>
    <contour>
      <point x="272" y="366" type="curve" smooth="yes"/>
      <point x="233" y="366" type="line"/>
      <point x="233" y="659" type="line"/>
      <point x="275" y="659" type="line" smooth="yes"/>
      <point x="347" y="659"/>
      <point x="381" y="614"/>
      <point x="381" y="518" type="curve" smooth="yes"/>
      <point x="381" y="418"/>
      <point x="348" y="366"/>
    </contour>
  </outline>
</glyph>
<glyph name="S.mono" format="2">
  <advance width="500"/>
  <unicode hex="0053"/>
  <anchor x="250" y="0" name="bottom"/>
  <anchor x="260" y="714" name="top"/>
  <anchor x="480" y="714" name="topright"/>
  <outline>
    <contour>
      <point x="220" y="-10" type="curve" smooth="yes"/>
      <point x="371" y="-10"/>
      <point x="455" y="76"/>
      <point x="455" y="205" type="curve" smooth="yes"/>
      <point x="455" y="309"/>
      <point x="402" y="354"/>
      <point x="308" y="405" type="curve" smooth="yes"/>
      <point x="222" y="452"/>
      <point x="177" y="471"/>
      <point x="177" y="529" type="curve" smooth="yes"/>
      <point x="177" y="580"/>
      <point x="213" y="603"/>
      <point x="274" y="603" type="curve" smooth="yes"/>
      <point x="312" y="603"/>
      <point x="349" y="594"/>
      <point x="402" y="566" type="curve"/>
      <point x="445" y="682" type="line"/>
      <point x="385" y="712"/>
      <point x="333" y="724"/>
      <point x="275" y="724" type="curve" smooth="yes"/>
      <point x="125" y="724"/>
      <point x="45" y="642"/>
      <point x="45" y="522" type="curve" smooth="yes"/>
      <point x="45" y="401"/>
      <point x="127" y="359"/>
      <point x="202" y="318" type="curve" smooth="yes"/>
      <point x="282" y="274"/>
      <point x="321" y="251"/>
      <point x="321" y="193" type="curve" smooth="yes"/>
      <point x="321" y="143"/>
      <point x="292" y="111"/>
      <point x="220" y="111" type="curve" smooth="yes"/>
      <point x="159" y="111"/>
      <point x="108" y="134"/>
      <point x="48" y="165" type="curve"/>
      <point x="48" y="31" type="line"/>
      <point x="104" y="3"/>
      <point x="161" y="-10"/>
    </contour>
  </outline>
</glyph>
<glyph name="S.serif" format="2">
  <advance width="474"/>
  <unicode hex="0053"/>
  <anchor x="237" y="0" name="bottom"/>
  <anchor x="247" y="714" name="top"/>
  <anchor x="454" y="714" name="topright"/>
  <outline>
    <contour>
      <point x="227" y="-10" type="curve" smooth="yes"/>
      <point x="358" y="-10"/>
      <point x="446" y="69"/>
      <point x="446" y="198" type="curve" smooth="yes"/>
      <point x="446" y="300"/>
      <point x="403" y="360"/>
      <point x="289" y="417" type="curve" smooth="yes"/>
      <point x="178" y="471"/>
      <point x="153" y="509"/>
      <point x="153" y="567" type="curve" smooth="yes"/>
      <point x="153" y="631"/>
      <point x="184" y="668"/>
      <point x="233" y="668" type="curve" smooth="yes"/>
      <point x="294" y="668"/>
      <point x="326" y="600"/>
      <point x="326" y="532" type="curve"/>
      <point x="397" y="532"/>
      <point x="425" y="560"/>
      <point x="425" y="605" type="curve" smooth="yes"/>
      <point x="425" y="663"/>
      <point x="368" y="724"/>
      <point x="248" y="724" type="curve" smooth="yes"/>
      <point x="133" y="724"/>
      <point x="44" y="651"/>
      <point x="44" y="536" type="curve" smooth="yes"/>
      <point x="44" y="435"/>
      <point x="84" y="371"/>
      <point x="196" y="313" type="curve" smooth="yes"/>
      <point x="285" y="267"/>
      <point x="336" y="232"/>
      <point x="336" y="157" type="curve" smooth="yes"/>
      <point x="336" y="92"/>
      <point x="302" y="45"/>
      <point x="240" y="45" type="curve" smooth="yes"/>
      <point x="176" y="45"/>
      <point x="120" y="102"/>
      <point x="118" y="214" type="curve"/>
      <point x="70" y="214"/>
      <point x="27" y="189"/>
      <point x="27" y="127" type="curve" smooth="yes"/>
      <point x="27" y="59"/>
      <point x="72" y="-10"/>
    </contour>
  </outline>
</glyph>
<glyph name="T.mono" format="2">
  <advance width="500"/>
  <unicode hex="0054"/>
  <anchor x="250" y="0" name="bottom"/>
  <anchor x="250" y="357" name="center"/>
  <anchor x="250" y="714" name="top"/>
  <anchor x="480" y="714" name="topright"/>
  <outline>
    <contour>
      <point x="186" y="0" type="line"/>
      <point x="314" y="0" type="line"/>
      <point x="314" y="595" type="line"/>
      <point x="475" y="595" type="line"/>
      <point x="475" y="714" type="line"/>
      <point x="25" y="714" type="line"/>
      <point x="25" y="595" type="line"/>
      <point x="186" y="595" type="line"/>
    </contour>
  </outline>
</glyph>
<glyph name="T.serif" format="2">
  <advance width="536"/>
  <unicode hex="0054"/>
  <anchor x="269" y="0" name="bottom"/>
  <anchor x="269" y="357" name="center"/>
  <anchor x="269" y="714" name="top"/>
  <anchor x="516" y="714" name="topright"/>
  <outline>
    <contour>
      <point x="119" y="0" type="line"/>
      <point x="416" y="0" type="line"/>
      <point x="416" y="49" type="line"/>
      <point x="395" y="49" type="line" smooth="yes"/>
      <point x="360" y="49"/>
      <point x="336" y="57"/>
      <point x="336" y="116" type="curve" smooth="yes"/>
      <point x="336" y="657" type="line"/>
      <point x="399" y="657" type="line" smooth="yes"/>
      <point x="448" y="657"/>
      <point x="462" y="626"/>
      <point x="467" y="582" type="curve" smooth="yes"/>
      <point x="473" y="526" type="line"/>
      <point x="529" y="526" type="line"/>
      <point x="525" y="714" type="line"/>
      <point x="11" y="714" type="line"/>
      <point x="7" y="526" type="line"/>
      <point x="63" y="526" type="line"/>
      <point x="69" y="582" type="line" smooth="yes"/>
      <point x="74" y="626"/>
      <point x="88" y="657"/>
      <point x="137" y="657" type="curve" smooth="yes"/>
      <point x="200" y="657" type="line"/>
      <point x="200" y="115" type="line" smooth="yes"/>
      <point x="200" y="57"/>
      <point x="175" y="49"/>
      <point x="141" y="49" type="curve" smooth="yes"/>
      <point x="119" y="49" type="line"/>
    </contour>
  </outline>
</glyph>
<glyph name="U.mono" format="2">
  <advance width="500"/>
  <unicode hex="0055"/>
  <anchor x="250" y="0" name="bottom"/>
  <anchor x="450" y="10" name="ogonek"/>
  <anchor x="250" y="714" name="top"/>
  <anchor x="480" y="714" name="topright"/>
  <outline>
    <contour>
      <point x="247" y="-10" type="curve" smooth="yes"/>
      <point x="390" y="-10"/>
      <point x="465" y="71"/>
      <point x="465" y="204" type="curve" smooth="yes"/>
      <point x="465" y="714" type="line"/>
      <point x="337" y="714" type="line"/>
      <point x="337" y="233" type="line" smooth="yes"/>
      <point x="337" y="143"/>
      <point x="310" y="108"/>
      <point x="248" y="108" type="curve" smooth="yes"/>
      <point x="192" y="108"/>
      <point x="163" y="144"/>
      <point x="163" y="232" type="curve" smooth="yes"/>
      <point x="163" y="714" type="line"/>
      <point x="35" y="714" type="line"/>
      <point x="35" y="211" type="line" smooth="yes"/>
      <point x="35" y="69"/>
      <point x="110" y="-10"/>
    </contour>
  </outline>
</glyph>
<glyph name="U.serif" format="2">
  <advance width="612"/>
  <unicode hex="0055"/>
  <anchor x="306" y="0" name="bottom"/>
  <anchor x="340" y="714" name="top"/>
  <anchor x="602" y="714" name="topright"/>
  <outline>
    <contour>
      <point x="312" y="-10" type="curve" smooth="yes"/>
      <point x="458" y="-10"/>
      <point x="522" y="77"/>
      <point x="522" y="211" type="curve" smooth="yes"/>
      <point x="522" y="598" type="line" smooth="yes"/>
      <point x="522" y="657"/>
      <point x="546" y="665"/>
      <point x="580" y="665" type="curve" smooth="yes"/>
      <point x="599" y="665" type="line"/>
      <point x="599" y="714" type="line"/>
      <point x="385" y="714" type="line"/>
      <point x="385" y="665" type="line"/>
      <point x="403" y="665" type="line" smooth="yes"/>
      <point x="436" y="665"/>
      <point x="460" y="657"/>
      <point x="460" y="602" type="curve" smooth="yes"/>
      <point x="460" y="213" type="line" smooth="yes"/>
      <point x="460" y="114"/>
      <point x="413" y="57"/>
      <point x="344" y="57" type="curve" smooth="yes"/>
      <point x="270" y="57"/>
      <point x="224" y="96"/>
      <point x="224" y="210" type="curve" smooth="yes"/>
      <point x="224" y="598" type="line" smooth="yes"/>
      <point x="224" y="657"/>
      <point x="249" y="665"/>
      <point x="282" y="665" type="curve" smooth="yes"/>
      <point x="300" y="665" type="line"/>
      <point x="300" y="714" type="line"/>
      <point x="13" y="714" type="line"/>
      <point x="13" y="665" type="line"/>
      <point x="32" y="665" type="line" smooth="yes"/>
      <point x="65" y="665"/>
      <point x="90" y="657"/>
      <point x="90" y="602" type="curve" smooth="yes"/>
      <point x="90" y="217" type="line" smooth="yes"/>
      <point x="90" y="53"/>
      <point x="180" y="-10"/>
    </contour>
  </outline>
</glyph>
<glyph name="V.mono" format="2">
  <advance width="500"/>
  <unicode hex="0056"/>
  <anchor x="250" y="0" name="bottom"/>
  <anchor x="250" y="714" name="top"/>
  <anchor x="480" y="714" name="topright"/>
  <outline>
    <contour>
      <point x="177" y="0" type="line"/>
      <point x="322" y="0" type="line"/>
      <point x="490" y="714" type="line"/>
      <point x="354" y="714" type="line"/>
      <point x="278" y="294" type="line" smooth="yes"/>
      <point x="270" y="249"/>
      <point x="258" y="174"/>
      <point x="253" y="131" type="curve"/>
      <point x="252" y="131" type="line"/>
      <point x="247" y="174"/>
      <point x="235" y="249"/>
      <point x="227" y="294" type="curve" smooth="yes"/>
      <point x="148" y="714" type="line"/>
      <point x="10" y="714" type="line"/>
    </contour>
  </outline>
</glyph>
<glyph name="V.serif" format="2">
  <advance width="571"/>
  <unicode hex="0056"/>
  <anchor x="286" y="0" name="bottom"/>
  <anchor x="316" y="714" name="top"/>
  <anchor x="551" y="714" name="topright"/>
  <outline>
    <contour>
      <point x="70" y="615" type="curve" smooth="yes"/>
      <point x="234" y="0" type="line"/>
      <point x="333" y="0" type="line"/>
      <point x="492" y="590" type="line" smooth="yes"/>
      <point x="509" y="653"/>
      <point x="520" y="665"/>
      <point x="549" y="665" type="curve" smooth="yes"/>
      <point x="571" y="665" type="line"/>
      <point x="571" y="714" type="line"/>
      <point x="366" y="714" type="line"/>
      <point x="366" y="665" type="line"/>
      <point x="401" y="665" type="line" smooth="yes"/>
      <point x="425" y="665"/>
      <point x="435" y="654"/>
      <point x="435" y="635" type="curve" smooth="yes"/>
      <point x="435" y="619"/>
      <point x="429" y="598"/>
      <point x="423" y="574" type="curve"/>
      <point x="345" y="269" type="line" smooth="yes"/>
      <point x="333" y="222"/>
      <point x="323" y="181"/>
      <point x="316" y="142" type="curve"/>
      <point x="310" y="181"/>
      <point x="300" y="228"/>
      <point x="289" y="271" type="curve" smooth="yes"/>
      <point x="214" y="583" type="line" smooth="yes"/>
      <point x="210" y="600"/>
      <point x="204" y="620"/>
      <point x="204" y="635" type="curve" smooth="yes"/>
      <point x="204" y="654"/>
      <point x="216" y="665"/>
      <point x="238" y="665" type="curve" smooth="yes"/>
      <point x="268" y="665" type="line"/>
      <point x="268" y="714" type="line"/>
      <point x="0" y="714" type="line"/>
      <point x="0" y="665" type="line"/>
      <point x="20" y="665" type="line" smooth="yes"/>
      <point x="43" y="665"/>
      <point x="59" y="655"/>
    </contour>
  </outline>
</glyph>
<glyph name="W.mono" format="2">
  <advance width="500"/>
  <unicode hex="0057"/>
  <anchor x="250" y="0" name="bottom"/>
  <anchor x="250" y="714" name="top"/>
  <anchor x="480" y="714" name="topright"/>
  <outline>
    <contour>
      <point x="38" y="0" type="line"/>
      <point x="210" y="0" type="line"/>
      <point x="236" y="246" type="line" smooth="yes"/>
      <point x="241" y="293"/>
      <point x="245" y="356"/>
      <point x="246" y="405" type="curve"/>
      <point x="252" y="405" type="line"/>
      <point x="255" y="355"/>
      <point x="256" y="293"/>
      <point x="261" y="246" type="curve" smooth="yes"/>
      <point x="287" y="0" type="line"/>
      <point x="460" y="0" type="line"/>
      <point x="490" y="714" type="line"/>
      <point x="369" y="714" type="line"/>
      <point x="367" y="589"/>
      <point x="362" y="464"/>
      <point x="362" y="339" type="curve" smooth="yes"/>
      <point x="362" y="284"/>
      <point x="364" y="194"/>
      <point x="364" y="120" type="curve"/>
      <point x="357" y="120" type="line"/>
      <point x="351" y="181"/>
      <point x="343" y="264"/>
      <point x="336" y="318" type="curve" smooth="yes"/>
      <point x="308" y="545" type="line"/>
      <point x="193" y="545" type="line"/>
      <point x="162" y="319" type="line" smooth="yes"/>
      <point x="156" y="276"/>
      <point x="146" y="183"/>
      <point x="140" y="120" type="curve"/>
      <point x="133" y="120" type="line"/>
      <point x="134" y="181"/>
      <point x="134" y="253"/>
      <point x="134" y="339" type="curve" smooth="yes"/>
      <point x="134" y="377"/>
      <point x="129" y="554"/>
      <point x="125" y="714" type="curve"/>
      <point x="10" y="714" type="line"/>
    </contour>
  </outline>
</glyph>
<glyph name="W.serif" format="2">
  <advance width="872"/>
  <unicode hex="0057"/>
  <anchor x="436" y="0" name="bottom"/>
  <anchor x="466" y="714" name="top"/>
  <anchor x="852" y="714" name="topright"/>
  <outline>
    <contour>
      <point x="68" y="612" type="curve" smooth="yes"/>
      <point x="204" y="0" type="line"/>
      <point x="324" y="0" type="line"/>
      <point x="443" y="504" type="line"/>
      <point x="550" y="0" type="line"/>
      <point x="670" y="0" type="line"/>
      <point x="796" y="587" type="line" smooth="yes"/>
      <point x="810" y="653"/>
      <point x="826" y="665"/>
      <point x="857" y="665" type="curve" smooth="yes"/>
      <point x="873" y="665" type="line"/>
      <point x="873" y="714" type="line"/>
      <point x="658" y="714" type="line"/>
      <point x="658" y="665" type="line"/>
      <point x="677" y="665" type="line" smooth="yes"/>
      <point x="713" y="665"/>
      <point x="729" y="654"/>
      <point x="729" y="625" type="curve" smooth="yes"/>
      <point x="729" y="611"/>
      <point x="725" y="581"/>
      <point x="721" y="564" type="curve" smooth="yes"/>
      <point x="667" y="297" type="line" smooth="yes"/>
      <point x="655" y="237"/>
      <point x="645" y="187"/>
      <point x="638" y="142" type="curve"/>
      <point x="631" y="189"/>
      <point x="619" y="243"/>
      <point x="604" y="309" type="curve" smooth="yes"/>
      <point x="516" y="707" type="line"/>
      <point x="432" y="707" type="line"/>
      <point x="334" y="302" type="line" smooth="yes"/>
      <point x="319" y="240"/>
      <point x="306" y="190"/>
      <point x="298" y="143" type="curve"/>
      <point x="293" y="188"/>
      <point x="279" y="255"/>
      <point x="270" y="308" type="curve" smooth="yes"/>
      <point x="218" y="568" type="line" smooth="yes"/>
      <point x="214" y="586"/>
      <point x="210" y="612"/>
      <point x="210" y="624" type="curve" smooth="yes"/>
      <point x="210" y="651"/>
      <point x="226" y="665"/>
      <point x="258" y="665" type="curve" smooth="yes"/>
      <point x="278" y="665" type="line"/>
      <point x="278" y="714" type="line"/>
      <point x="0" y="714" type="line"/>
      <point x="0" y="665" type="line"/>
      <point x="10" y="665" type="line" smooth="yes"/>
      <point x="42" y="665"/>
      <point x="58" y="654"/>
    </contour>
  </outline>
</glyph>
<glyph name="X.mono" format="2">
  <advance width="500"/>
  <unicode hex="0058"/>
  <anchor x="250" y="0" name="bottom"/>
  <anchor x="250" y="714" name="top"/>
  <anchor x="480" y="714" name="topright"/>
  <outline>
    <contour>
      <point x="10" y="0" type="line"/>
      <point x="151" y="0" type="line"/>
      <point x="248" y="268" type="line"/>
      <point x="349" y="0" type="line"/>
      <point x="490" y="0" type="line"/>
      <point x="331" y="364" type="line"/>
      <point x="475" y="714" type="line"/>
      <point x="332" y="714" type="line"/>
      <point x="250" y="463" type="line"/>
      <point x="163" y="714" type="line"/>
      <point x="21" y="714" type="line"/>
      <point x="164" y="366" type="line"/>
    </contour>
  </outline>
</glyph>
<glyph name="X.serif" format="2">
  <advance width="604"/>
  <unicode hex="0058"/>
  <anchor x="302" y="0" name="bottom"/>
  <anchor x="302" y="714" name="top"/>
  <anchor x="584" y="714" name="topright"/>
  <outline>
    <contour>
      <point x="8" y="0" type="line"/>
      <point x="214.99" y="0" type="line"/>
      <point x="215" y="49" type="line"/>
      <point x="211" y="49" type="line" smooth="yes"/>
      <point x="176" y="49"/>
      <point x="163" y="61"/>
      <point x="163" y="83" type="curve" smooth="yes"/>
      <point x="163" y="104"/>
      <point x="174" y="128"/>
      <point x="186" y="151" type="curve" smooth="yes"/>
      <point x="271" y="300" type="line"/>
      <point x="347" y="151" type="line" smooth="yes"/>
      <point x="369" y="108"/>
      <point x="373" y="97"/>
      <point x="373" y="82" type="curve" smooth="yes"/>
      <point x="373" y="60"/>
      <point x="357" y="49"/>
      <point x="324" y="49" type="curve" smooth="yes"/>
      <point x="321" y="49" type="line"/>
      <point x="321" y="0" type="line"/>
      <point x="595" y="0" type="line"/>
      <point x="595" y="49" type="line"/>
      <point x="584" y="49" type="line" smooth="yes"/>
      <point x="564" y="49"/>
      <point x="541" y="62"/>
      <point x="519" y="102" type="curve" smooth="yes"/>
      <point x="371" y="386" type="line"/>
      <point x="487" y="593" type="line" smooth="yes"/>
      <point x="519" y="648"/>
      <point x="536" y="665"/>
      <point x="568" y="665" type="curve" smooth="yes"/>
      <point x="576" y="665" type="line"/>
      <point x="576" y="714" type="line"/>
      <point x="384" y="714" type="line"/>
      <point x="384" y="665" type="line"/>
      <point x="387" y="665" type="line" smooth="yes"/>
      <point x="413" y="665"/>
      <point x="432" y="660"/>
      <point x="432" y="636" type="curve" smooth="yes"/>
      <point x="432" y="618"/>
      <point x="420" y="595"/>
      <point x="410" y="575" type="curve" smooth="yes"/>
      <point x="341" y="441" type="line"/>
      <point x="272" y="577" type="line" smooth="yes"/>
      <point x="262" y="596"/>
      <point x="251" y="620"/>
      <point x="251" y="634" type="curve" smooth="yes"/>
      <point x="251" y="650"/>
      <point x="260" y="665"/>
      <point x="297" y="665" type="curve" smooth="yes"/>
      <point x="302" y="665" type="line"/>
      <point x="302" y="714" type="line"/>
      <point x="26" y="714" type="line"/>
      <point x="26" y="665" type="line"/>
      <point x="37" y="665" type="line" smooth="yes"/>
      <point x="75" y="665"/>
      <point x="88" y="648"/>
      <point x="106" y="612" type="curve" smooth="yes"/>
      <point x="240" y="354" type="line"/>
      <point x="98" y="119" type="line" smooth="yes"/>
      <point x="71" y="72"/>
      <point x="52" y="49"/>
      <point x="13" y="49" type="curve" smooth="yes"/>
      <point x="8" y="49" type="line"/>
    </contour>
  </outline>
</glyph>
<glyph name="Y.mono" format="2">
  <advance width="500"/>
  <unicode hex="0059"/>
  <anchor x="250" y="0" name="bottom"/>
  <anchor x="250" y="714" name="top"/>
  <anchor x="20" y="714" name="topleft"/>
  <anchor x="480" y="714" name="topright"/>
  <outline>
    <contour>
      <point x="186" y="0" type="line"/>
      <point x="314" y="0" type="line"/>
      <point x="314" y="277" type="line"/>
      <point x="490" y="714" type="line"/>
      <point x="342" y="714" type="line"/>
      <point x="252" y="413" type="line"/>
      <point x="156" y="714" type="line"/>
      <point x="10" y="714" type="line"/>
      <point x="186" y="277" type="line"/>
    </contour>
  </outline>
</glyph>
<glyph name="Y.serif" format="2">
  <advance width="571"/>
  <unicode hex="0059"/>
  <anchor x="286" y="0" name="bottom"/>
  <anchor x="286" y="714" name="top"/>
  <anchor x="551" y="714" name="topright"/>
  <outline>
    <contour>
      <point x="134" y="0" type="line"/>
      <point x="441" y="0" type="line"/>
      <point x="441" y="49" type="line"/>
      <point x="411" y="49" type="line" smooth="yes"/>
      <point x="381" y="49"/>
      <point x="356" y="60"/>
      <point x="356" y="120" type="curve" smooth="yes"/>
      <point x="356" y="273" type="line"/>
      <point x="495" y="587" type="line" smooth="yes"/>
      <point x="522" y="648"/>
      <point x="534" y="665"/>
      <point x="563" y="665" type="curve" smooth="yes"/>
      <point x="572" y="665" type="line"/>
      <point x="572" y="714" type="line"/>
      <point x="359" y="714" type="line"/>
      <point x="359" y="665" type="line"/>
      <point x="375" y="665" type="line" smooth="yes"/>
      <point x="411" y="665"/>
      <point x="430" y="653"/>
      <point x="430" y="620" type="curve" smooth="yes"/>
      <point x="430" y="608"/>
      <point x="426" y="586"/>
      <point x="415" y="558" type="curve" smooth="yes"/>
      <point x="368" y="445" type="line" smooth="yes"/>
      <point x="351" y="402"/>
      <point x="336" y="364"/>
      <point x="325" y="334" type="curve"/>
      <point x="316" y="365"/>
      <point x="306" y="394"/>
      <point x="289" y="432" type="curve" smooth="yes"/>
      <point x="229" y="570" type="line" smooth="yes"/>
      <point x="222" y="587"/>
      <point x="216" y="609"/>
      <point x="216" y="624" type="curve" smooth="yes"/>
      <point x="216" y="648"/>
      <point x="234" y="665"/>
      <point x="267" y="665" type="curve" smooth="yes"/>
      <point x="277" y="665" type="line"/>
      <point x="277" y="714" type="line"/>
      <point x="0" y="714" type="line"/>
      <point x="0" y="665" type="line"/>
      <point x="11" y="665" type="line" smooth="yes"/>
      <point x="44" y="665"/>
      <point x="52" y="651"/>
      <point x="70" y="612" type="curve" smooth="yes"/>
      <point x="219" y="273" type="line"/>
      <point x="219" y="118" type="line" smooth="yes"/>
      <point x="219" y="60"/>
      <point x="194" y="49"/>
      <point x="158" y="49" type="curve" smooth="yes"/>
      <point x="134" y="49" type="line"/>
    </contour>
  </outline>
</glyph>
<glyph name="Z.mono" format="2">
  <advance width="500"/>
  <unicode hex="005A"/>
  <anchor x="269" y="0" name="bottom"/>
  <anchor x="257" y="714" name="top"/>
  <anchor x="480" y="714" name="topright"/>
  <outline>
    <contour>
      <point x="55" y="0" type="line"/>
      <point x="455" y="0" type="line"/>
      <point x="455" y="119" type="line"/>
      <point x="200" y="119" type="line"/>
      <point x="443" y="617" type="line"/>
      <point x="443" y="714" type="line"/>
      <point x="63" y="714" type="line"/>
      <point x="63" y="595" type="line"/>
      <point x="300" y="595" type="line"/>
      <point x="55" y="97" type="line"/>
    </contour>
  </outline>
</glyph>
<glyph name="bracketleft.mono" format="2">
  <advance width="500"/>
  <unicode hex="005B"/>
  <outline>
    <contour>
      <point x="176" y="-164" type="line"/>
      <point x="403" y="-164" type="line"/>
      <point x="403" y="-68" type="line"/>
      <point x="291" y="-68" type="line"/>
      <point x="291" y="630" type="line"/>
      <point x="403" y="630" type="line"/>
      <point x="403" y="727" type="line"/>
      <point x="176" y="727" type="line"/>
    </contour>
  </outline>
</glyph>
<glyph name="asciicircum.mono" format="2">
  <advance width="500"/>
  <unicode hex="005E"/>
  <outline>
    <contour>
      <point x="13" y="286" type="line"/>
      <point x="126" y="286" type="line"/>
      <point x="249" y="551" type="line"/>
      <point x="372" y="286" type="line"/>
      <point x="486" y="286" type="line"/>
      <point x="282" y="714" type="line"/>
      <point x="216" y="714" type="line"/>
    </contour>
  </outline>
</glyph>
<glyph name="asciicircum.serif" format="2">
  <advance width="425"/>
  <unicode hex="005E"/>
  <outline>
    <contour>
      <point x="22" y="264" type="line"/>
      <point x="86" y="264" type="line"/>
      <point x="211" y="610" type="line"/>
      <point x="338" y="264" type="line"/>
      <point x="402" y="264" type="line"/>
      <point x="229" y="714" type="line"/>
      <point x="194" y="714" type="line"/>
    </contour>
  </outline>
</glyph>
<glyph name="grave.mono" format="2">
  <advance width="500"/>
  <unicode hex="0060"/>
  <outline>
    <contour>
      <point x="250" y="606" type="curve"/>
      <point x="336" y="606" type="line"/>
      <point x="336" y="619" type="line"/>
      <point x="313" y="651"/>
      <point x="271" y="723"/>
      <point x="253" y="766" type="curve"/>
      <point x="112" y="766" type="line"/>
      <point x="112" y="757" type="line"/>
      <point x="138" y="719"/>
      <point x="214" y="637"/>
    </contour>
  </outline>
</glyph>
<glyph name="a.mono" format="2">
  <advance width="500"/>
  <unicode hex="0061"/>
  <anchor x="256" y="0" name="bottom"/>
  <anchor x="450" y="10" name="ogonek"/>
  <anchor x="265" y="546" name="top"/>
  <anchor x="480" y="546" name="topright"/>
  <outline>
    <contour>
      <point x="195" y="-10" type="curve" smooth="yes"/>
      <point x="248" y="-10"/>
      <point x="287" y="11"/>
      <point x="329" y="73" type="curve"/>
      <point x="332" y="73" type="line"/>
      <point x="360" y="0" type="line"/>
      <point x="450" y="0" type="line"/>
      <point x="450" y="365" type="line" smooth="yes"/>
      <point x="450" y="492"/>
      <point x="386" y="556"/>
      <point x="249" y="556" type="curve" smooth="yes"/>
      <point x="185" y="556"/>
      <point x="135" y="542"/>
      <point x="73" y="507" type="curve"/>
      <point x="120" y="407" type="line"/>
      <point x="171" y="434"/>
      <point x="206" y="440"/>
      <point x="236" y="440" type="curve" smooth="yes"/>
      <point x="296" y="440"/>
      <point x="326" y="415"/>
      <point x="326" y="358" type="curve" smooth="yes"/>
      <point x="326" y="338" type="line"/>
      <point x="238" y="335" type="line" smooth="yes"/>
      <point x="112" y="331"/>
      <point x="50" y="272"/>
      <point x="50" y="158" type="curve" smooth="yes"/>
      <point x="50" y="54"/>
      <point x="106" y="-10"/>
    </contour>
    <contour>
      <point x="242" y="108" type="curve" smooth="yes"/>
      <point x="208" y="108"/>
      <point x="182" y="128"/>
      <point x="182" y="169" type="curve" smooth="yes"/>
      <point x="182" y="222"/>
      <point x="215" y="250"/>
      <point x="276" y="252" type="curve" smooth="yes"/>
      <point x="326" y="254" type="line"/>
      <point x="326" y="209" type="line" smooth="yes"/>
      <point x="326" y="143"/>
      <point x="287" y="108"/>
    </contour>
  </outline>
</glyph>
<glyph name="a.serif" format="2">
  <advance width="493"/>
  <unicode hex="0061"/>
  <anchor x="376" y="0" name="bottom"/>
  <anchor x="247" y="536" name="top"/>
  <anchor x="473" y="536" name="topright"/>
  <outline>
    <contour>
      <point x="163" y="-10" type="curve" smooth="yes"/>
      <point x="225" y="-10"/>
      <point x="249" y="20"/>
      <point x="285" y="74" type="curve"/>
      <point x="293" y="74" type="line"/>
      <point x="310" y="0" type="line"/>
      <point x="467" y="0" type="line"/>
      <point x="467" y="49" type="line"/>
      <point x="464" y="49" type="line" smooth="yes"/>
      <point x="427" y="49"/>
      <point x="415" y="65"/>
      <point x="415" y="120" type="curve" smooth="yes"/>
      <point x="415" y="377" type="line" smooth="yes"/>
      <point x="415" y="502"/>
      <point x="356" y="548"/>
      <point x="241" y="548" type="curve" smooth="yes"/>
      <point x="144" y="548"/>
      <point x="70" y="515"/>
      <point x="70" y="448" type="curve" smooth="yes"/>
      <point x="70" y="403"/>
      <point x="104" y="382"/>
      <point x="176" y="382" type="curve"/>
      <point x="176" y="450"/>
      <point x="191" y="491"/>
      <point x="230" y="491" type="curve" smooth="yes"/>
      <point x="272" y="491"/>
      <point x="285" y="449"/>
      <point x="285" y="373" type="curve" smooth="yes"/>
      <point x="285" y="317" type="line"/>
      <point x="218" y="314" type="line" smooth="yes"/>
      <point x="96" y="309"/>
      <point x="36" y="260"/>
      <point x="36" y="152" type="curve" smooth="yes"/>
      <point x="36" y="41"/>
      <point x="93" y="-10"/>
    </contour>
    <contour>
      <point x="212" y="54" type="curve" smooth="yes"/>
      <point x="182" y="54"/>
      <point x="169" y="89"/>
      <point x="169" y="147" type="curve" smooth="yes"/>
      <point x="169" y="222"/>
      <point x="189" y="260"/>
      <point x="252" y="265" type="curve" smooth="yes"/>
      <point x="286" y="268" type="line"/>
      <point x="286" y="191" type="line" smooth="yes"/>
      <point x="286" y="111"/>
      <point x="257" y="54"/>
    </contour>
  </outline>
</glyph>
<glyph name="b.mono" format="2">
  <advance width="500"/>
  <unicode hex="0062"/>
  <anchor x="250" y="0" name="bottom"/>
  <anchor x="250" y="761" name="top"/>
  <anchor x="480" y="761" name="topright"/>
  <outline>
    <contour>
      <point x="309" y="-10" type="curve" smooth="yes"/>
      <point x="419" y="-10"/>
      <point x="470" y="109"/>
      <point x="470" y="275" type="curve" smooth="yes"/>
      <point x="470" y="435"/>
      <point x="423" y="556"/>
      <point x="312" y="556" type="curve" smooth="yes"/>
      <point x="252" y="556"/>
      <point x="202" y="527"/>
      <point x="173" y="475" type="curve"/>
      <point x="167" y="475" type="line"/>
      <point x="171" y="521"/>
      <point x="173" y="557"/>
      <point x="173" y="582" type="curve" smooth="yes"/>
      <point x="173" y="761" type="line"/>
      <point x="45" y="761" type="line"/>
      <point x="45" y="0" type="line"/>
      <point x="140" y="0" type="line"/>
      <point x="163" y="61" type="line"/>
      <point x="173" y="61" type="line"/>
      <point x="208" y="14"/>
      <point x="254" y="-10"/>
    </contour>
    <contour>
      <point x="254" y="107" type="curve" smooth="yes"/>
      <point x="203" y="107"/>
      <point x="173" y="158"/>
      <point x="173" y="273" type="curve" smooth="yes"/>
      <point x="173" y="385"/>
      <point x="201" y="440"/>
      <point x="254" y="440" type="curve" smooth="yes"/>
      <point x="308" y="440"/>
      <point x="334" y="384"/>
      <point x="334" y="275" type="curve" smooth="yes"/>
      <point x="334" y="166"/>
      <point x="308" y="107"/>
    </contour>
  </outline>
</glyph>
<glyph name="b.serif" format="2">
  <advance width="533"/>
  <unicode hex="0062"/>
  <anchor x="258" y="0" name="bottom"/>
  <anchor x="146" y="760" name="top"/>
  <anchor x="509" y="760" name="topright"/>
  <outline>
    <contour>
      <point x="328" y="-10" type="curve" smooth="yes"/>
      <point x="434" y="-10"/>
      <point x="494" y="76"/>
      <point x="494" y="269" type="curve" smooth="yes"/>
      <point x="494" y="462"/>
      <point x="437" y="547"/>
      <point x="333" y="547" type="curve" smooth="yes"/>
      <point x="270" y="547"/>
      <point x="232" y="511"/>
      <point x="209" y="461" type="curve"/>
      <point x="205" y="461" type="line"/>
      <point x="208" y="491"/>
      <point x="211" y="549"/>
      <point x="211" y="585" type="curve" smooth="yes"/>
      <point x="211" y="760" type="line"/>
      <point x="13" y="760" type="line"/>
      <point x="13" y="711" type="line"/>
      <point x="18" y="711" type="line" smooth="yes"/>
      <point x="53" y="711"/>
      <point x="81" y="701"/>
      <point x="81" y="644" type="curve" smooth="yes"/>
      <point x="81" y="120" type="line" smooth="yes"/>
      <point x="81" y="58"/>
      <point x="49" y="49"/>
      <point x="19" y="49" type="curve" smooth="yes"/>
      <point x="13" y="49" type="line"/>
      <point x="13" y="0" type="line"/>
      <point x="171" y="0" type="line"/>
      <point x="196" y="78" type="line"/>
      <point x="202" y="78" type="line"/>
      <point x="226" y="26"/>
      <point x="265" y="-10"/>
    </contour>
    <contour>
      <point x="291" y="57" type="curve" smooth="yes"/>
      <point x="228" y="57"/>
      <point x="210" y="133"/>
      <point x="210" y="270" type="curve" smooth="yes"/>
      <point x="210" y="410"/>
      <point x="229" y="482"/>
      <point x="290" y="482" type="curve" smooth="yes"/>
      <point x="342" y="482"/>
      <point x="364" y="414"/>
      <point x="364" y="271" type="curve" smooth="yes"/>
      <point x="364" y="133"/>
      <point x="342" y="57"/>
    </contour>
  </outline>
</glyph>
<glyph name="c.mono" format="2">
  <advance width="500"/>
  <unicode hex="0063"/>
  <anchor x="294" y="0" name="bottom"/>
  <anchor x="283" y="546" name="top"/>
  <anchor x="480" y="546" name="topright"/>
  <outline>
    <contour>
      <point x="291" y="-10" type="curve" smooth="yes"/>
      <point x="331" y="-10"/>
      <point x="385" y="-4"/>
      <point x="439" y="25" type="curve"/>
      <point x="439" y="146" type="line"/>
      <point x="389" y="118"/>
      <point x="347" y="107"/>
      <point x="313" y="107" type="curve" smooth="yes"/>
      <point x="239" y="107"/>
      <point x="187" y="157"/>
      <point x="187" y="275" type="curve" smooth="yes"/>
      <point x="187" y="383"/>
      <point x="231" y="440"/>
      <point x="314" y="440" type="curve" smooth="yes"/>
      <point x="351" y="440"/>
      <point x="375" y="434"/>
      <point x="413" y="413" type="curve"/>
      <point x="455" y="519" type="line"/>
      <point x="406" y="544"/>
      <point x="352" y="556"/>
      <point x="298" y="556" type="curve" smooth="yes"/>
      <point x="145" y="556"/>
      <point x="55" y="462"/>
      <point x="55" y="267" type="curve" smooth="yes"/>
      <point x="55" y="84"/>
      <point x="135" y="-10"/>
    </contour>
  </outline>
</glyph>
<glyph name="c.serif" format="2">
  <advance width="433"/>
  <unicode hex="0063"/>
  <anchor x="237" y="0" name="bottom"/>
  <anchor x="240" y="536" name="top"/>
  <anchor x="413" y="536" name="topright"/>
  <outline>
    <contour>
      <point x="242" y="-10" type="curve" smooth="yes"/>
      <point x="366" y="-10"/>
      <point x="403" y="50"/>
      <point x="403" y="97" type="curve" smooth="yes"/>
      <point x="403" y="117"/>
      <point x="393" y="130"/>
      <point x="379" y="139" type="curve"/>
      <point x="360" y="93"/>
      <point x="322" y="56"/>
      <point x="267" y="56" type="curve" smooth="yes"/>
      <point x="197" y="56"/>
      <point x="168" y="129"/>
      <point x="168" y="266" type="curve" smooth="yes"/>
      <point x="168" y="440"/>
      <point x="198" y="491"/>
      <point x="243" y="491" type="curve" smooth="yes"/>
      <point x="282" y="491"/>
      <point x="294" y="434"/>
      <point x="294" y="366" type="curve"/>
      <point x="384" y="366"/>
      <point x="403" y="400"/>
      <point x="403" y="444" type="curve" smooth="yes"/>
      <point x="403" y="503"/>
      <point x="355" y="548"/>
      <point x="239" y="548" type="curve" smooth="yes"/>
      <point x="126" y="548"/>
      <point x="37" y="481"/>
      <point x="37" y="265" type="curve" smooth="yes"/>
      <point x="37" y="64"/>
      <point x="120" y="-10"/>
    </contour>
  </outline>
</glyph>
<glyph name="d.mono" format="2">
  <advance width="500"/>
  <unicode hex="0064"/>
  <anchor x="250" y="0" name="bottom"/>
  <anchor x="250" y="273" name="center"/>
  <anchor x="250" y="761" name="top"/>
  <anchor x="480" y="761" name="topright"/>
  <outline>
    <contour>
      <point x="189" y="-10" type="curve" smooth="yes"/>
      <point x="246" y="-10"/>
      <point x="291" y="19"/>
      <point x="327" y="71" type="curve"/>
      <point x="334" y="71" type="line"/>
      <point x="363" y="0" type="line"/>
      <point x="455" y="0" type="line"/>
      <point x="455" y="761" type="line"/>
      <point x="327" y="761" type="line"/>
      <point x="327" y="577" type="line" smooth="yes"/>
      <point x="327" y="548"/>
      <point x="330" y="508"/>
      <point x="338" y="476" type="curve"/>
      <point x="334" y="476" type="line"/>
      <point x="304" y="527"/>
      <point x="252" y="556"/>
      <point x="195" y="556" type="curve" smooth="yes"/>
      <point x="80" y="556"/>
      <point x="30" y="440"/>
      <point x="30" y="270" type="curve" smooth="yes"/>
      <point x="30" y="109"/>
      <point x="75" y="-10"/>
    </contour>
    <contour>
      <point x="254" y="107" type="curve" smooth="yes"/>
      <point x="195" y="107"/>
      <point x="166" y="155"/>
      <point x="166" y="273" type="curve" smooth="yes"/>
      <point x="166" y="381"/>
      <point x="190" y="440"/>
      <point x="254" y="440" type="curve" smooth="yes"/>
      <point x="323" y="440"/>
      <point x="339" y="371"/>
      <point x="339" y="270" type="curve" smooth="yes"/>
      <point x="339" y="253" type="line" smooth="yes"/>
      <point x="339" y="162"/>
      <point x="317" y="107"/>
    </contour>
  </outline>
</glyph>
<glyph name="d.serif" format="2">
  <advance width="533"/>
  <unicode hex="0064"/>
  <anchor x="267" y="0" name="bottom"/>
  <anchor x="267" y="268" name="center"/>
  <anchor x="382" y="760" name="top"/>
  <anchor x="509" y="760" name="topright"/>
  <outline>
    <contour>
      <point x="202" y="-10" type="curve" smooth="yes"/>
      <point x="266" y="-10"/>
      <point x="304" y="25"/>
      <point x="329" y="82" type="curve"/>
      <point x="333" y="82" type="line"/>
      <point x="353" y="0" type="line"/>
      <point x="519" y="0" type="line"/>
      <point x="519" y="49" type="line"/>
      <point x="512" y="49" type="line" smooth="yes"/>
      <point x="472" y="49"/>
      <point x="451" y="64"/>
      <point x="451" y="125" type="curve" smooth="yes"/>
      <point x="451" y="760" type="line"/>
      <point x="249" y="760" type="line"/>
      <point x="249" y="711" type="line"/>
      <point x="256" y="711" type="line" smooth="yes"/>
      <point x="291" y="711"/>
      <point x="321" y="703"/>
      <point x="321" y="646" type="curve" smooth="yes"/>
      <point x="321" y="577" type="line" smooth="yes"/>
      <point x="321" y="539"/>
      <point x="321" y="499"/>
      <point x="323" y="468" type="curve"/>
      <point x="319" y="468" type="line"/>
      <point x="296" y="514"/>
      <point x="262" y="547"/>
      <point x="201" y="547" type="curve" smooth="yes"/>
      <point x="96" y="547"/>
      <point x="36" y="460"/>
      <point x="36" y="267" type="curve" smooth="yes"/>
      <point x="36" y="75"/>
      <point x="96" y="-10"/>
    </contour>
    <contour>
      <point x="240" y="57" type="curve" smooth="yes"/>
      <point x="188" y="57"/>
      <point x="167" y="126"/>
      <point x="167" y="267" type="curve" smooth="yes"/>
      <point x="167" y="405"/>
      <point x="188" y="481"/>
      <point x="240" y="481" type="curve" smooth="yes"/>
      <point x="302" y="481"/>
      <point x="321" y="405"/>
      <point x="321" y="268" type="curve" smooth="yes"/>
      <point x="321" y="134"/>
      <point x="300" y="57"/>
    </contour>
  </outline>
</glyph>
<glyph name="e.mono" format="2">
  <advance width="500"/>
  <unicode hex="0065"/>
  <anchor x="260" y="0" name="bottom"/>
  <anchor x="258" y="10" name="ogonek"/>
  <anchor x="259" y="546" name="top"/>
  <anchor x="480" y="546" name="topright"/>
  <outline>
    <contour>
      <point x="276" y="-10" type="curve" smooth="yes"/>
      <point x="358" y="-10"/>
      <point x="411" y="11"/>
      <point x="438" y="28" type="curve"/>
      <point x="438" y="144" type="line"/>
      <point x="413" y="127"/>
      <point x="367" y="107"/>
      <point x="302" y="107" type="curve" smooth="yes"/>
      <point x="221" y="107"/>
      <point x="177" y="152"/>
      <point x="173" y="235" type="curve"/>
      <point x="465" y="235" type="line"/>
      <point x="465" y="311" type="line" smooth="yes"/>
      <point x="465" y="477"/>
      <point x="385" y="556"/>
      <point x="260" y="556" type="curve" smooth="yes"/>
      <point x="116" y="556"/>
      <point x="35" y="454"/>
      <point x="35" y="274" type="curve" smooth="yes"/>
      <point x="35" y="91"/>
      <point x="119" y="-10"/>
    </contour>
    <contour>
      <point x="333" y="331" type="curve"/>
      <point x="173" y="331" type="line"/>
      <point x="176" y="410"/>
      <point x="208" y="443"/>
      <point x="257" y="443" type="curve" smooth="yes"/>
      <point x="301" y="443"/>
      <point x="332" y="409"/>
    </contour>
  </outline>
</glyph>
<glyph name="e.serif" format="2">
  <advance width="469"/>
  <unicode hex="0065"/>
  <anchor x="245" y="0" name="bottom"/>
  <anchor x="245" y="536" name="top"/>
  <anchor x="449" y="536" name="topright"/>
  <outline>
    <contour>
      <point x="251" y="-10" type="curve" smooth="yes"/>
      <point x="371" y="-10"/>
      <point x="420" y="52"/>
      <point x="420" y="101" type="curve" smooth="yes"/>
      <point x="420" y="123"/>
      <point x="407" y="136"/>
      <point x="391" y="141" type="curve"/>
      <point x="372" y="95"/>
      <point x="339" y="57"/>
      <point x="283" y="57" type="curve" smooth="yes"/>
      <point x="209" y="57"/>
      <point x="170" y="120"/>
      <point x="168" y="260" type="curve"/>
      <point x="436" y="260" type="line"/>
      <point x="436" y="306" type="line" smooth="yes"/>
      <point x="436" y="464"/>
      <point x="362" y="548"/>
      <point x="242" y="548" type="curve" smooth="yes"/>
      <point x="112" y="548"/>
      <point x="37" y="452"/>
      <point x="37" y="264" type="curve" smooth="yes"/>
      <point x="37" y="90"/>
      <point x="109" y="-10"/>
    </contour>
    <contour>
      <point x="307" y="318" type="curve"/>
      <point x="170" y="318" type="line"/>
      <point x="171" y="428"/>
      <point x="200" y="489"/>
      <point x="245" y="489" type="curve" smooth="yes"/>
      <point x="290" y="489"/>
      <point x="308" y="422"/>
    </contour>
  </outline>
</glyph>
<glyph name="f.mono" format="2">
  <advance width="500"/>
  <unicode hex="0066"/>
  <anchor x="250" y="0" name="bottom"/>
  <anchor x="311" y="765" name="top"/>
  <anchor x="480" y="765" name="topright"/>
  <outline>
    <contour>
      <point x="165" y="0" type="line"/>
      <point x="293" y="0" type="line"/>
      <point x="293" y="432" type="line"/>
      <point x="440" y="432" type="line"/>
      <point x="440" y="546" type="line"/>
      <point x="293" y="546" type="line"/>
      <point x="293" y="573" type="line" smooth="yes"/>
      <point x="293" y="622"/>
      <point x="309" y="646"/>
      <point x="355" y="646" type="curve" smooth="yes"/>
      <point x="376" y="646"/>
      <point x="402" y="641"/>
      <point x="432" y="631" type="curve"/>
      <point x="470" y="742" type="line"/>
      <point x="423" y="757"/>
      <point x="382" y="765"/>
      <point x="330" y="765" type="curve" smooth="yes"/>
      <point x="208" y="765"/>
      <point x="165" y="709"/>
      <point x="165" y="582" type="curve" smooth="yes"/>
      <point x="165" y="546" type="line"/>
      <point x="40" y="509" type="line"/>
      <point x="40" y="432" type="line"/>
      <point x="165" y="432" type="line"/>
    </contour>
  </outline>
</glyph>
<glyph name="f.serif" format="2">
  <advance width="335"/>
  <unicode hex="0066"/>
  <anchor x="168" y="0" name="bottom"/>
  <anchor x="231" y="770" name="top"/>
  <anchor x="399" y="770" name="topright"/>
  <outline>
    <contour>
      <point x="15" y="0" type="line"/>
      <point x="316" y="0" type="line"/>
      <point x="316" y="49" type="line"/>
      <point x="277" y="49" type="line" smooth="yes"/>
      <point x="252" y="49"/>
      <point x="220" y="57"/>
      <point x="220" y="116" type="curve" smooth="yes"/>
      <point x="220" y="473" type="line"/>
      <point x="332" y="473" type="line"/>
      <point x="332" y="536" type="line"/>
      <point x="220" y="536" type="line"/>
      <point x="220" y="593" type="line" smooth="yes"/>
      <point x="220" y="679"/>
      <point x="234" y="716"/>
      <point x="264" y="716" type="curve" smooth="yes"/>
      <point x="294" y="716"/>
      <point x="301" y="667"/>
      <point x="301" y="632" type="curve"/>
      <point x="372" y="632"/>
      <point x="391" y="662"/>
      <point x="391" y="698" type="curve" smooth="yes"/>
      <point x="391" y="734"/>
      <point x="366" y="770"/>
      <point x="262" y="770" type="curve" smooth="yes"/>
      <point x="141" y="770"/>
      <point x="91" y="700"/>
      <point x="91" y="577" type="curve" smooth="yes"/>
      <point x="91" y="536" type="line"/>
      <point x="18" y="536" type="line"/>
      <point x="18" y="473" type="line"/>
      <point x="91" y="473" type="line"/>
      <point x="91" y="116" type="line" smooth="yes"/>
      <point x="91" y="57"/>
      <point x="56" y="49"/>
      <point x="34" y="49" type="curve" smooth="yes"/>
      <point x="15" y="49" type="line"/>
    </contour>
  </outline>
</glyph>
<glyph name="g.mono" format="2">
  <advance width="500"/>
  <unicode hex="0067"/>
  <anchor x="250" y="-245" name="bottom"/>
  <anchor x="250" y="546" name="top"/>
  <anchor x="480" y="546" name="topright"/>
  <outline>
    <contour>
      <point x="217" y="-245" type="curve" smooth="yes"/>
      <point x="385" y="-245"/>
      <point x="455" y="-159"/>
      <point x="455" y="-1" type="curve" smooth="yes"/>
      <point x="455" y="546" type="line"/>
      <point x="336" y="546" type="line"/>
      <point x="326" y="475" type="line"/>
      <point x="323" y="475" type="line"/>
      <point x="293" y="529"/>
      <point x="252" y="556"/>
      <point x="200" y="556" type="curve" smooth="yes"/>
      <point x="97" y="556"/>
      <point x="30" y="453"/>
      <point x="30" y="272" type="curve" smooth="yes"/>
      <point x="30" y="95"/>
      <point x="92" y="-10"/>
      <point x="199" y="-10" type="curve" smooth="yes"/>
      <point x="250" y="-10"/>
      <point x="288" y="14"/>
      <point x="317" y="70" type="curve"/>
      <point x="321" y="70" type="line"/>
      <point x="321" y="54"/>
      <point x="321" y="25"/>
      <point x="321" y="5" type="curve" smooth="yes"/>
      <point x="321" y="-9" type="line" smooth="yes"/>
      <point x="321" y="-89"/>
      <point x="286" y="-129"/>
      <point x="213" y="-129" type="curve" smooth="yes"/>
      <point x="165" y="-129"/>
      <point x="118" y="-115"/>
      <point x="57" y="-87" type="curve"/>
      <point x="57" y="-213" type="line"/>
      <point x="113" y="-237"/>
      <point x="166" y="-245"/>
    </contour>
    <contour>
      <point x="248" y="107" type="curve" smooth="yes"/>
      <point x="195" y="107"/>
      <point x="166" y="164"/>
      <point x="166" y="273" type="curve" smooth="yes"/>
      <point x="166" y="386"/>
      <point x="197" y="440"/>
      <point x="250" y="440" type="curve" smooth="yes"/>
      <point x="302" y="440"/>
      <point x="326" y="389"/>
      <point x="326" y="270" type="curve" smooth="yes"/>
      <point x="326" y="251" type="line" smooth="yes"/>
      <point x="326" y="147"/>
      <point x="292" y="107"/>
    </contour>
  </outline>
</glyph>
<glyph name="g.serif" format="2">
  <advance width="458"/>
  <unicode hex="0067"/>
  <anchor x="223" y="-236" name="bottom"/>
  <anchor x="216" y="536" name="top"/>
  <anchor x="462" y="536" name="topright"/>
  <outline>
    <contour>
      <point x="192" y="-236" type="curve" smooth="yes"/>
      <point x="355" y="-236"/>
      <point x="432" y="-164"/>
      <point x="432" y="-47" type="curve" smooth="yes"/>
      <point x="432" y="41"/>
      <point x="382" y="101"/>
      <point x="272" y="101" type="curve" smooth="yes"/>
      <point x="179" y="101" type="line" smooth="yes"/>
      <point x="154" y="101"/>
      <point x="136" y="112"/>
      <point x="136" y="139" type="curve" smooth="yes"/>
      <point x="136" y="164"/>
      <point x="151" y="185"/>
      <point x="164" y="195" type="curve"/>
      <point x="174" y="192"/>
      <point x="199" y="190"/>
      <point x="211" y="190" type="curve" smooth="yes"/>
      <point x="332" y="190"/>
      <point x="386" y="263"/>
      <point x="386" y="368" type="curve" smooth="yes"/>
      <point x="386" y="428"/>
      <point x="366" y="465"/>
      <point x="342" y="492" type="curve"/>
      <point x="350" y="498"/>
      <point x="359" y="504"/>
      <point x="372" y="504" type="curve" smooth="yes"/>
      <point x="385" y="504"/>
      <point x="401" y="489"/>
      <point x="401" y="461" type="curve"/>
      <point x="442" y="461"/>
      <point x="457" y="488"/>
      <point x="457" y="519" type="curve" smooth="yes"/>
      <point x="457" y="550"/>
      <point x="438" y="576"/>
      <point x="403" y="576" type="curve" smooth="yes"/>
      <point x="361" y="576"/>
      <point x="335" y="543"/>
      <point x="312" y="518" type="curve"/>
      <point x="284" y="537"/>
      <point x="254" y="548"/>
      <point x="211" y="548" type="curve" smooth="yes"/>
      <point x="89" y="548"/>
      <point x="33" y="480"/>
      <point x="33" y="363" type="curve" smooth="yes"/>
      <point x="33" y="287"/>
      <point x="71" y="232"/>
      <point x="124" y="210" type="curve"/>
      <point x="80" y="182"/>
      <point x="47" y="152"/>
      <point x="47" y="110" type="curve" smooth="yes"/>
      <point x="47" y="64"/>
      <point x="80" y="42"/>
      <point x="110" y="28" type="curve"/>
      <point x="46" y="19"/>
      <point x="-1" y="-25"/>
      <point x="-1" y="-97" type="curve" smooth="yes"/>
      <point x="-1" y="-186"/>
      <point x="63" y="-236"/>
    </contour>
    <contour>
      <point x="195" y="-180" type="curve" smooth="yes"/>
      <point x="137" y="-180"/>
      <point x="100" y="-147"/>
      <point x="100" y="-93" type="curve" smooth="yes"/>
      <point x="100" y="-27"/>
      <point x="139" y="-7"/>
      <point x="170" y="-7" type="curve" smooth="yes"/>
      <point x="266" y="-7" type="line" smooth="yes"/>
      <point x="309" y="-7"/>
      <point x="330" y="-29"/>
      <point x="330" y="-75" type="curve" smooth="yes"/>
      <point x="330" y="-137"/>
      <point x="287" y="-180"/>
    </contour>
    <contour>
      <point x="209" y="244" type="curve" smooth="yes"/>
      <point x="162" y="244"/>
      <point x="147" y="289"/>
      <point x="147" y="364" type="curve" smooth="yes"/>
      <point x="147" y="443"/>
      <point x="162" y="493"/>
      <point x="210" y="493" type="curve" smooth="yes"/>
      <point x="259" y="493"/>
      <point x="272" y="445"/>
      <point x="272" y="365" type="curve" smooth="yes"/>
      <point x="272" y="288"/>
      <point x="260" y="244"/>
    </contour>
  </outline>
</glyph>
<glyph name="h.mono" format="2">
  <advance width="500"/>
  <unicode hex="0068"/>
  <anchor x="250" y="0" name="bottom"/>
  <anchor x="250" y="273" name="center"/>
  <anchor x="112" y="760" name="top"/>
  <anchor x="480" y="760" name="topright"/>
  <outline>
    <contour>
      <point x="45" y="0" type="line"/>
      <point x="173" y="0" type="line"/>
      <point x="173" y="259" type="line" smooth="yes"/>
      <point x="173" y="376"/>
      <point x="191" y="440"/>
      <point x="262" y="440" type="curve" smooth="yes"/>
      <point x="320" y="440"/>
      <point x="332" y="398"/>
      <point x="332" y="323" type="curve" smooth="yes"/>
      <point x="332" y="0" type="line"/>
      <point x="460" y="0" type="line"/>
      <point x="460" y="355" type="line" smooth="yes"/>
      <point x="460" y="487"/>
      <point x="412" y="556"/>
      <point x="311" y="556" type="curve" smooth="yes"/>
      <point x="248" y="556"/>
      <point x="199" y="529"/>
      <point x="174" y="475" type="curve"/>
      <point x="165" y="475" type="line"/>
      <point x="170" y="515"/>
      <point x="173" y="555"/>
      <point x="173" y="594" type="curve" smooth="yes"/>
      <point x="173" y="760" type="line"/>
      <point x="45" y="760" type="line"/>
    </contour>
  </outline>
</glyph>
<glyph name="i.mono" format="2">
  <advance width="500"/>
  <unicode hex="0069"/>
  <anchor x="260" y="0" name="bottom"/>
  <anchor x="254" y="292" name="center"/>
  <anchor x="261" y="771" name="top"/>
  <anchor x="427" y="771" name="topright"/>
  <outline>
    <contour>
      <point x="55" y="0" type="line"/>
      <point x="445" y="0" type="line"/>
      <point x="445" y="95" type="line"/>
      <point x="323" y="107" type="line"/>
      <point x="323" y="546" type="line"/>
      <point x="73" y="546" type="line"/>
      <point x="73" y="450" type="line"/>
      <point x="195" y="440" type="line"/>
      <point x="195" y="107" type="line"/>
      <point x="55" y="95" type="line"/>
    </contour>
    <contour>
      <point x="256" y="617" type="curve" smooth="yes"/>
      <point x="311" y="617"/>
      <point x="334" y="645"/>
      <point x="334" y="694" type="curve" smooth="yes"/>
      <point x="334" y="744"/>
      <point x="309" y="771"/>
      <point x="256" y="771" type="curve" smooth="yes"/>
      <point x="204" y="771"/>
      <point x="177" y="744"/>
      <point x="177" y="694" type="curve" smooth="yes"/>
      <point x="177" y="643"/>
      <point x="208" y="617"/>
    </contour>
  </outline>
</glyph>
<glyph name="i.serif" format="2">
  <advance width="290"/>
  <unicode hex="0069"/>
  <anchor x="145" y="0" name="bottom"/>
  <anchor x="141" y="764" name="top"/>
  <anchor x="257" y="764" name="topright"/>
  <outline>
    <contour>
      <point x="13" y="0" type="line"/>
      <point x="275" y="0" type="line"/>
      <point x="275" y="49" type="line"/>
      <point x="266" y="49" type="line" smooth="yes"/>
      <point x="232" y="49"/>
      <point x="209" y="63"/>
      <point x="209" y="122" type="curve" smooth="yes"/>
      <point x="209" y="536" type="line"/>
      <point x="12" y="536" type="line"/>
      <point x="12" y="487" type="line"/>
      <point x="25" y="487" type="line" smooth="yes"/>
      <point x="58" y="487"/>
      <point x="80" y="473"/>
      <point x="80" y="418" type="curve" smooth="yes"/>
      <point x="80" y="121" type="line" smooth="yes"/>
      <point x="80" y="63"/>
      <point x="57" y="49"/>
      <point x="22" y="49" type="curve" smooth="yes"/>
      <point x="13" y="49" type="line"/>
    </contour>
    <contour>
      <point x="140" y="632" type="curve" smooth="yes"/>
      <point x="180" y="632"/>
      <point x="213" y="652"/>
      <point x="213" y="698" type="curve" smooth="yes"/>
      <point x="213" y="745"/>
      <point x="180" y="764"/>
      <point x="140" y="764" type="curve" smooth="yes"/>
      <point x="99" y="764"/>
      <point x="69" y="745"/>
      <point x="69" y="698" type="curve" smooth="yes"/>
      <point x="69" y="652"/>
      <point x="99" y="632"/>
    </contour>
  </outline>
</glyph>
<glyph name="j.mono" format="2">
  <advance width="500"/>
  <unicode hex="006A"/>
  <anchor x="164" y="-245" name="bottom"/>
  <anchor x="287" y="771" name="top"/>
  <anchor x="420" y="771" name="topright"/>
  <outline>
    <contour>
      <point x="164" y="-245" type="curve" smooth="yes"/>
      <point x="308" y="-245"/>
      <point x="363" y="-181"/>
      <point x="363" y="-44" type="curve" smooth="yes"/>
      <point x="363" y="546" type="line"/>
      <point x="84" y="546" type="line"/>
      <point x="84" y="450" type="line"/>
      <point x="235" y="440" type="line"/>
      <point x="235" y="-26" type="line" smooth="yes"/>
      <point x="235" y="-101"/>
      <point x="202" y="-129"/>
      <point x="138" y="-129" type="curve" smooth="yes"/>
      <point x="112" y="-129"/>
      <point x="73" y="-123"/>
      <point x="35" y="-111" type="curve"/>
      <point x="35" y="-224" type="line"/>
      <point x="79" y="-238"/>
      <point x="124" y="-245"/>
    </contour>
    <contour>
      <point x="287" y="617" type="curve" smooth="yes"/>
      <point x="342" y="617"/>
      <point x="365" y="645"/>
      <point x="365" y="694" type="curve" smooth="yes"/>
      <point x="365" y="744"/>
      <point x="340" y="771"/>
      <point x="287" y="771" type="curve" smooth="yes"/>
      <point x="235" y="771"/>
      <point x="208" y="744"/>
      <point x="208" y="694" type="curve" smooth="yes"/>
      <point x="208" y="643"/>
      <point x="239" y="617"/>
    </contour>
  </outline>
</glyph>
<glyph name="j.serif" format="2">
  <advance width="290"/>
  <unicode hex="006A"/>
  <anchor x="101" y="-240" name="bottom"/>
  <anchor x="146" y="764" name="top"/>
  <anchor x="266" y="764" name="topright"/>
  <outline>
    <contour>
      <point x="-14" y="-240" type="line"/>
      <point x="3" y="-240" type="line" smooth="yes"/>
      <point x="127" y="-240"/>
      <point x="214" y="-187"/>
      <point x="214" y="-8" type="curve" smooth="yes"/>
      <point x="214" y="536" type="line"/>
      <point x="17" y="536" type="line"/>
      <point x="17" y="487" type="line"/>
      <point x="22" y="487" type="line" smooth="yes"/>
      <point x="57" y="487"/>
      <point x="84" y="478"/>
      <point x="84" y="420" type="curve" smooth="yes"/>
      <point x="84" y="-3" type="line" smooth="yes"/>
      <point x="84" y="-141"/>
      <point x="52" y="-183"/>
      <point x="-8" y="-183" type="curve" smooth="yes"/>
      <point x="-14" y="-183" type="line"/>
    </contour>
    <contour>
      <point x="146" y="632" type="curve" smooth="yes"/>
      <point x="185" y="632"/>
      <point x="219" y="652"/>
      <point x="219" y="698" type="curve" smooth="yes"/>
      <point x="219" y="745"/>
      <point x="185" y="764"/>
      <point x="146" y="764" type="curve" smooth="yes"/>
      <point x="105" y="764"/>
      <point x="73" y="745"/>
      <point x="73" y="698" type="curve" smooth="yes"/>
      <point x="73" y="652"/>
      <point x="105" y="632"/>
    </contour>
  </outline>
</glyph>
<glyph name="k.mono" format="2">
  <advance width="500"/>
  <unicode hex="006B"/>
  <anchor x="264" y="0" name="bottom"/>
  <anchor x="280" y="760" name="top"/>
  <anchor x="390" y="860" name="topright"/>
  <outline>
    <contour>
      <point x="45" y="0" type="line"/>
      <point x="175" y="0" type="line"/>
      <point x="175" y="160" type="line"/>
      <point x="239" y="230" type="line"/>
      <point x="342" y="0" type="line"/>
      <point x="490" y="0" type="line"/>
      <point x="337" y="327" type="line"/>
      <point x="483" y="546" type="line"/>
      <point x="333" y="546" type="line"/>
      <point x="226" y="382" type="line" smooth="yes"/>
      <point x="205" y="349"/>
      <point x="187" y="325"/>
      <point x="171" y="300" type="curve"/>
      <point x="167" y="300" type="line"/>
      <point x="173" y="343"/>
      <point x="175" y="382"/>
      <point x="175" y="426" type="curve" smooth="yes"/>
      <point x="175" y="760" type="line"/>
      <point x="45" y="760" type="line"/>
    </contour>
  </outline>
</glyph>
<glyph name="k.serif" format="2">
  <advance width="524"/>
  <unicode hex="006B"/>
  <anchor x="262" y="0" name="bottom"/>
  <anchor x="140" y="760" name="top"/>
  <anchor x="390" y="890" name="topright"/>
  <outline>
    <contour>
      <point x="13" y="0" type="line"/>
      <point x="278" y="0" type="line"/>
      <point x="278" y="49" type="line"/>
      <point x="267" y="49" type="line" smooth="yes"/>
      <point x="245" y="49"/>
      <point x="211" y="57"/>
      <point x="211" y="115" type="curve" smooth="yes"/>
      <point x="211" y="195" type="line"/>
      <point x="246" y="248" type="line"/>
      <point x="314" y="105" type="line" smooth="yes"/>
      <point x="357" y="15"/>
      <point x="390" y="0"/>
      <point x="512" y="0" type="curve" smooth="yes"/>
      <point x="524" y="0" type="line"/>
      <point x="524" y="49" type="line"/>
      <point x="520" y="49" type="line" smooth="yes"/>
      <point x="494" y="49"/>
      <point x="472" y="79"/>
      <point x="442" y="134" type="curve" smooth="yes"/>
      <point x="334" y="334" type="line"/>
      <point x="380" y="400" type="line" smooth="yes"/>
      <point x="421" y="460"/>
      <point x="456" y="489"/>
      <point x="494" y="489" type="curve"/>
      <point x="494" y="536" type="line"/>
      <point x="288" y="536" type="line"/>
      <point x="288" y="489" type="line"/>
      <point x="314" y="489"/>
      <point x="330" y="478"/>
      <point x="330" y="461" type="curve" smooth="yes"/>
      <point x="330" y="451"/>
      <point x="328" y="434"/>
      <point x="306" y="405" type="curve" smooth="yes"/>
      <point x="207" y="263" type="line"/>
      <point x="208" y="273"/>
      <point x="211" y="342"/>
      <point x="211" y="377" type="curve" smooth="yes"/>
      <point x="211" y="760" type="line"/>
      <point x="13" y="760" type="line"/>
      <point x="13" y="711" type="line"/>
      <point x="24" y="711" type="line" smooth="yes"/>
      <point x="45" y="711"/>
      <point x="81" y="703"/>
      <point x="81" y="648" type="curve" smooth="yes"/>
      <point x="81" y="116" type="line" smooth="yes"/>
      <point x="81" y="57"/>
      <point x="46" y="49"/>
      <point x="24" y="49" type="curve" smooth="yes"/>
      <point x="13" y="49" type="line"/>
    </contour>
  </outline>
</glyph>
<glyph name="l.mono" format="2">
  <advance width="500"/>
  <unicode hex="006C"/>
  <anchor x="258" y="0" name="bottom"/>
  <anchor x="258" y="370" name="center"/>
  <anchor x="250" y="760" name="top"/>
  <anchor x="426" y="760" name="topright"/>
  <outline>
    <contour>
      <point x="55" y="0" type="line"/>
      <point x="445" y="0" type="line"/>
      <point x="445" y="95" type="line"/>
      <point x="320" y="107" type="line"/>
      <point x="320" y="760" type="line"/>
      <point x="82" y="760" type="line"/>
      <point x="82" y="664" type="line"/>
      <point x="192" y="654" type="line"/>
      <point x="192" y="107" type="line"/>
      <point x="55" y="95" type="line"/>
    </contour>
  </outline>
</glyph>
<glyph name="l.serif" format="2">
  <advance width="290"/>
  <unicode hex="006C"/>
  <anchor x="146" y="0" name="bottom"/>
  <anchor x="146" y="268" name="center"/>
  <anchor x="146" y="760" name="top"/>
  <anchor x="264" y="760" name="topright"/>
  <outline>
    <contour>
      <point x="14" y="0" type="line"/>
      <point x="276" y="0" type="line"/>
      <point x="276" y="49" type="line"/>
      <point x="267" y="49" type="line" smooth="yes"/>
      <point x="233" y="49"/>
      <point x="210" y="63"/>
      <point x="210" y="122" type="curve" smooth="yes"/>
      <point x="210" y="760" type="line"/>
      <point x="14" y="760" type="line"/>
      <point x="14" y="711" type="line"/>
      <point x="24" y="711" type="line" smooth="yes"/>
      <point x="45" y="711"/>
      <point x="80" y="703"/>
      <point x="80" y="648" type="curve" smooth="yes"/>
      <point x="80" y="122" type="line" smooth="yes"/>
      <point x="80" y="63"/>
      <point x="57" y="49"/>
      <point x="24" y="49" type="curve" smooth="yes"/>
      <point x="14" y="49" type="line"/>
    </contour>
  </outline>
</glyph>
<glyph name="m.mono" format="2">
  <advance width="500"/>
  <unicode hex="006D"/>
  <anchor x="257" y="0" name="bottom"/>
  <anchor x="280" y="546" name="top"/>
  <anchor x="480" y="546" name="topright"/>
  <outline>
    <contour>
      <point x="15" y="0" type="line"/>
      <point x="127" y="0" type="line"/>
      <point x="127" y="352" type="line" smooth="yes"/>
      <point x="127" y="415"/>
      <point x="131" y="450"/>
      <point x="167" y="450" type="curve" smooth="yes"/>
      <point x="190" y="450"/>
      <point x="194" y="432"/>
      <point x="194" y="382" type="curve" smooth="yes"/>
      <point x="194" y="0" type="line"/>
      <point x="306" y="0" type="line"/>
      <point x="306" y="362" type="line" smooth="yes"/>
      <point x="306" y="425"/>
      <point x="311" y="450"/>
      <point x="345" y="450" type="curve" smooth="yes"/>
      <point x="369" y="450"/>
      <point x="373" y="429"/>
      <point x="373" y="382" type="curve" smooth="yes"/>
      <point x="373" y="0" type="line"/>
      <point x="485" y="0" type="line"/>
      <point x="485" y="417" type="line" smooth="yes"/>
      <point x="485" y="519"/>
      <point x="464" y="556"/>
      <point x="396" y="556" type="curve" smooth="yes"/>
      <point x="341" y="556"/>
      <point x="316" y="523"/>
      <point x="302" y="484" type="curve"/>
      <point x="297" y="484" type="line"/>
      <point x="289" y="520"/>
      <point x="272" y="556"/>
      <point x="220" y="556" type="curve" smooth="yes"/>
      <point x="172" y="556"/>
      <point x="146" y="532"/>
      <point x="130" y="484" type="curve"/>
      <point x="122" y="484" type="line"/>
      <point x="108" y="546" type="line"/>
      <point x="15" y="546" type="line"/>
    </contour>
  </outline>
</glyph>
<glyph name="n.mono" format="2">
  <advance width="500"/>
  <unicode hex="006E"/>
  <anchor x="255" y="0" name="bottom"/>
  <anchor x="260" y="546" name="top"/>
  <anchor x="480" y="546" name="topright"/>
  <outline>
    <contour>
      <point x="45" y="0" type="line"/>
      <point x="173" y="0" type="line"/>
      <point x="173" y="288" type="line" smooth="yes"/>
      <point x="173" y="396"/>
      <point x="195" y="445"/>
      <point x="261" y="445" type="curve" smooth="yes"/>
      <point x="311" y="445"/>
      <point x="332" y="411"/>
      <point x="332" y="335" type="curve" smooth="yes"/>
      <point x="332" y="0" type="line"/>
      <point x="460" y="0" type="line"/>
      <point x="460" y="371" type="line" smooth="yes"/>
      <point x="460" y="498"/>
      <point x="409" y="556"/>
      <point x="308" y="556" type="curve" smooth="yes"/>
      <point x="237" y="556"/>
      <point x="198" y="528"/>
      <point x="173" y="483" type="curve"/>
      <point x="167" y="483" type="line"/>
      <point x="148" y="546" type="line"/>
      <point x="45" y="546" type="line"/>
    </contour>
  </outline>
</glyph>
<glyph name="n.serif" format="2">
  <advance width="546"/>
  <unicode hex="006E"/>
  <anchor x="273" y="0" name="bottom"/>
  <anchor x="294" y="536" name="top"/>
  <anchor x="526" y="536" name="topright"/>
  <outline>
    <contour>
      <point x="15" y="0" type="line"/>
      <point x="269" y="0" type="line"/>
      <point x="269" y="49" type="line"/>
      <point x="265" y="49" type="line" smooth="yes"/>
      <point x="229" y="49"/>
      <point x="209" y="58"/>
      <point x="209" y="115" type="curve" smooth="yes"/>
      <point x="209" y="313" type="line" smooth="yes"/>
      <point x="209" y="394"/>
      <point x="226" y="471"/>
      <point x="281" y="471" type="curve" smooth="yes"/>
      <point x="326" y="471"/>
      <point x="339" y="420"/>
      <point x="339" y="335" type="curve" smooth="yes"/>
      <point x="339" y="0" type="line"/>
      <point x="525" y="0" type="line"/>
      <point x="525" y="49" type="line"/>
      <point x="521" y="49" type="line" smooth="yes"/>
      <point x="485" y="49"/>
      <point x="468" y="58"/>
      <point x="468" y="120" type="curve" smooth="yes"/>
      <point x="468" y="354" type="line" smooth="yes"/>
      <point x="468" y="489"/>
      <point x="422" y="548"/>
      <point x="335" y="548" type="curve" smooth="yes"/>
      <point x="268" y="548"/>
      <point x="234" y="518"/>
      <point x="210" y="461" type="curve"/>
      <point x="206" y="461" type="line"/>
      <point x="196" y="536" type="line"/>
      <point x="19" y="536" type="line"/>
      <point x="19" y="487" type="line"/>
      <point x="23" y="487" type="line" smooth="yes"/>
      <point x="58" y="487"/>
      <point x="80" y="478"/>
      <point x="80" y="421" type="curve" smooth="yes"/>
      <point x="80" y="119" type="line" smooth="yes"/>
      <point x="80" y="58"/>
      <point x="57" y="49"/>
      <point x="20" y="49" type="curve" smooth="yes"/>
      <point x="15" y="49" type="line"/>
    </contour>
  </outline>
</glyph>
<glyph name="o.mono" format="2">
  <advance width="500"/>
  <unicode hex="006F"/>
  <anchor x="250" y="0" name="bottom"/>
  <anchor x="250" y="273" name="center"/>
  <anchor x="245" y="10" name="ogonek"/>
  <anchor x="250" y="546" name="top"/>
  <anchor x="480" y="546" name="topright"/>
  <outline>
    <contour>
      <point x="256" y="-9" type="curve" smooth="yes"/>
      <point x="408" y="-9"/>
      <point x="470" y="111"/>
      <point x="470" y="268" type="curve" smooth="yes"/>
      <point x="470" y="457"/>
      <point x="385" y="557"/>
      <point x="250" y="557" type="curve" smooth="yes"/>
      <point x="98" y="557"/>
      <point x="30" y="430"/>
      <point x="30" y="277" type="curve" smooth="yes"/>
      <point x="30" y="119"/>
      <point x="98" y="-9"/>
    </contour>
    <contour>
      <point x="253" y="108" type="curve" smooth="yes"/>
      <point x="186" y="108"/>
      <point x="162" y="164"/>
      <point x="162" y="272" type="curve" smooth="yes"/>
      <point x="162" y="378"/>
      <point x="185" y="440"/>
      <point x="252" y="440" type="curve" smooth="yes"/>
      <point x="314" y="440"/>
      <point x="338" y="388"/>
      <point x="338" y="271" type="curve" smooth="yes"/>
      <point x="338" y="156"/>
      <point x="315" y="108"/>
    </contour>
  </outline>
</glyph>
<glyph name="o.serif" format="2">
  <advance width="503"/>
  <unicode hex="006F"/>
  <anchor x="252" y="0" name="bottom"/>
  <anchor x="252" y="268" name="center"/>
  <anchor x="252" y="536" name="top"/>
  <anchor x="490" y="536" name="topright"/>
  <outline>
    <contour>
      <point x="250" y="-10" type="curve" smooth="yes"/>
      <point x="392" y="-10"/>
      <point x="465" y="81"/>
      <point x="465" y="269" type="curve" smooth="yes"/>
      <point x="465" y="457"/>
      <point x="385" y="548"/>
      <point x="253" y="548" type="curve" smooth="yes"/>
      <point x="111" y="548"/>
      <point x="37" y="457"/>
      <point x="37" y="269" type="curve" smooth="yes"/>
      <point x="37" y="81"/>
      <point x="118" y="-10"/>
    </contour>
    <contour>
      <point x="252" y="49" type="curve" smooth="yes"/>
      <point x="192" y="49"/>
      <point x="170" y="125"/>
      <point x="170" y="269" type="curve" smooth="yes"/>
      <point x="170" y="414"/>
      <point x="191" y="488"/>
      <point x="251" y="488" type="curve" smooth="yes"/>
      <point x="312" y="488"/>
      <point x="333" y="414"/>
      <point x="333" y="269" type="curve" smooth="yes"/>
      <point x="333" y="125"/>
      <point x="313" y="49"/>
    </contour>
  </outline>
</glyph>
<glyph name="p.serif" format="2">
  <advance width="529"/>
  <unicode hex="0070"/>
  <anchor x="149" y="-230" name="bottom"/>
  <anchor x="265" y="536" name="top"/>
  <anchor x="516" y="536" name="topright"/>
  <outline>
    <contour>
      <point x="10" y="-230" type="line"/>
      <point x="287" y="-230" type="line"/>
      <point x="287" y="-180" type="line"/>
      <point x="263" y="-180" type="line" smooth="yes"/>
      <point x="241" y="-180"/>
      <point x="207" y="-172"/>
      <point x="207" y="-114" type="curve" smooth="yes"/>
      <point x="207" y="-47" type="line" smooth="yes"/>
      <point x="207" y="-4"/>
      <point x="206" y="35"/>
      <point x="204" y="65" type="curve"/>
      <point x="208" y="65" type="line"/>
      <point x="231" y="18"/>
      <point x="266" y="-11"/>
      <point x="322" y="-11" type="curve" smooth="yes"/>
      <point x="433" y="-11"/>
      <point x="491" y="74"/>
      <point x="491" y="267" type="curve" smooth="yes"/>
      <point x="491" y="461"/>
      <point x="432" y="546"/>
      <point x="324" y="546" type="curve" smooth="yes"/>
      <point x="261" y="546"/>
      <point x="223" y="509"/>
      <point x="200" y="458" type="curve"/>
      <point x="196" y="458" type="line"/>
      <point x="181" y="536" type="line"/>
      <point x="19" y="536" type="line"/>
      <point x="19" y="487" type="line"/>
      <point x="25" y="487" type="line" smooth="yes"/>
      <point x="55" y="487"/>
      <point x="76" y="478"/>
      <point x="76" y="417" type="curve" smooth="yes"/>
      <point x="76" y="-113" type="line" smooth="yes"/>
      <point x="76" y="-172"/>
      <point x="42" y="-180"/>
      <point x="20" y="-180" type="curve" smooth="yes"/>
      <point x="10" y="-180" type="line"/>
    </contour>
    <contour>
      <point x="286" y="54" type="curve" smooth="yes"/>
      <point x="224" y="54"/>
      <point x="207" y="127"/>
      <point x="207" y="269" type="curve" smooth="yes"/>
      <point x="207" y="400"/>
      <point x="224" y="480"/>
      <point x="288" y="480" type="curve" smooth="yes"/>
      <point x="339" y="480"/>
      <point x="360" y="404"/>
      <point x="360" y="268" type="curve" smooth="yes"/>
      <point x="360" y="128"/>
      <point x="339" y="54"/>
    </contour>
  </outline>
</glyph>
<glyph name="q.serif" format="2">
  <advance width="531"/>
  <unicode hex="0071"/>
  <anchor x="389" y="-230" name="bottom"/>
  <anchor x="266" y="536" name="top"/>
  <anchor x="528" y="536" name="topright"/>
  <outline>
    <contour>
      <point x="234" y="-230" type="line"/>
      <point x="520" y="-230" type="line"/>
      <point x="520" y="-180" type="line"/>
      <point x="517" y="-180" type="line" smooth="yes"/>
      <point x="481" y="-180"/>
      <point x="451" y="-172"/>
      <point x="451" y="-116" type="curve" smooth="yes"/>
      <point x="451" y="416" type="line" smooth="yes"/>
      <point x="451" y="478"/>
      <point x="481" y="487"/>
      <point x="516" y="487" type="curve" smooth="yes"/>
      <point x="521" y="487" type="line"/>
      <point x="521" y="536" type="line"/>
      <point x="352" y="536" type="line"/>
      <point x="336" y="458" type="line"/>
      <point x="332" y="458" type="line"/>
      <point x="307" y="511"/>
      <point x="266" y="546"/>
      <point x="209" y="546" type="curve" smooth="yes"/>
      <point x="96" y="546"/>
      <point x="36" y="460"/>
      <point x="36" y="268" type="curve" smooth="yes"/>
      <point x="36" y="75"/>
      <point x="96" y="-10"/>
      <point x="199" y="-10" type="curve" smooth="yes"/>
      <point x="262" y="-10"/>
      <point x="297" y="24"/>
      <point x="321" y="76" type="curve"/>
      <point x="325" y="76" type="line"/>
      <point x="324" y="48"/>
      <point x="321" y="-4"/>
      <point x="321" y="-45" type="curve" smooth="yes"/>
      <point x="321" y="-115" type="line" smooth="yes"/>
      <point x="321" y="-172"/>
      <point x="291" y="-180"/>
      <point x="256" y="-180" type="curve" smooth="yes"/>
      <point x="234" y="-180" type="line"/>
    </contour>
    <contour>
      <point x="240" y="56" type="curve" smooth="yes"/>
      <point x="188" y="56"/>
      <point x="167" y="128"/>
      <point x="167" y="267" type="curve" smooth="yes"/>
      <point x="167" y="413"/>
      <point x="188" y="479"/>
      <point x="240" y="479" type="curve" smooth="yes"/>
      <point x="302" y="479"/>
      <point x="321" y="408"/>
      <point x="321" y="267" type="curve" smooth="yes"/>
      <point x="321" y="128"/>
      <point x="298" y="56"/>
    </contour>
  </outline>
</glyph>
<glyph name="r.mono" format="2">
  <advance width="500"/>
  <unicode hex="0072"/>
  <anchor x="201" y="0" name="bottom"/>
  <anchor x="269" y="546" name="top"/>
  <anchor x="480" y="546" name="topright"/>
  <outline>
    <contour>
      <point x="26" y="0" type="line"/>
      <point x="386" y="0" type="line"/>
      <point x="386" y="95" type="line"/>
      <point x="264" y="107" type="line"/>
      <point x="264" y="267" type="line" smooth="yes"/>
      <point x="264" y="367"/>
      <point x="311" y="428"/>
      <point x="392" y="428" type="curve" smooth="yes"/>
      <point x="418" y="428"/>
      <point x="441" y="423"/>
      <point x="461" y="413" type="curve"/>
      <point x="496" y="537" type="line"/>
      <point x="464" y="551"/>
      <point x="431" y="556"/>
      <point x="394" y="556" type="curve" smooth="yes"/>
      <point x="317" y="556"/>
      <point x="284" y="512"/>
      <point x="260" y="452" type="curve"/>
      <point x="254" y="452" type="line"/>
      <point x="230" y="546" type="line"/>
      <point x="34" y="546" type="line"/>
      <point x="34" y="450" type="line"/>
      <point x="136" y="440" type="line"/>
      <point x="136" y="107" type="line"/>
      <point x="26" y="95" type="line"/>
    </contour>
  </outline>
</glyph>
<glyph name="r.serif" format="2">
  <advance width="431"/>
  <unicode hex="0072"/>
  <anchor x="152" y="0" name="bottom"/>
  <anchor x="222" y="536" name="top"/>
  <anchor x="428" y="536" name="topright"/>
  <outline>
    <contour>
      <point x="15" y="0" type="line"/>
      <point x="290" y="0" type="line"/>
      <point x="290" y="49" type="line"/>
      <point x="264" y="49" type="line" smooth="yes"/>
      <point x="232" y="49"/>
      <point x="210" y="57"/>
      <point x="210" y="116" type="curve" smooth="yes"/>
      <point x="210" y="276" type="line" smooth="yes"/>
      <point x="210" y="364"/>
      <point x="233" y="462"/>
      <point x="276" y="462" type="curve" smooth="yes"/>
      <point x="307" y="462"/>
      <point x="314" y="435"/>
      <point x="314" y="380" type="curve"/>
      <point x="380" y="380"/>
      <point x="419" y="407"/>
      <point x="419" y="462" type="curve" smooth="yes"/>
      <point x="419" y="512"/>
      <point x="393" y="547"/>
      <point x="333" y="547" type="curve" smooth="yes"/>
      <point x="268" y="547"/>
      <point x="232" y="504"/>
      <point x="207" y="434" type="curve"/>
      <point x="203" y="434" type="line"/>
      <point x="187" y="536" type="line"/>
      <point x="19" y="536" type="line"/>
      <point x="19" y="487" type="line"/>
      <point x="22" y="487" type="line" smooth="yes"/>
      <point x="58" y="487"/>
      <point x="79" y="478"/>
      <point x="79" y="419" type="curve" smooth="yes"/>
      <point x="79" y="121" type="line" smooth="yes"/>
      <point x="79" y="58"/>
      <point x="55" y="49"/>
      <point x="18" y="49" type="curve" smooth="yes"/>
      <point x="15" y="49" type="line"/>
    </contour>
  </outline>
</glyph>
<glyph name="s.mono" format="2">
  <advance width="500"/>
  <unicode hex="0073"/>
  <anchor x="256" y="0" name="bottom"/>
  <anchor x="256" y="546" name="top"/>
  <anchor x="480" y="546" name="topright"/>
  <outline>
    <contour>
      <point x="220" y="-10" type="curve" smooth="yes"/>
      <point x="365" y="-10"/>
      <point x="440" y="52"/>
      <point x="440" y="157" type="curve" smooth="yes"/>
      <point x="440" y="241"/>
      <point x="392" y="282"/>
      <point x="311" y="318" type="curve" smooth="yes"/>
      <point x="214" y="361"/>
      <point x="190" y="372"/>
      <point x="190" y="401" type="curve" smooth="yes"/>
      <point x="190" y="432"/>
      <point x="216" y="446"/>
      <point x="261" y="446" type="curve" smooth="yes"/>
      <point x="301" y="446"/>
      <point x="348" y="435"/>
      <point x="388" y="414" type="curve"/>
      <point x="428" y="514" type="line"/>
      <point x="373" y="543"/>
      <point x="319" y="556"/>
      <point x="259" y="556" type="curve" smooth="yes"/>
      <point x="138" y="556"/>
      <point x="60" y="501"/>
      <point x="60" y="398" type="curve" smooth="yes"/>
      <point x="60" y="316"/>
      <point x="109" y="281"/>
      <point x="185" y="242" type="curve" smooth="yes"/>
      <point x="263" y="202"/>
      <point x="310" y="190"/>
      <point x="310" y="151" type="curve" smooth="yes"/>
      <point x="310" y="120"/>
      <point x="282" y="101"/>
      <point x="228" y="101" type="curve" smooth="yes"/>
      <point x="178" y="101"/>
      <point x="112" y="117"/>
      <point x="65" y="141" type="curve"/>
      <point x="65" y="22" type="line"/>
      <point x="113" y="-1"/>
      <point x="165" y="-10"/>
    </contour>
  </outline>
</glyph>
<glyph name="s.serif" format="2">
  <advance width="394"/>
  <unicode hex="0073"/>
  <anchor x="197" y="0" name="bottom"/>
  <anchor x="197" y="536" name="top"/>
  <anchor x="370" y="536" name="topright"/>
  <outline>
    <contour>
      <point x="189.99" y="-10" type="curve" smooth="yes"/>
      <point x="306" y="-10"/>
      <point x="369" y="55"/>
      <point x="369" y="156" type="curve" smooth="yes"/>
      <point x="369" y="249"/>
      <point x="317" y="289"/>
      <point x="231" y="327" type="curve" smooth="yes"/>
      <point x="156" y="360"/>
      <point x="133" y="379"/>
      <point x="133" y="427" type="curve" smooth="yes"/>
      <point x="133" y="468"/>
      <point x="158" y="493"/>
      <point x="197" y="493" type="curve" smooth="yes"/>
      <point x="243" y="493"/>
      <point x="276" y="457"/>
      <point x="276" y="389" type="curve"/>
      <point x="328" y="389"/>
      <point x="352" y="412"/>
      <point x="352" y="452" type="curve" smooth="yes"/>
      <point x="352" y="502"/>
      <point x="309" y="547"/>
      <point x="208" y="547" type="curve" smooth="yes"/>
      <point x="103" y="547"/>
      <point x="33" y="495"/>
      <point x="33" y="394" type="curve" smooth="yes"/>
      <point x="33" y="302"/>
      <point x="78" y="263"/>
      <point x="175" y="219" type="curve" smooth="yes"/>
      <point x="242" y="188"/>
      <point x="269" y="166"/>
      <point x="269" y="122" type="curve" smooth="yes"/>
      <point x="269" y="76"/>
      <point x="247" y="45"/>
      <point x="192" y="45" type="curve" smooth="yes"/>
      <point x="134" y="45"/>
      <point x="99" y="90"/>
      <point x="99" y="170" type="curve"/>
      <point x="59" y="170"/>
      <point x="25" y="151"/>
      <point x="25" y="100" type="curve" smooth="yes"/>
      <point x="25" y="32"/>
      <point x="72" y="-10"/>
    </contour>
  </outline>
</glyph>
<glyph name="t.mono" format="2">
  <advance width="500"/>
  <unicode hex="0074"/>
  <anchor x="308" y="0" name="bottom"/>
  <anchor x="205" y="282" name="center"/>
  <anchor x="230" y="682" name="top"/>
  <anchor x="400" y="860" name="topright"/>
  <outline>
    <contour>
      <point x="316" y="-10" type="curve" smooth="yes"/>
      <point x="366" y="-10"/>
      <point x="418" y="-1"/>
      <point x="465" y="14" type="curve"/>
      <point x="465" y="129" type="line"/>
      <point x="419" y="115"/>
      <point x="380" y="109"/>
      <point x="349" y="109" type="curve" smooth="yes"/>
      <point x="291" y="109"/>
      <point x="266" y="129"/>
      <point x="266" y="192" type="curve" smooth="yes"/>
      <point x="266" y="432" type="line"/>
      <point x="462" y="432" type="line"/>
      <point x="462" y="546" type="line"/>
      <point x="270" y="546" type="line"/>
      <point x="270" y="682" type="line"/>
      <point x="190" y="682" type="line"/>
      <point x="152" y="546" type="line"/>
      <point x="30" y="500" type="line"/>
      <point x="30" y="432" type="line"/>
      <point x="138" y="432" type="line"/>
      <point x="138" y="182" type="line" smooth="yes"/>
      <point x="138" y="54"/>
      <point x="186" y="-10"/>
    </contour>
  </outline>
</glyph>
<glyph name="t.serif" format="2">
  <advance width="336"/>
  <unicode hex="0074"/>
  <anchor x="205" y="0" name="bottom"/>
  <anchor x="159" y="268" name="center"/>
  <anchor x="167" y="659" name="top"/>
  <anchor x="210" y="990" name="topright"/>
  <outline>
    <contour>
      <point x="206" y="-10" type="curve" smooth="yes"/>
      <point x="262" y="-10"/>
      <point x="301" y="3"/>
      <point x="320" y="12" type="curve"/>
      <point x="320" y="73" type="line"/>
      <point x="302" y="67"/>
      <point x="282" y="64"/>
      <point x="260" y="64" type="curve" smooth="yes"/>
      <point x="221" y="64"/>
      <point x="208" y="91"/>
      <point x="208" y="155" type="curve" smooth="yes"/>
      <point x="208" y="478" type="line"/>
      <point x="312" y="478" type="line"/>
      <point x="312" y="536" type="line"/>
      <point x="208" y="536" type="line"/>
      <point x="208" y="659" type="line"/>
      <point x="136" y="659" type="line"/>
      <point x="128" y="610"/>
      <point x="115" y="583"/>
      <point x="100" y="563" type="curve" smooth="yes"/>
      <point x="83" y="542"/>
      <point x="57" y="524"/>
      <point x="17" y="521" type="curve"/>
      <point x="17" y="478" type="line"/>
      <point x="78" y="478" type="line"/>
      <point x="78" y="147" type="line" smooth="yes"/>
      <point x="78" y="30"/>
      <point x="125" y="-10"/>
    </contour>
  </outline>
</glyph>
<glyph name="u.mono" format="2">
  <advance width="500"/>
  <unicode hex="0075"/>
  <anchor x="250" y="0" name="bottom"/>
  <anchor x="450" y="10" name="ogonek"/>
  <anchor x="250" y="546" name="top"/>
  <anchor x="480" y="546" name="topright"/>
  <outline>
    <contour>
      <point x="188" y="-10" type="curve" smooth="yes"/>
      <point x="256" y="-10"/>
      <point x="297" y="18"/>
      <point x="325" y="70" type="curve"/>
      <point x="333" y="70" type="line"/>
      <point x="352" y="0" type="line"/>
      <point x="455" y="0" type="line"/>
      <point x="455" y="546" type="line"/>
      <point x="327" y="546" type="line"/>
      <point x="327" y="290" type="line" smooth="yes"/>
      <point x="327" y="170"/>
      <point x="312" y="107"/>
      <point x="244" y="107" type="curve" smooth="yes"/>
      <point x="183" y="107"/>
      <point x="168" y="148"/>
      <point x="168" y="226" type="curve" smooth="yes"/>
      <point x="168" y="546" type="line"/>
      <point x="40" y="546" type="line"/>
      <point x="40" y="190" type="line" smooth="yes"/>
      <point x="40" y="58"/>
      <point x="82" y="-10"/>
    </contour>
  </outline>
</glyph>
<glyph name="v.serif" format="2">
  <advance width="497"/>
  <unicode hex="0076"/>
  <anchor x="255" y="0" name="bottom"/>
  <anchor x="285" y="536" name="top"/>
  <anchor x="500" y="536" name="topright"/>
  <outline>
    <contour>
      <point x="67" y="437" type="curve" smooth="yes"/>
      <point x="196" y="0" type="line"/>
      <point x="312" y="0" type="line"/>
      <point x="428" y="412" type="line" smooth="yes"/>
      <point x="444" y="471"/>
      <point x="455" y="487"/>
      <point x="480" y="487" type="curve" smooth="yes"/>
      <point x="497" y="487" type="line"/>
      <point x="497" y="536" type="line"/>
      <point x="320" y="536" type="line"/>
      <point x="320" y="487" type="line"/>
      <point x="334" y="487" type="line" smooth="yes"/>
      <point x="360" y="487"/>
      <point x="372" y="474"/>
      <point x="372" y="455" type="curve" smooth="yes"/>
      <point x="372" y="434"/>
      <point x="368" y="418"/>
      <point x="360" y="390" type="curve" smooth="yes"/>
      <point x="310" y="201" type="line" smooth="yes"/>
      <point x="298" y="159"/>
      <point x="291" y="119"/>
      <point x="286" y="93" type="curve"/>
      <point x="281" y="126"/>
      <point x="271" y="174"/>
      <point x="259" y="219" type="curve" smooth="yes"/>
      <point x="206" y="405" type="line" smooth="yes"/>
      <point x="202" y="421"/>
      <point x="198" y="437"/>
      <point x="198" y="454" type="curve" smooth="yes"/>
      <point x="198" y="474"/>
      <point x="208" y="487"/>
      <point x="235" y="487" type="curve" smooth="yes"/>
      <point x="257" y="487" type="line"/>
      <point x="257" y="536" type="line"/>
      <point x="5" y="536" type="line"/>
      <point x="5" y="487" type="line"/>
      <point x="41" y="487"/>
      <point x="55" y="477"/>
    </contour>
  </outline>
</glyph>
<glyph name="w.mono" format="2">
  <advance width="500"/>
  <unicode hex="0077"/>
  <anchor x="250" y="0" name="bottom"/>
  <anchor x="250" y="546" name="top"/>
  <anchor x="480" y="546" name="topright"/>
  <outline>
    <contour>
      <point x="69" y="0" type="line"/>
      <point x="200" y="0" type="line"/>
      <point x="235" y="226" type="line" smooth="yes"/>
      <point x="239" y="254"/>
      <point x="241" y="278"/>
      <point x="245" y="311" type="curve"/>
      <point x="250" y="311" type="line"/>
      <point x="254" y="278"/>
      <point x="257" y="256"/>
      <point x="262" y="225" type="curve" smooth="yes"/>
      <point x="297" y="0" type="line"/>
      <point x="427" y="0" type="line"/>
      <point x="501" y="546" type="line"/>
      <point x="392" y="546" type="line"/>
      <point x="367" y="268" type="line" smooth="yes"/>
      <point x="363" y="225"/>
      <point x="363" y="181"/>
      <point x="360" y="145" type="curve"/>
      <point x="355" y="145" type="line"/>
      <point x="350" y="182"/>
      <point x="344" y="229"/>
      <point x="337" y="271" type="curve" smooth="yes"/>
      <point x="307" y="462" type="line"/>
      <point x="194" y="462" type="line"/>
      <point x="162" y="271" type="line" smooth="yes"/>
      <point x="154" y="226"/>
      <point x="148" y="184"/>
      <point x="144" y="145" type="curve"/>
      <point x="139" y="145" type="line"/>
      <point x="137" y="183"/>
      <point x="137" y="222"/>
      <point x="133" y="268" type="curve" smooth="yes"/>
      <point x="110" y="546" type="line"/>
      <point x="1" y="546" type="line"/>
    </contour>
  </outline>
</glyph>
<glyph name="w.serif" format="2">
  <advance width="697"/>
  <unicode hex="0077"/>
  <anchor x="349" y="0" name="bottom"/>
  <anchor x="370" y="536" name="top"/>
  <anchor x="704" y="536" name="topright"/>
  <outline>
    <contour>
      <point x="58" y="434" type="curve" smooth="yes"/>
      <point x="163" y="0" type="line"/>
      <point x="254" y="0" type="line"/>
      <point x="344" y="360" type="line"/>
      <point x="430" y="0" type="line"/>
      <point x="521" y="0" type="line"/>
      <point x="627" y="409" type="line" smooth="yes"/>
      <point x="643" y="474"/>
      <point x="656" y="487"/>
      <point x="688" y="487" type="curve" smooth="yes"/>
      <point x="698" y="487" type="line"/>
      <point x="698" y="536" type="line"/>
      <point x="512" y="536" type="line"/>
      <point x="512" y="487" type="line"/>
      <point x="518" y="487" type="line" smooth="yes"/>
      <point x="552" y="487"/>
      <point x="569" y="472"/>
      <point x="569" y="438" type="curve" smooth="yes"/>
      <point x="569" y="427"/>
      <point x="566" y="405"/>
      <point x="562" y="388" type="curve" smooth="yes"/>
      <point x="527" y="236" type="line" smooth="yes"/>
      <point x="516" y="190"/>
      <point x="510" y="150"/>
      <point x="506" y="119" type="curve"/>
      <point x="503" y="119" type="line"/>
      <point x="501" y="146"/>
      <point x="491" y="202"/>
      <point x="482" y="237" type="curve" smooth="yes"/>
      <point x="405" y="532" type="line"/>
      <point x="352" y="532" type="line"/>
      <point x="269" y="241" type="line" smooth="yes"/>
      <point x="259" y="204"/>
      <point x="247" y="151"/>
      <point x="243" y="119" type="curve"/>
      <point x="240" y="119" type="line"/>
      <point x="236" y="150"/>
      <point x="225" y="211"/>
      <point x="216" y="259" type="curve" smooth="yes"/>
      <point x="189" y="401" type="line" smooth="yes"/>
      <point x="186" y="416"/>
      <point x="182" y="434"/>
      <point x="182" y="445" type="curve" smooth="yes"/>
      <point x="182" y="478"/>
      <point x="199" y="487"/>
      <point x="231" y="487" type="curve" smooth="yes"/>
      <point x="240" y="487" type="line"/>
      <point x="240" y="536" type="line"/>
      <point x="-2" y="536" type="line"/>
      <point x="-2" y="487" type="line"/>
      <point x="0" y="487" type="line"/>
      <point x="32" y="487"/>
      <point x="48" y="477"/>
    </contour>
  </outline>
</glyph>
<glyph name="x.mono" format="2">
  <advance width="500"/>
  <unicode hex="0078"/>
  <anchor x="250" y="0" name="bottom"/>
  <anchor x="250" y="546" name="top"/>
  <anchor x="480" y="546" name="topright"/>
  <outline>
    <contour>
      <point x="10" y="0" type="line"/>
      <point x="158" y="0" type="line"/>
      <point x="249" y="192" type="line"/>
      <point x="343" y="0" type="line"/>
      <point x="490" y="0" type="line"/>
      <point x="338" y="278" type="line"/>
      <point x="483" y="546" type="line"/>
      <point x="337" y="546" type="line"/>
      <point x="249" y="361" type="line"/>
      <point x="164" y="546" type="line"/>
      <point x="17" y="546" type="line"/>
      <point x="161" y="278" type="line"/>
    </contour>
  </outline>
</glyph>
<glyph name="x.serif" format="2">
  <advance width="532"/>
  <unicode hex="0078"/>
  <anchor x="266" y="0" name="bottom"/>
  <anchor x="266" y="536" name="top"/>
  <anchor x="512" y="536" name="topright"/>
  <outline>
    <contour>
      <point x="9" y="0" type="line"/>
      <point x="217" y="0" type="line"/>
      <point x="217" y="49" type="line"/>
      <point x="215" y="49" type="line" smooth="yes"/>
      <point x="179" y="49"/>
      <point x="165" y="60"/>
      <point x="165" y="82" type="curve" smooth="yes"/>
      <point x="165" y="101"/>
      <point x="174" y="117"/>
      <point x="185" y="136" type="curve" smooth="yes"/>
      <point x="238" y="228" type="line"/>
      <point x="284" y="151" type="line" smooth="yes"/>
      <point x="310" y="111"/>
      <point x="315" y="97"/>
      <point x="315" y="82" type="curve" smooth="yes"/>
      <point x="315" y="60"/>
      <point x="299" y="49"/>
      <point x="266" y="49" type="curve" smooth="yes"/>
      <point x="262" y="49" type="line"/>
      <point x="262" y="0" type="line"/>
      <point x="527" y="0" type="line"/>
      <point x="527" y="49" type="line"/>
      <point x="516" y="49" type="line" smooth="yes"/>
      <point x="496" y="49"/>
      <point x="475" y="64"/>
      <point x="451" y="102" type="curve" smooth="yes"/>
      <point x="332" y="291" type="line"/>
      <point x="417" y="422" type="line" smooth="yes"/>
      <point x="451" y="475"/>
      <point x="466" y="487"/>
      <point x="497" y="487" type="curve" smooth="yes"/>
      <point x="504" y="487" type="line"/>
      <point x="504" y="536" type="line"/>
      <point x="317" y="536" type="line"/>
      <point x="317" y="487" type="line"/>
      <point x="321" y="487" type="line" smooth="yes"/>
      <point x="344" y="487"/>
      <point x="360" y="481"/>
      <point x="360" y="457" type="curve" smooth="yes"/>
      <point x="360" y="439"/>
      <point x="349" y="423"/>
      <point x="338" y="401" type="curve" smooth="yes"/>
      <point x="301" y="335" type="line"/>
      <point x="255" y="412" type="line" smooth="yes"/>
      <point x="244" y="432"/>
      <point x="237" y="444"/>
      <point x="237" y="458" type="curve" smooth="yes"/>
      <point x="237" y="474"/>
      <point x="245" y="487"/>
      <point x="280" y="487" type="curve" smooth="yes"/>
      <point x="283" y="487" type="line"/>
      <point x="283" y="536" type="line"/>
      <point x="24" y="536" type="line"/>
      <point x="24" y="487" type="line"/>
      <point x="35" y="487" type="line" smooth="yes"/>
      <point x="61" y="487"/>
      <point x="82" y="469"/>
      <point x="105" y="434" type="curve" smooth="yes"/>
      <point x="207" y="271" type="line"/>
      <point x="105" y="113" type="line" smooth="yes"/>
      <point x="72" y="63"/>
      <point x="56" y="49"/>
      <point x="17" y="49" type="curve" smooth="yes"/>
      <point x="9" y="49" type="line"/>
    </contour>
  </outline>
</glyph>
<glyph name="y.mono" format="2">
  <advance width="500"/>
  <unicode hex="0079"/>
  <anchor x="250" y="-245" name="bottom"/>
  <anchor x="250" y="546" name="top"/>
  <anchor x="480" y="546" name="topright"/>
  <outline>
    <contour>
      <point x="107" y="-245" type="curve" smooth="yes"/>
      <point x="224" y="-245"/>
      <point x="288" y="-148"/>
      <point x="322" y="-30" type="curve" smooth="yes"/>
      <point x="490" y="546" type="line"/>
      <point x="345" y="546" type="line"/>
      <point x="279" y="235" type="line" smooth="yes"/>
      <point x="273" y="205"/>
      <point x="266" y="166"/>
      <point x="262" y="133" type="curve"/>
      <point x="259" y="133" type="line"/>
      <point x="254" y="172"/>
      <point x="246" y="206"/>
      <point x="239" y="235" type="curve" smooth="yes"/>
      <point x="159" y="546" type="line"/>
      <point x="10" y="546" type="line"/>
      <point x="198" y="-6" type="line"/>
      <point x="185" y="-45" type="line" smooth="yes"/>
      <point x="164" y="-107"/>
      <point x="124" y="-138"/>
      <point x="78" y="-138" type="curve" smooth="yes"/>
      <point x="69" y="-138"/>
      <point x="53" y="-136"/>
      <point x="38" y="-132" type="curve"/>
      <point x="38" y="-237" type="line"/>
      <point x="60" y="-242"/>
      <point x="81" y="-245"/>
    </contour>
  </outline>
</glyph>
<glyph name="y.serif" format="2">
  <advance width="473"/>
  <unicode hex="0079"/>
  <anchor x="127" y="-230" name="bottom"/>
  <anchor x="267" y="536" name="top"/>
  <anchor x="480" y="536" name="topright"/>
  <outline>
    <contour>
      <point x="21" y="-175" type="curve"/>
      <point x="21" y="-230" type="line"/>
      <point x="36" y="-230" type="line" smooth="yes"/>
      <point x="200" y="-230"/>
      <point x="229" y="-183"/>
      <point x="285" y="5" type="curve" smooth="yes"/>
      <point x="407" y="415" type="line" smooth="yes"/>
      <point x="424" y="472"/>
      <point x="440" y="487"/>
      <point x="471" y="487" type="curve" smooth="yes"/>
      <point x="473" y="487" type="line"/>
      <point x="473" y="536" type="line"/>
      <point x="298" y="536" type="line"/>
      <point x="298" y="487" type="line"/>
      <point x="302" y="486" type="line" smooth="yes"/>
      <point x="334" y="484"/>
      <point x="349" y="478"/>
      <point x="349" y="453" type="curve" smooth="yes"/>
      <point x="349" y="436"/>
      <point x="344" y="413"/>
      <point x="339" y="397" type="curve" smooth="yes"/>
      <point x="290" y="205" type="line" smooth="yes"/>
      <point x="281" y="172"/>
      <point x="275" y="141"/>
      <point x="270" y="108" type="curve"/>
      <point x="267" y="137"/>
      <point x="258" y="183"/>
      <point x="243" y="237" type="curve" smooth="yes"/>
      <point x="198" y="396" type="line" smooth="yes"/>
      <point x="191" y="419"/>
      <point x="186" y="438"/>
      <point x="186" y="453" type="curve" smooth="yes"/>
      <point x="186" y="474"/>
      <point x="198" y="487"/>
      <point x="235" y="487" type="curve" smooth="yes"/>
      <point x="238" y="487" type="line"/>
      <point x="238" y="536" type="line"/>
      <point x="0" y="536" type="line"/>
      <point x="0" y="487" type="line"/>
      <point x="4" y="487" type="line" smooth="yes"/>
      <point x="31" y="487"/>
      <point x="41" y="479"/>
      <point x="55" y="437" type="curve" smooth="yes"/>
      <point x="200" y="-7" type="line"/>
      <point x="172" y="-110"/>
      <point x="133" y="-175"/>
    </contour>
  </outline>
</glyph>
<glyph name="z.serif" format="2">
  <advance width="432"/>
  <unicode hex="007A"/>
  <anchor x="216" y="0" name="bottom"/>
  <anchor x="216" y="536" name="top"/>
  <anchor x="420" y="536" name="topright"/>
  <outline>
    <contour>
      <point x="12" y="0" type="line"/>
      <point x="406" y="0" type="line"/>
      <point x="411" y="175" type="line"/>
      <point x="362" y="175" type="line"/>
      <point x="356" y="142" type="line" smooth="yes"/>
      <point x="346" y="80"/>
      <point x="330" y="58"/>
      <point x="284" y="58" type="curve" smooth="yes"/>
      <point x="157" y="58" type="line"/>
      <point x="401" y="494" type="line"/>
      <point x="401" y="536" type="line"/>
      <point x="44" y="536" type="line"/>
      <point x="34" y="381" type="line"/>
      <point x="85" y="381" type="line"/>
      <point x="91" y="405" type="line" smooth="yes"/>
      <point x="104" y="459"/>
      <point x="118" y="478"/>
      <point x="158" y="478" type="curve" smooth="yes"/>
      <point x="256" y="478" type="line"/>
      <point x="12" y="40" type="line"/>
    </contour>
  </outline>
</glyph>
<glyph name="braceleft.mono" format="2">
  <advance width="500"/>
  <unicode hex="007B"/>
  <outline>
    <contour>
      <point x="403" y="-164" type="curve"/>
      <point x="403" y="-67" type="line"/>
      <point x="336" y="-65"/>
      <point x="313" y="-44"/>
      <point x="313" y="8" type="curve" smooth="yes"/>
      <point x="313" y="154" type="line" smooth="yes"/>
      <point x="313" y="224"/>
      <point x="289" y="263"/>
      <point x="222" y="275" type="curve"/>
      <point x="222" y="281" type="line"/>
      <point x="287" y="292"/>
      <point x="313" y="330"/>
      <point x="313" y="405" type="curve" smooth="yes"/>
      <point x="313" y="549" type="line" smooth="yes"/>
      <point x="313" y="607"/>
      <point x="345" y="621"/>
      <point x="403" y="623" type="curve"/>
      <point x="403" y="720" type="line"/>
      <point x="245" y="719"/>
      <point x="197" y="671"/>
      <point x="197" y="558" type="curve" smooth="yes"/>
      <point x="197" y="416" type="line" smooth="yes"/>
      <point x="197" y="353"/>
      <point x="166" y="326"/>
      <point x="96" y="326" type="curve"/>
      <point x="96" y="229" type="line"/>
      <point x="169" y="229"/>
      <point x="197" y="198"/>
      <point x="197" y="139" type="curve" smooth="yes"/>
      <point x="197" y="-1" type="line" smooth="yes"/>
      <point x="197" y="-124"/>
      <point x="254" y="-164"/>
    </contour>
  </outline>
</glyph>
<glyph name="asciitilde.mono" format="2">
  <advance width="500"/>
  <unicode hex="007E"/>
  <outline>
    <contour>
      <point x="57" y="274" type="curve"/>
      <point x="121" y="274" type="line"/>
      <point x="121" y="357"/>
      <point x="139" y="392"/>
      <point x="169" y="392" type="curve" smooth="yes"/>
      <point x="188" y="392"/>
      <point x="201" y="377"/>
      <point x="234" y="339" type="curve" smooth="yes"/>
      <point x="282" y="283"/>
      <point x="307" y="274"/>
      <point x="337" y="274" type="curve" smooth="yes"/>
      <point x="419" y="274"/>
      <point x="446" y="363"/>
      <point x="446" y="459" type="curve"/>
      <point x="381" y="459" type="line"/>
      <point x="381" y="376"/>
      <point x="365" y="342"/>
      <point x="335" y="342" type="curve" smooth="yes"/>
      <point x="314" y="342"/>
      <point x="301" y="357"/>
      <point x="273" y="392" type="curve" smooth="yes"/>
      <point x="234" y="440"/>
      <point x="203" y="459"/>
      <point x="166" y="459" type="curve" smooth="yes"/>
      <point x="84" y="459"/>
      <point x="57" y="371"/>
    </contour>
  </outline>
</glyph>
<glyph name="cent.mono" format="2">
  <advance width="500"/>
  <unicode hex="00A2"/>
  <outline>
    <contour>
      <point x="261" y="86" type="curve"/>
      <point x="261" y="-10" type="line"/>
      <point x="330" y="-10" type="line"/>
      <point x="330" y="85" type="line"/>
      <point x="369" y="90"/>
      <point x="408" y="103"/>
      <point x="433" y="121" type="curve"/>
      <point x="433" y="225" type="line"/>
      <point x="398" y="202"/>
      <point x="351" y="187"/>
      <point x="314" y="187" type="curve" smooth="yes"/>
      <point x="229" y="187"/>
      <point x="193" y="239"/>
      <point x="193" y="362" type="curve" smooth="yes"/>
      <point x="193" y="488"/>
      <point x="231" y="541"/>
      <point x="316" y="541" type="curve" smooth="yes"/>
      <point x="343" y="541"/>
      <point x="381" y="532"/>
      <point x="410" y="514" type="curve"/>
      <point x="443" y="613" type="line"/>
      <point x="414" y="631"/>
      <point x="369" y="643"/>
      <point x="330" y="646" type="curve"/>
      <point x="330" y="724" type="line"/>
      <point x="260" y="724" type="line"/>
      <point x="260" y="643" type="line"/>
      <point x="132" y="627"/>
      <point x="72" y="521"/>
      <point x="72" y="362" type="curve" smooth="yes"/>
      <point x="72" y="200"/>
      <point x="130" y="98"/>
    </contour>
  </outline>
</glyph>
